<svg xmlns="http://www.w3.org/2000/svg" xmlns:xlink="http://www.w3.org/1999/xlink" id="body_3" preserveAspectRatio="xMinYMin meet" viewBox="0 0 604 907"><defs><clipPath id="1"><path clip-rule="evenodd" d="M0 680L0 -0.4000244L0 -0.4000244L453.6 -0.4000244L453.6 -0.4000244L453.6 680L453.6 680L0 680z" /></clipPath><clipPath id="2"><path clip-rule="evenodd" d="M0 25.09998L453.6 25.09998L453.6 25.09998L453.6 39.04895L453.6 39.04895L0 39.04895z" /></clipPath><clipPath id="3"><path clip-rule="evenodd" d="M416.706 24.55005L437 24.55005L437 24.55005L437 39.5L437 39.5L416.706 39.5z" /></clipPath></defs><g transform="matrix(1.333333 0 0 1.333333 0 0)"><g><g clip-path="url(#1)"><g clip-path="url(#2)"><path transform="matrix(1 0 0 -1 0 680)" d="M15.55 641.326L420.05 641.326" stroke="#000000" stroke-width="0.75" fill="none" /></g><g clip-path="url(#3)"><path transform="matrix(1 0 0 -1 0 680)" d="M415.656 641.475L438.05 641.475" stroke="#000000" stroke-width="0.75" fill="none" /></g></g></g></g></svg>