<svg xmlns="http://www.w3.org/2000/svg" xmlns:xlink="http://www.w3.org/1999/xlink" id="body_1" preserveAspectRatio="xMinYMin meet" viewBox="0 0 793 1121"><defs><clipPath id="1"><path clip-rule="evenodd" d="M0 841L0 -0.9000244L0 -0.9000244L595.3 -0.9000244L595.3 -0.9000244L595.3 841L595.3 841L0 841z" /></clipPath><clipPath id="2"><path clip-rule="evenodd" d="M0 41.65002L595.3 41.65002L595.3 41.65002L595.3 51.99902L595.3 51.99902L0 51.99902z" /></clipPath><clipPath id="3"><path clip-rule="evenodd" d="M201.926 120.288L425.0726 120.288L425.0726 120.288L425.0726 178.511L425.0726 178.511L201.926 178.511z" /></clipPath><clipPath id="4"><path clip-rule="evenodd" d="M202.3304 120.7308L424.6611 120.7308L424.6611 120.7308L424.6611 178.0683L424.6611 178.0683L202.3304 178.0683z" /></clipPath></defs><g transform="matrix(1.333333 0 0 1.333333 0 0)"><g><g clip-path="url(#1)"><g clip-path="url(#2)"></g><g clip-path="url(#3)"><g clip-path="url(#4)"><g transform="matrix(0.3274384 0 0 0.3276425 202.3304 120.7308)"><g transform="matrix(1 0 0 1 0 0)"><image x="0" y="0" xlink:href="img_01.png" width="679" height="175" /></g></g></g></g></g></g></g></svg>