<svg xmlns="http://www.w3.org/2000/svg" xmlns:xlink="http://www.w3.org/1999/xlink" id="body_2" preserveAspectRatio="xMinYMin meet" viewBox="0 0 793 1121"><defs><clipPath id="1"><path clip-rule="evenodd" d="M0 841L0 -0.9000244L0 -0.9000244L595.3 -0.9000244L595.3 -0.9000244L595.3 841L595.3 841L0 841z" /></clipPath><clipPath id="2"><path clip-rule="evenodd" d="M65.25 101.7L530.05 101.7L530.05 101.7L530.05 744.2L530.05 744.2L65.25 744.2z" /></clipPath><clipPath id="3"><path clip-rule="evenodd" d="M59.925 101.7L130.075 101.7L130.075 101.7L130.075 126.35L130.075 126.35L59.925 126.35z" /></clipPath><clipPath id="4"><path clip-rule="evenodd" d="M128.575 101.7L535.375 101.7L535.375 101.7L535.375 126.35L535.375 126.35L128.575 126.35z" /></clipPath><clipPath id="5"><path clip-rule="evenodd" d="M59.925 124.85L130.075 124.85L130.075 124.85L130.075 149.8L130.075 149.8L59.925 149.8z" /></clipPath><clipPath id="6"><path clip-rule="evenodd" d="M128.575 124.85L193.075 124.85L193.075 124.85L193.075 149.8L193.075 149.8L128.575 149.8z" /></clipPath><clipPath id="7"><path clip-rule="evenodd" d="M191.575 124.85L256.075 124.85L256.075 124.85L256.075 149.8L256.075 149.8L191.575 149.8z" /></clipPath><clipPath id="8"><path clip-rule="evenodd" d="M254.575 124.85L346.125 124.85L346.125 124.85L346.125 149.8L346.125 149.8L254.575 149.8z" /></clipPath><clipPath id="9"><path clip-rule="evenodd" d="M344.625 124.85L436.125 124.85L436.125 124.85L436.125 149.8L436.125 149.8L344.625 149.8z" /></clipPath><clipPath id="10"><path clip-rule="evenodd" d="M434.625 124.85L535.375 124.85L535.375 124.85L535.375 149.8L535.375 149.8L434.625 149.8z" /></clipPath><clipPath id="11"><path clip-rule="evenodd" d="M59.925 148.3L535.375 148.3L535.375 148.3L535.375 312.6L535.375 312.6L59.925 312.6z" /></clipPath><clipPath id="12"><path clip-rule="evenodd" d="M59.925 311.1L535.375 311.1L535.375 311.1L535.375 452.05L535.375 452.05L59.925 452.05z" /></clipPath><clipPath id="13"><path clip-rule="evenodd" d="M59.925 450.55L535.375 450.55L535.375 450.55L535.375 577.7L535.375 577.7L59.925 577.7z" /></clipPath><clipPath id="14"><path clip-rule="evenodd" d="M59.925 576.2L535.375 576.2L535.375 576.2L535.375 670.3L535.375 670.3L59.925 670.3z" /></clipPath><clipPath id="15"><path clip-rule="evenodd" d="M59.925 668.8L535.375 668.8L535.375 668.8L535.375 744.2L535.375 744.2L59.925 744.2z" /></clipPath><clipPath id="16"><path clip-rule="evenodd" d="M65.25 101.7L530.05 101.7L530.05 101.7L530.05 744.2L530.05 744.2L65.25 744.2z" /></clipPath></defs><g transform="matrix(1.333333 0 0 1.333333 0 0)"><g><g clip-path="url(#1)"><g clip-path="url(#2)"></g><g clip-path="url(#3)"></g><g clip-path="url(#4)"></g><g clip-path="url(#5)"></g><g clip-path="url(#6)"></g><g clip-path="url(#7)"></g><g clip-path="url(#8)"></g><g clip-path="url(#9)"></g><g clip-path="url(#10)"></g><g clip-path="url(#11)"></g><g clip-path="url(#12)"></g><g clip-path="url(#13)"></g><g clip-path="url(#14)"></g><g clip-path="url(#15)"></g><path transform="matrix(1 0 0 -1 0 841)" d="M129.325 738.3L129.325 715.65" stroke="#000000" stroke-width="0.5" fill="none" /><path transform="matrix(1 0 0 -1 0 841)" d="M129.325 715.15L129.325 692.2" stroke="#000000" stroke-width="0.5" fill="none" /><path transform="matrix(1 0 0 -1 0 841)" d="M192.325 715.15L192.325 692.2" stroke="#000000" stroke-width="0.5" fill="none" /><path transform="matrix(1 0 0 -1 0 841)" d="M255.325 715.15L255.325 692.2" stroke="#000000" stroke-width="0.5" fill="none" /><path transform="matrix(1 0 0 -1 0 841)" d="M345.375 715.15L345.375 692.2" stroke="#000000" stroke-width="0.5" fill="none" /><path transform="matrix(1 0 0 -1 0 841)" d="M435.375 715.15L435.375 692.2" stroke="#000000" stroke-width="0.5" fill="none" /><path transform="matrix(1 0 0 -1 0 841)" d="M60.925 715.4L534.375 715.4" stroke="#000000" stroke-width="0.5" fill="none" /><path transform="matrix(1 0 0 -1 0 841)" d="M60.925 691.95L534.375 691.95" stroke="#000000" stroke-width="0.5" fill="none" /><path transform="matrix(1 0 0 -1 0 841)" d="M60.925 529.15L534.375 529.15" stroke="#000000" stroke-width="0.5" fill="none" /><path transform="matrix(1 0 0 -1 0 841)" d="M60.925 389.7L534.375 389.7" stroke="#000000" stroke-width="0.5" fill="none" /><path transform="matrix(1 0 0 -1 0 841)" d="M60.925 264.05L534.375 264.05" stroke="#000000" stroke-width="0.5" fill="none" /><path transform="matrix(1 0 0 -1 0 841)" d="M60.925 171.45L534.375 171.45" stroke="#000000" stroke-width="0.5" fill="none" /><g clip-path="url(#16)"></g><path transform="matrix(1 0 0 -1 0 841)" d="M65.5 738.3L65.5 97.79999" stroke="#000000" stroke-width="1.5" fill="none" /><path transform="matrix(1 0 0 -1 0 841)" d="M529.8 738.3L529.8 97.79999" stroke="#000000" stroke-width="1.5" fill="none" /><path transform="matrix(1 0 0 -1 0 841)" d="M64.75 739.05L530.55 739.05" stroke="#000000" stroke-width="1.5" fill="none" /><path transform="matrix(1 0 0 -1 0 841)" d="M64.75 97.04999L530.55 97.04999" stroke="#000000" stroke-width="1.5" fill="none" /></g></g></g></svg>