<svg xmlns="http://www.w3.org/2000/svg" xmlns:xlink="http://www.w3.org/1999/xlink" id="body_1" preserveAspectRatio="xMinYMin meet" viewBox="0 0 793 1121"><defs><clipPath id="1"><path clip-rule="evenodd" d="M0 841L0 -0.9000244L0 -0.9000244L595.3 -0.9000244L595.3 -0.9000244L595.3 841L595.3 841L0 841z" /></clipPath><clipPath id="2"><path clip-rule="evenodd" d="M83.85 101.8L127.5 101.8L127.5 101.8L127.5 129.4L127.5 129.4L83.85 129.4z" /></clipPath><clipPath id="3"><path clip-rule="evenodd" d="M126 101.8L210.1 101.8L210.1 101.8L210.1 129.4L210.1 129.4L126 129.4z" /></clipPath><clipPath id="4"><path clip-rule="evenodd" d="M208.6 101.8L521.65 101.8L521.65 101.8L521.65 129.4L521.65 129.4L208.6 129.4z" /></clipPath><clipPath id="5"><path clip-rule="evenodd" d="M520.15 101.8L581.7 101.8L581.7 101.8L581.7 129.4L581.7 129.4L520.15 129.4z" /></clipPath><clipPath id="6"><path clip-rule="evenodd" d="M83.85 127.9L127.5 127.9L127.5 127.9L127.5 164.2061L127.5 164.2061L83.85 164.2061z" /></clipPath><clipPath id="7"><path clip-rule="evenodd" d="M126 127.9L210.1 127.9L210.1 127.9L210.1 164.2061L210.1 164.2061L126 164.2061z" /></clipPath><clipPath id="8"><path clip-rule="evenodd" d="M208.6 127.9L521.65 127.9L521.65 127.9L521.65 164.2061L521.65 164.2061L208.6 164.2061z" /></clipPath><clipPath id="9"><path clip-rule="evenodd" d="M520.15 127.9L581.7 127.9L581.7 127.9L581.7 164.2061L581.7 164.2061L520.15 164.2061z" /></clipPath><clipPath id="10"><path clip-rule="evenodd" d="M83.85 162.706L127.5 162.706L127.5 162.706L127.5 190.306L127.5 190.306L83.85 190.306z" /></clipPath><clipPath id="11"><path clip-rule="evenodd" d="M126 162.706L210.1 162.706L210.1 162.706L210.1 190.306L210.1 190.306L126 190.306z" /></clipPath><clipPath id="12"><path clip-rule="evenodd" d="M208.6 162.706L521.65 162.706L521.65 162.706L521.65 190.306L521.65 190.306L208.6 190.306z" /></clipPath><clipPath id="13"><path clip-rule="evenodd" d="M520.15 162.706L581.7 162.706L581.7 162.706L581.7 190.306L581.7 190.306L520.15 190.306z" /></clipPath><clipPath id="14"><path clip-rule="evenodd" d="M83.85 188.806L127.5 188.806L127.5 188.806L127.5 225.1121L127.5 225.1121L83.85 225.1121z" /></clipPath><clipPath id="15"><path clip-rule="evenodd" d="M126 188.806L210.1 188.806L210.1 188.806L210.1 225.1121L210.1 225.1121L126 225.1121z" /></clipPath><clipPath id="16"><path clip-rule="evenodd" d="M208.6 188.806L521.65 188.806L521.65 188.806L521.65 225.1121L521.65 225.1121L208.6 225.1121z" /></clipPath><clipPath id="17"><path clip-rule="evenodd" d="M520.15 188.806L581.7 188.806L581.7 188.806L581.7 225.1121L581.7 225.1121L520.15 225.1121z" /></clipPath><clipPath id="18"><path clip-rule="evenodd" d="M83.85 223.612L127.5 223.612L127.5 223.612L127.5 259.918L127.5 259.918L83.85 259.918z" /></clipPath><clipPath id="19"><path clip-rule="evenodd" d="M126 223.612L210.1 223.612L210.1 223.612L210.1 259.918L210.1 259.918L126 259.918z" /></clipPath><clipPath id="20"><path clip-rule="evenodd" d="M208.6 223.612L521.65 223.612L521.65 223.612L521.65 259.918L521.65 259.918L208.6 259.918z" /></clipPath><clipPath id="21"><path clip-rule="evenodd" d="M520.15 223.612L581.7 223.612L581.7 223.612L581.7 259.918L581.7 259.918L520.15 259.918z" /></clipPath><clipPath id="22"><path clip-rule="evenodd" d="M83.85 258.418L127.5 258.418L127.5 258.418L127.5 294.724L127.5 294.724L83.85 294.724z" /></clipPath><clipPath id="23"><path clip-rule="evenodd" d="M126 258.418L210.1 258.418L210.1 258.418L210.1 294.724L210.1 294.724L126 294.724z" /></clipPath><clipPath id="24"><path clip-rule="evenodd" d="M208.6 258.418L521.65 258.418L521.65 258.418L521.65 294.724L521.65 294.724L208.6 294.724z" /></clipPath><clipPath id="25"><path clip-rule="evenodd" d="M520.15 258.418L581.7 258.418L581.7 258.418L581.7 294.724L581.7 294.724L520.15 294.724z" /></clipPath><clipPath id="26"><path clip-rule="evenodd" d="M83.85 293.224L127.5 293.224L127.5 293.224L127.5 329.53L127.5 329.53L83.85 329.53z" /></clipPath><clipPath id="27"><path clip-rule="evenodd" d="M126 293.224L210.1 293.224L210.1 293.224L210.1 329.53L210.1 329.53L126 329.53z" /></clipPath><clipPath id="28"><path clip-rule="evenodd" d="M208.6 293.224L521.65 293.224L521.65 293.224L521.65 329.53L521.65 329.53L208.6 329.53z" /></clipPath><clipPath id="29"><path clip-rule="evenodd" d="M520.15 293.224L581.7 293.224L581.7 293.224L581.7 329.53L581.7 329.53L520.15 329.53z" /></clipPath><clipPath id="30"><path clip-rule="evenodd" d="M83.85 328.03L127.5 328.03L127.5 328.03L127.5 364.336L127.5 364.336L83.85 364.336z" /></clipPath><clipPath id="31"><path clip-rule="evenodd" d="M126 328.03L210.1 328.03L210.1 328.03L210.1 364.336L210.1 364.336L126 364.336z" /></clipPath><clipPath id="32"><path clip-rule="evenodd" d="M208.6 328.03L521.65 328.03L521.65 328.03L521.65 364.336L521.65 364.336L208.6 364.336z" /></clipPath><clipPath id="33"><path clip-rule="evenodd" d="M520.15 328.03L581.7 328.03L581.7 328.03L581.7 364.336L581.7 364.336L520.15 364.336z" /></clipPath><clipPath id="34"><path clip-rule="evenodd" d="M83.85 362.836L127.5 362.836L127.5 362.836L127.5 391.686L127.5 391.686L83.85 391.686z" /></clipPath><clipPath id="35"><path clip-rule="evenodd" d="M126 362.836L210.1 362.836L210.1 362.836L210.1 391.686L210.1 391.686L126 391.686z" /></clipPath><clipPath id="36"><path clip-rule="evenodd" d="M208.6 362.836L521.65 362.836L521.65 362.836L521.65 391.686L521.65 391.686L208.6 391.686z" /></clipPath><clipPath id="37"><path clip-rule="evenodd" d="M520.15 362.836L581.7 362.836L581.7 362.836L581.7 391.686L581.7 391.686L520.15 391.686z" /></clipPath><clipPath id="38"><path clip-rule="evenodd" d="M83.85 390.186L127.5 390.186L127.5 390.186L127.5 426.492L127.5 426.492L83.85 426.492z" /></clipPath><clipPath id="39"><path clip-rule="evenodd" d="M126 390.186L210.1 390.186L210.1 390.186L210.1 426.492L210.1 426.492L126 426.492z" /></clipPath><clipPath id="40"><path clip-rule="evenodd" d="M208.6 390.186L521.65 390.186L521.65 390.186L521.65 426.492L521.65 426.492L208.6 426.492z" /></clipPath><clipPath id="41"><path clip-rule="evenodd" d="M520.15 390.186L581.7 390.186L581.7 390.186L581.7 426.492L581.7 426.492L520.15 426.492z" /></clipPath><clipPath id="42"><path clip-rule="evenodd" d="M83.85 424.992L127.5 424.992L127.5 424.992L127.5 461.298L127.5 461.298L83.85 461.298z" /></clipPath><clipPath id="43"><path clip-rule="evenodd" d="M126 424.992L210.1 424.992L210.1 424.992L210.1 461.298L210.1 461.298L126 461.298z" /></clipPath><clipPath id="44"><path clip-rule="evenodd" d="M208.6 424.992L521.65 424.992L521.65 424.992L521.65 461.298L521.65 461.298L208.6 461.298z" /></clipPath><clipPath id="45"><path clip-rule="evenodd" d="M520.15 424.992L581.7 424.992L581.7 424.992L581.7 461.298L581.7 461.298L520.15 461.298z" /></clipPath><clipPath id="46"><path clip-rule="evenodd" d="M83.85 459.798L127.5 459.798L127.5 459.798L127.5 496.104L127.5 496.104L83.85 496.104z" /></clipPath><clipPath id="47"><path clip-rule="evenodd" d="M126 459.798L210.1 459.798L210.1 459.798L210.1 496.104L210.1 496.104L126 496.104z" /></clipPath><clipPath id="48"><path clip-rule="evenodd" d="M208.6 459.798L521.65 459.798L521.65 459.798L521.65 496.104L521.65 496.104L208.6 496.104z" /></clipPath><clipPath id="49"><path clip-rule="evenodd" d="M520.15 459.798L581.7 459.798L581.7 459.798L581.7 496.104L581.7 496.104L520.15 496.104z" /></clipPath><clipPath id="50"><path clip-rule="evenodd" d="M83.85 494.604L127.5 494.604L127.5 494.604L127.5 530.91L127.5 530.91L83.85 530.91z" /></clipPath><clipPath id="51"><path clip-rule="evenodd" d="M126 494.604L210.1 494.604L210.1 494.604L210.1 530.91L210.1 530.91L126 530.91z" /></clipPath><clipPath id="52"><path clip-rule="evenodd" d="M208.6 494.604L521.65 494.604L521.65 494.604L521.65 530.91L521.65 530.91L208.6 530.91z" /></clipPath><clipPath id="53"><path clip-rule="evenodd" d="M520.15 494.604L581.7 494.604L581.7 494.604L581.7 530.91L581.7 530.91L520.15 530.91z" /></clipPath><clipPath id="54"><path clip-rule="evenodd" d="M83.85 529.41L127.5 529.41L127.5 529.41L127.5 572.578L127.5 572.578L83.85 572.578z" /></clipPath><clipPath id="55"><path clip-rule="evenodd" d="M126 529.41L210.1 529.41L210.1 529.41L210.1 572.578L210.1 572.578L126 572.578z" /></clipPath><clipPath id="56"><path clip-rule="evenodd" d="M208.6 529.41L521.65 529.41L521.65 529.41L521.65 572.578L521.65 572.578L208.6 572.578z" /></clipPath><clipPath id="57"><path clip-rule="evenodd" d="M520.15 529.41L581.7 529.41L581.7 529.41L581.7 572.578L581.7 572.578L520.15 572.578z" /></clipPath></defs><g transform="matrix(1.333333 0 0 1.333333 0 0)"><g><g clip-path="url(#1)"><g clip-path="url(#2)"></g><g clip-path="url(#3)"></g><g clip-path="url(#4)"></g><g clip-path="url(#5)"></g><g clip-path="url(#6)"></g><g clip-path="url(#7)"></g><g clip-path="url(#8)"></g><g clip-path="url(#9)"></g><g clip-path="url(#10)"></g><g clip-path="url(#11)"></g><g clip-path="url(#12)"></g><g clip-path="url(#13)"></g><g clip-path="url(#14)"></g><g clip-path="url(#15)"></g><g clip-path="url(#16)"></g><g clip-path="url(#17)"></g><g clip-path="url(#18)"></g><g clip-path="url(#19)"></g><g clip-path="url(#20)"></g><g clip-path="url(#21)"></g><g clip-path="url(#22)"></g><g clip-path="url(#23)"></g><g clip-path="url(#24)"></g><g clip-path="url(#25)"></g><g clip-path="url(#26)"></g><g clip-path="url(#27)"></g><g clip-path="url(#28)"></g><g clip-path="url(#29)"></g><g clip-path="url(#30)"></g><g clip-path="url(#31)"></g><g clip-path="url(#32)"></g><g clip-path="url(#33)"></g><g clip-path="url(#34)"></g><g clip-path="url(#35)"></g><g clip-path="url(#36)"></g><g clip-path="url(#37)"></g><g clip-path="url(#38)"></g><g clip-path="url(#39)"></g><g clip-path="url(#40)"></g><g clip-path="url(#41)"></g><g clip-path="url(#42)"></g><g clip-path="url(#43)"></g><g clip-path="url(#44)"></g><g clip-path="url(#45)"></g><g clip-path="url(#46)"></g><g clip-path="url(#47)"></g><g clip-path="url(#48)"></g><g clip-path="url(#49)"></g><g clip-path="url(#50)"></g><g clip-path="url(#51)"></g><g clip-path="url(#52)"></g><g clip-path="url(#53)"></g><g clip-path="url(#54)"></g><g clip-path="url(#55)"></g><g clip-path="url(#56)"></g><g clip-path="url(#57)"></g><path transform="matrix(1 0 0 -1 0 841)" d="M84.6 738.2L84.6 269.422" stroke="#000000" stroke-width="0.5" fill="none" /><path transform="matrix(1 0 0 -1 0 841)" d="M126.75 738.2L126.75 712.6" stroke="#000000" stroke-width="0.5" fill="none" /><path transform="matrix(1 0 0 -1 0 841)" d="M126.75 712.1L126.75 677.794" stroke="#000000" stroke-width="0.5" fill="none" /><path transform="matrix(1 0 0 -1 0 841)" d="M126.75 677.294L126.75 651.694" stroke="#000000" stroke-width="0.5" fill="none" /><path transform="matrix(1 0 0 -1 0 841)" d="M126.75 651.194L126.75 616.888" stroke="#000000" stroke-width="0.5" fill="none" /><path transform="matrix(1 0 0 -1 0 841)" d="M126.75 616.388L126.75 582.082" stroke="#000000" stroke-width="0.5" fill="none" /><path transform="matrix(1 0 0 -1 0 841)" d="M126.75 581.582L126.75 547.276" stroke="#000000" stroke-width="0.5" fill="none" /><path transform="matrix(1 0 0 -1 0 841)" d="M126.75 546.776L126.75 512.47" stroke="#000000" stroke-width="0.5" fill="none" /><path transform="matrix(1 0 0 -1 0 841)" d="M126.75 511.97L126.75 477.664" stroke="#000000" stroke-width="0.5" fill="none" /><path transform="matrix(1 0 0 -1 0 841)" d="M126.75 477.164L126.75 450.314" stroke="#000000" stroke-width="0.5" fill="none" /><path transform="matrix(1 0 0 -1 0 841)" d="M126.75 449.814L126.75 415.508" stroke="#000000" stroke-width="0.5" fill="none" /><path transform="matrix(1 0 0 -1 0 841)" d="M126.75 415.008L126.75 380.702" stroke="#000000" stroke-width="0.5" fill="none" /><path transform="matrix(1 0 0 -1 0 841)" d="M126.75 380.202L126.75 345.896" stroke="#000000" stroke-width="0.5" fill="none" /><path transform="matrix(1 0 0 -1 0 841)" d="M126.75 345.396L126.75 311.09" stroke="#000000" stroke-width="0.5" fill="none" /><path transform="matrix(1 0 0 -1 0 841)" d="M126.75 310.59L126.75 269.422" stroke="#000000" stroke-width="0.5" fill="none" /><path transform="matrix(1 0 0 -1 0 841)" d="M209.35 738.2L209.35 712.6" stroke="#000000" stroke-width="0.5" fill="none" /><path transform="matrix(1 0 0 -1 0 841)" d="M209.35 712.1L209.35 677.794" stroke="#000000" stroke-width="0.5" fill="none" /><path transform="matrix(1 0 0 -1 0 841)" d="M209.35 677.294L209.35 651.694" stroke="#000000" stroke-width="0.5" fill="none" /><path transform="matrix(1 0 0 -1 0 841)" d="M209.35 651.194L209.35 616.888" stroke="#000000" stroke-width="0.5" fill="none" /><path transform="matrix(1 0 0 -1 0 841)" d="M209.35 616.388L209.35 582.082" stroke="#000000" stroke-width="0.5" fill="none" /><path transform="matrix(1 0 0 -1 0 841)" d="M209.35 581.582L209.35 547.276" stroke="#000000" stroke-width="0.5" fill="none" /><path transform="matrix(1 0 0 -1 0 841)" d="M209.35 546.776L209.35 512.47" stroke="#000000" stroke-width="0.5" fill="none" /><path transform="matrix(1 0 0 -1 0 841)" d="M209.35 511.97L209.35 477.664" stroke="#000000" stroke-width="0.5" fill="none" /><path transform="matrix(1 0 0 -1 0 841)" d="M209.35 477.164L209.35 450.314" stroke="#000000" stroke-width="0.5" fill="none" /><path transform="matrix(1 0 0 -1 0 841)" d="M209.35 449.814L209.35 415.508" stroke="#000000" stroke-width="0.5" fill="none" /><path transform="matrix(1 0 0 -1 0 841)" d="M209.35 415.008L209.35 380.702" stroke="#000000" stroke-width="0.5" fill="none" /><path transform="matrix(1 0 0 -1 0 841)" d="M209.35 380.202L209.35 345.896" stroke="#000000" stroke-width="0.5" fill="none" /><path transform="matrix(1 0 0 -1 0 841)" d="M209.35 345.396L209.35 311.09" stroke="#000000" stroke-width="0.5" fill="none" /><path transform="matrix(1 0 0 -1 0 841)" d="M209.35 310.59L209.35 269.422" stroke="#000000" stroke-width="0.5" fill="none" /><path transform="matrix(1 0 0 -1 0 841)" d="M520.9 738.2L520.9 712.6" stroke="#000000" stroke-width="0.5" fill="none" /><path transform="matrix(1 0 0 -1 0 841)" d="M520.9 712.1L520.9 677.794" stroke="#000000" stroke-width="0.5" fill="none" /><path transform="matrix(1 0 0 -1 0 841)" d="M520.9 677.294L520.9 651.694" stroke="#000000" stroke-width="0.5" fill="none" /><path transform="matrix(1 0 0 -1 0 841)" d="M520.9 651.194L520.9 616.888" stroke="#000000" stroke-width="0.5" fill="none" /><path transform="matrix(1 0 0 -1 0 841)" d="M520.9 616.388L520.9 582.082" stroke="#000000" stroke-width="0.5" fill="none" /><path transform="matrix(1 0 0 -1 0 841)" d="M520.9 581.582L520.9 547.276" stroke="#000000" stroke-width="0.5" fill="none" /><path transform="matrix(1 0 0 -1 0 841)" d="M520.9 546.776L520.9 512.47" stroke="#000000" stroke-width="0.5" fill="none" /><path transform="matrix(1 0 0 -1 0 841)" d="M520.9 511.97L520.9 477.664" stroke="#000000" stroke-width="0.5" fill="none" /><path transform="matrix(1 0 0 -1 0 841)" d="M520.9 477.164L520.9 450.314" stroke="#000000" stroke-width="0.5" fill="none" /><path transform="matrix(1 0 0 -1 0 841)" d="M520.9 449.814L520.9 415.508" stroke="#000000" stroke-width="0.5" fill="none" /><path transform="matrix(1 0 0 -1 0 841)" d="M520.9 415.008L520.9 380.702" stroke="#000000" stroke-width="0.5" fill="none" /><path transform="matrix(1 0 0 -1 0 841)" d="M520.9 380.202L520.9 345.896" stroke="#000000" stroke-width="0.5" fill="none" /><path transform="matrix(1 0 0 -1 0 841)" d="M520.9 345.396L520.9 311.09" stroke="#000000" stroke-width="0.5" fill="none" /><path transform="matrix(1 0 0 -1 0 841)" d="M520.9 310.59L520.9 269.422" stroke="#000000" stroke-width="0.5" fill="none" /><path transform="matrix(1 0 0 -1 0 841)" d="M580.95 738.2L580.95 269.422" stroke="#000000" stroke-width="0.5" fill="none" /><path transform="matrix(1 0 0 -1 0 841)" d="M84.35 738.45L581.2 738.45" stroke="#000000" stroke-width="0.5" fill="none" /><path transform="matrix(1 0 0 -1 0 841)" d="M84.85 712.35L580.7 712.35" stroke="#000000" stroke-width="0.5" fill="none" /><path transform="matrix(1 0 0 -1 0 841)" d="M84.85 677.544L580.7 677.544" stroke="#000000" stroke-width="0.5" fill="none" /><path transform="matrix(1 0 0 -1 0 841)" d="M84.85 651.444L580.7 651.444" stroke="#000000" stroke-width="0.5" fill="none" /><path transform="matrix(1 0 0 -1 0 841)" d="M84.85 616.638L580.7 616.638" stroke="#000000" stroke-width="0.5" fill="none" /><path transform="matrix(1 0 0 -1 0 841)" d="M84.85 581.832L580.7 581.832" stroke="#000000" stroke-width="0.5" fill="none" /><path transform="matrix(1 0 0 -1 0 841)" d="M84.85 547.026L580.7 547.026" stroke="#000000" stroke-width="0.5" fill="none" /><path transform="matrix(1 0 0 -1 0 841)" d="M84.85 512.22L580.7 512.22" stroke="#000000" stroke-width="0.5" fill="none" /><path transform="matrix(1 0 0 -1 0 841)" d="M84.85 477.414L580.7 477.414" stroke="#000000" stroke-width="0.5" fill="none" /><path transform="matrix(1 0 0 -1 0 841)" d="M84.85 450.064L580.7 450.064" stroke="#000000" stroke-width="0.5" fill="none" /><path transform="matrix(1 0 0 -1 0 841)" d="M84.85 415.258L580.7 415.258" stroke="#000000" stroke-width="0.5" fill="none" /><path transform="matrix(1 0 0 -1 0 841)" d="M84.85 380.452L580.7 380.452" stroke="#000000" stroke-width="0.5" fill="none" /><path transform="matrix(1 0 0 -1 0 841)" d="M84.85 345.646L580.7 345.646" stroke="#000000" stroke-width="0.5" fill="none" /><path transform="matrix(1 0 0 -1 0 841)" d="M84.85 310.84L580.7 310.84" stroke="#000000" stroke-width="0.5" fill="none" /><path transform="matrix(1 0 0 -1 0 841)" d="M84.35 269.172L581.2 269.172" stroke="#000000" stroke-width="0.5" fill="none" /></g></g></g></svg>