<svg xmlns="http://www.w3.org/2000/svg" xmlns:xlink="http://www.w3.org/1999/xlink" id="body_2" preserveAspectRatio="xMinYMin meet" viewBox="0 0 793 1121"><defs><clipPath id="1"><path clip-rule="evenodd" d="M0 841L0 -0.9000244L0 -0.9000244L595.3 -0.9000244L595.3 -0.9000244L595.3 841L595.3 841L0 841z" /></clipPath><clipPath id="2"><path clip-rule="evenodd" d="M102.25 70.59998L138.25 70.59998L138.25 70.59998L138.25 149.5L138.25 149.5L102.25 149.5z" /></clipPath><clipPath id="3"><path clip-rule="evenodd" d="M136.75 70.59998L193 70.59998L193 70.59998L193 110.8L193 110.8L136.75 110.8z" /></clipPath><clipPath id="4"><path clip-rule="evenodd" d="M191.5 70.59998L391.3 70.59998L391.3 70.59998L391.3 110.8L391.3 110.8L191.5 110.8z" /></clipPath><clipPath id="5"><path clip-rule="evenodd" d="M389.8 70.59998L434.75 70.59998L434.75 70.59998L434.75 110.8L434.75 110.8L389.8 110.8z" /></clipPath><clipPath id="6"><path clip-rule="evenodd" d="M433.25 70.59998L493.05 70.59998L493.05 70.59998L493.05 110.8L493.05 110.8L433.25 110.8z" /></clipPath><clipPath id="7"><path clip-rule="evenodd" d="M102.25 108.8L138.25 108.8L138.25 108.8L138.25 149.5L138.25 149.5L102.25 149.5z" /></clipPath><clipPath id="8"><path clip-rule="evenodd" d="M102.25 70.60004L138.25 70.60004L138.25 70.60004L138.25 149.5001L138.25 149.5001L102.25 149.5001z" /></clipPath><clipPath id="9"><path clip-rule="evenodd" d="M136.75 109.3L193 109.3L193 109.3L193 149.5L193 149.5L136.75 149.5z" /></clipPath><clipPath id="10"><path clip-rule="evenodd" d="M191.5 109.3L391.3 109.3L391.3 109.3L391.3 149.5L391.3 149.5L191.5 149.5z" /></clipPath><clipPath id="11"><path clip-rule="evenodd" d="M389.8 109.3L434.75 109.3L434.75 109.3L434.75 149.5L434.75 149.5L389.8 149.5z" /></clipPath><clipPath id="12"><path clip-rule="evenodd" d="M433.25 109.3L493.05 109.3L493.05 109.3L493.05 149.5L493.05 149.5L433.25 149.5z" /></clipPath><clipPath id="13"><path clip-rule="evenodd" d="M102.25 148L138.25 148L138.25 148L138.25 226.9L138.25 226.9L102.25 226.9z" /></clipPath><clipPath id="14"><path clip-rule="evenodd" d="M136.75 148L193 148L193 148L193 188.2L193 188.2L136.75 188.2z" /></clipPath><clipPath id="15"><path clip-rule="evenodd" d="M191.5 148L391.3 148L391.3 148L391.3 188.2L391.3 188.2L191.5 188.2z" /></clipPath><clipPath id="16"><path clip-rule="evenodd" d="M389.8 148L434.75 148L434.75 148L434.75 188.2L434.75 188.2L389.8 188.2z" /></clipPath><clipPath id="17"><path clip-rule="evenodd" d="M433.25 148L493.05 148L493.05 148L493.05 188.2L493.05 188.2L433.25 188.2z" /></clipPath><clipPath id="18"><path clip-rule="evenodd" d="M102.25 186.2L138.25 186.2L138.25 186.2L138.25 226.9L138.25 226.9L102.25 226.9z" /></clipPath><clipPath id="19"><path clip-rule="evenodd" d="M102.25 148.0001L138.25 148.0001L138.25 148.0001L138.25 226.9001L138.25 226.9001L102.25 226.9001z" /></clipPath><clipPath id="20"><path clip-rule="evenodd" d="M136.75 186.7L193 186.7L193 186.7L193 226.9L193 226.9L136.75 226.9z" /></clipPath><clipPath id="21"><path clip-rule="evenodd" d="M191.5 186.7L391.3 186.7L391.3 186.7L391.3 226.9L391.3 226.9L191.5 226.9z" /></clipPath><clipPath id="22"><path clip-rule="evenodd" d="M389.8 186.7L434.75 186.7L434.75 186.7L434.75 226.9L434.75 226.9L389.8 226.9z" /></clipPath><clipPath id="23"><path clip-rule="evenodd" d="M433.25 186.7L493.05 186.7L493.05 186.7L493.05 226.9L493.05 226.9L433.25 226.9z" /></clipPath><clipPath id="24"><path clip-rule="evenodd" d="M102.25 225.4L138.25 225.4L138.25 225.4L138.25 304.3L138.25 304.3L102.25 304.3z" /></clipPath><clipPath id="25"><path clip-rule="evenodd" d="M136.75 225.4L193 225.4L193 225.4L193 265.6L193 265.6L136.75 265.6z" /></clipPath><clipPath id="26"><path clip-rule="evenodd" d="M191.5 225.4L391.3 225.4L391.3 225.4L391.3 265.6L391.3 265.6L191.5 265.6z" /></clipPath><clipPath id="27"><path clip-rule="evenodd" d="M389.8 225.4L434.75 225.4L434.75 225.4L434.75 265.6L434.75 265.6L389.8 265.6z" /></clipPath><clipPath id="28"><path clip-rule="evenodd" d="M433.25 225.4L493.05 225.4L493.05 225.4L493.05 265.6L493.05 265.6L433.25 265.6z" /></clipPath><clipPath id="29"><path clip-rule="evenodd" d="M102.25 263.6L138.25 263.6L138.25 263.6L138.25 304.3L138.25 304.3L102.25 304.3z" /></clipPath><clipPath id="30"><path clip-rule="evenodd" d="M102.25 225.4L138.25 225.4L138.25 225.4L138.25 304.3L138.25 304.3L102.25 304.3z" /></clipPath><clipPath id="31"><path clip-rule="evenodd" d="M136.75 264.1L193 264.1L193 264.1L193 304.3L193 304.3L136.75 304.3z" /></clipPath><clipPath id="32"><path clip-rule="evenodd" d="M191.5 264.1L391.3 264.1L391.3 264.1L391.3 304.3L391.3 304.3L191.5 304.3z" /></clipPath><clipPath id="33"><path clip-rule="evenodd" d="M389.8 264.1L434.75 264.1L434.75 264.1L434.75 304.3L434.75 304.3L389.8 304.3z" /></clipPath><clipPath id="34"><path clip-rule="evenodd" d="M433.25 264.1L493.05 264.1L493.05 264.1L493.05 304.3L493.05 304.3L433.25 304.3z" /></clipPath><clipPath id="35"><path clip-rule="evenodd" d="M-1499.4 -1265.588L1668.6 -1265.588L1668.6 -1265.588L1668.6 1902.412L1668.6 1902.412L-1499.4 1902.412z" /></clipPath><clipPath id="36"><path clip-rule="evenodd" d="M83.85 317.912L114.3 317.912L114.3 317.912L114.3 351.036L114.3 351.036L83.85 351.036z" /></clipPath><clipPath id="37"><path clip-rule="evenodd" d="M112.8 317.912L150.3 317.912L150.3 317.912L150.3 351.036L150.3 351.036L112.8 351.036z" /></clipPath><clipPath id="38"><path clip-rule="evenodd" d="M148.8 317.912L435.55 317.912L435.55 317.912L435.55 351.036L435.55 351.036L148.8 351.036z" /></clipPath><clipPath id="39"><path clip-rule="evenodd" d="M434.05 317.912L468.45 317.912L468.45 317.912L468.45 351.036L468.45 351.036L434.05 351.036z" /></clipPath><clipPath id="40"><path clip-rule="evenodd" d="M466.95 317.912L511.45 317.912L511.45 317.912L511.45 351.036L511.45 351.036L466.95 351.036z" /></clipPath><clipPath id="41"><path clip-rule="evenodd" d="M83.85 349.536L114.3 349.536L114.3 349.536L114.3 427.336L114.3 427.336L83.85 427.336z" /></clipPath><clipPath id="42"><path clip-rule="evenodd" d="M112.8 349.536L150.3 349.536L150.3 349.536L150.3 387.536L150.3 387.536L112.8 387.536z" /></clipPath><clipPath id="43"><path clip-rule="evenodd" d="M148.8 349.536L435.55 349.536L435.55 349.536L435.55 387.536L435.55 387.536L148.8 387.536z" /></clipPath><clipPath id="44"><path clip-rule="evenodd" d="M434.05 349.536L468.45 349.536L468.45 349.536L468.45 387.536L468.45 387.536L434.05 387.536z" /></clipPath><clipPath id="45"><path clip-rule="evenodd" d="M466.95 349.536L511.45 349.536L511.45 349.536L511.45 387.536L511.45 387.536L466.95 387.536z" /></clipPath><clipPath id="46"><path clip-rule="evenodd" d="M83.85 385.536L114.3 385.536L114.3 385.536L114.3 427.336L114.3 427.336L83.85 427.336z" /></clipPath><clipPath id="47"><path clip-rule="evenodd" d="M83.85 349.536L114.3 349.536L114.3 349.536L114.3 427.336L114.3 427.336L83.85 427.336z" /></clipPath><clipPath id="48"><path clip-rule="evenodd" d="M112.8 386.036L150.3 386.036L150.3 386.036L150.3 427.336L150.3 427.336L112.8 427.336z" /></clipPath><clipPath id="49"><path clip-rule="evenodd" d="M148.8 386.036L435.55 386.036L435.55 386.036L435.55 427.336L435.55 427.336L148.8 427.336z" /></clipPath><clipPath id="50"><path clip-rule="evenodd" d="M434.05 386.036L468.45 386.036L468.45 386.036L468.45 427.336L468.45 427.336L434.05 427.336z" /></clipPath><clipPath id="51"><path clip-rule="evenodd" d="M466.95 386.036L511.45 386.036L511.45 386.036L511.45 427.336L511.45 427.336L466.95 427.336z" /></clipPath><clipPath id="52"><path clip-rule="evenodd" d="M83.85 425.836L114.3 425.836L114.3 425.836L114.3 504.886L114.3 504.886L83.85 504.886z" /></clipPath><clipPath id="53"><path clip-rule="evenodd" d="M112.8 425.836L150.3 425.836L150.3 425.836L150.3 466.186L150.3 466.186L112.8 466.186z" /></clipPath><clipPath id="54"><path clip-rule="evenodd" d="M148.8 425.836L435.55 425.836L435.55 425.836L435.55 466.186L435.55 466.186L148.8 466.186z" /></clipPath><clipPath id="55"><path clip-rule="evenodd" d="M434.05 425.836L468.45 425.836L468.45 425.836L468.45 466.186L468.45 466.186L434.05 466.186z" /></clipPath><clipPath id="56"><path clip-rule="evenodd" d="M466.95 425.836L511.45 425.836L511.45 425.836L511.45 466.186L511.45 466.186L466.95 466.186z" /></clipPath><clipPath id="57"><path clip-rule="evenodd" d="M83.85 464.186L114.3 464.186L114.3 464.186L114.3 504.886L114.3 504.886L83.85 504.886z" /></clipPath><clipPath id="58"><path clip-rule="evenodd" d="M83.85 425.836L114.3 425.836L114.3 425.836L114.3 504.886L114.3 504.886L83.85 504.886z" /></clipPath><clipPath id="59"><path clip-rule="evenodd" d="M112.8 464.686L150.3 464.686L150.3 464.686L150.3 504.886L150.3 504.886L112.8 504.886z" /></clipPath><clipPath id="60"><path clip-rule="evenodd" d="M148.8 464.686L435.55 464.686L435.55 464.686L435.55 504.886L435.55 504.886L148.8 504.886z" /></clipPath><clipPath id="61"><path clip-rule="evenodd" d="M434.05 464.686L468.45 464.686L468.45 464.686L468.45 504.886L468.45 504.886L434.05 504.886z" /></clipPath><clipPath id="62"><path clip-rule="evenodd" d="M466.95 464.686L511.45 464.686L511.45 464.686L511.45 504.886L511.45 504.886L466.95 504.886z" /></clipPath><clipPath id="63"><path clip-rule="evenodd" d="M83.85 503.386L114.3 503.386L114.3 503.386L114.3 583.036L114.3 583.036L83.85 583.036z" /></clipPath><clipPath id="64"><path clip-rule="evenodd" d="M112.8 503.386L150.3 503.386L150.3 503.386L150.3 543.386L150.3 543.386L112.8 543.386z" /></clipPath><clipPath id="65"><path clip-rule="evenodd" d="M148.8 503.386L435.55 503.386L435.55 503.386L435.55 543.386L435.55 543.386L148.8 543.386z" /></clipPath><clipPath id="66"><path clip-rule="evenodd" d="M434.05 503.386L468.45 503.386L468.45 503.386L468.45 543.386L468.45 543.386L434.05 543.386z" /></clipPath><clipPath id="67"><path clip-rule="evenodd" d="M466.95 503.386L511.45 503.386L511.45 503.386L511.45 543.386L511.45 543.386L466.95 543.386z" /></clipPath><clipPath id="68"><path clip-rule="evenodd" d="M83.85 541.386L114.3 541.386L114.3 541.386L114.3 583.036L114.3 583.036L83.85 583.036z" /></clipPath><clipPath id="69"><path clip-rule="evenodd" d="M83.85 503.386L114.3 503.386L114.3 503.386L114.3 583.036L114.3 583.036L83.85 583.036z" /></clipPath><clipPath id="70"><path clip-rule="evenodd" d="M112.8 541.886L150.3 541.886L150.3 541.886L150.3 583.036L150.3 583.036L112.8 583.036z" /></clipPath><clipPath id="71"><path clip-rule="evenodd" d="M148.8 541.886L435.55 541.886L435.55 541.886L435.55 583.036L435.55 583.036L148.8 583.036z" /></clipPath><clipPath id="72"><path clip-rule="evenodd" d="M434.05 541.886L468.45 541.886L468.45 541.886L468.45 583.036L468.45 583.036L434.05 583.036z" /></clipPath><clipPath id="73"><path clip-rule="evenodd" d="M466.95 541.886L511.45 541.886L511.45 541.886L511.45 583.036L511.45 583.036L466.95 583.036z" /></clipPath><clipPath id="74"><path clip-rule="evenodd" d="M83.85 581.536L114.3 581.536L114.3 581.536L114.3 660.436L114.3 660.436L83.85 660.436z" /></clipPath><clipPath id="75"><path clip-rule="evenodd" d="M112.8 581.536L150.3 581.536L150.3 581.536L150.3 621.836L150.3 621.836L112.8 621.836z" /></clipPath><clipPath id="76"><path clip-rule="evenodd" d="M148.8 581.536L435.55 581.536L435.55 581.536L435.55 621.836L435.55 621.836L148.8 621.836z" /></clipPath><clipPath id="77"><path clip-rule="evenodd" d="M434.05 581.536L468.45 581.536L468.45 581.536L468.45 621.836L468.45 621.836L434.05 621.836z" /></clipPath><clipPath id="78"><path clip-rule="evenodd" d="M466.95 581.536L511.45 581.536L511.45 581.536L511.45 621.836L511.45 621.836L466.95 621.836z" /></clipPath><clipPath id="79"><path clip-rule="evenodd" d="M83.85 619.836L114.3 619.836L114.3 619.836L114.3 660.436L114.3 660.436L83.85 660.436z" /></clipPath><clipPath id="80"><path clip-rule="evenodd" d="M83.85 581.536L114.3 581.536L114.3 581.536L114.3 660.436L114.3 660.436L83.85 660.436z" /></clipPath><clipPath id="81"><path clip-rule="evenodd" d="M112.8 620.336L150.3 620.336L150.3 620.336L150.3 660.436L150.3 660.436L112.8 660.436z" /></clipPath><clipPath id="82"><path clip-rule="evenodd" d="M148.8 620.336L435.55 620.336L435.55 620.336L435.55 660.436L435.55 660.436L148.8 660.436z" /></clipPath><clipPath id="83"><path clip-rule="evenodd" d="M434.05 620.336L468.45 620.336L468.45 620.336L468.45 660.436L468.45 660.436L434.05 660.436z" /></clipPath><clipPath id="84"><path clip-rule="evenodd" d="M466.95 620.336L511.45 620.336L511.45 620.336L511.45 660.436L511.45 660.436L466.95 660.436z" /></clipPath><clipPath id="85"><path clip-rule="evenodd" d="M83.85 658.936L114.3 658.936L114.3 658.936L114.3 738.436L114.3 738.436L83.85 738.436z" /></clipPath><clipPath id="86"><path clip-rule="evenodd" d="M112.8 658.936L150.3 658.936L150.3 658.936L150.3 699.536L150.3 699.536L112.8 699.536z" /></clipPath><clipPath id="87"><path clip-rule="evenodd" d="M148.8 658.936L435.55 658.936L435.55 658.936L435.55 699.536L435.55 699.536L148.8 699.536z" /></clipPath><clipPath id="88"><path clip-rule="evenodd" d="M434.05 658.936L468.45 658.936L468.45 658.936L468.45 699.536L468.45 699.536L434.05 699.536z" /></clipPath><clipPath id="89"><path clip-rule="evenodd" d="M466.95 658.936L511.45 658.936L511.45 658.936L511.45 699.536L511.45 699.536L466.95 699.536z" /></clipPath><clipPath id="90"><path clip-rule="evenodd" d="M83.85 697.536L114.3 697.536L114.3 697.536L114.3 738.436L114.3 738.436L83.85 738.436z" /></clipPath><clipPath id="91"><path clip-rule="evenodd" d="M83.85 658.936L114.3 658.936L114.3 658.936L114.3 738.436L114.3 738.436L83.85 738.436z" /></clipPath><clipPath id="92"><path clip-rule="evenodd" d="M112.8 698.036L150.3 698.036L150.3 698.036L150.3 738.436L150.3 738.436L112.8 738.436z" /></clipPath><clipPath id="93"><path clip-rule="evenodd" d="M148.8 698.036L435.55 698.036L435.55 698.036L435.55 738.436L435.55 738.436L148.8 738.436z" /></clipPath><clipPath id="94"><path clip-rule="evenodd" d="M434.05 698.036L468.45 698.036L468.45 698.036L468.45 738.436L468.45 738.436L434.05 738.436z" /></clipPath><clipPath id="95"><path clip-rule="evenodd" d="M466.95 698.036L511.45 698.036L511.45 698.036L511.45 738.436L511.45 738.436L466.95 738.436z" /></clipPath></defs><g transform="matrix(1.333333 0 0 1.333333 0 0)"><g><g clip-path="url(#1)"><g clip-path="url(#2)"></g><g clip-path="url(#3)"></g><g clip-path="url(#4)"></g><g clip-path="url(#5)"></g><g clip-path="url(#6)"></g><g clip-path="url(#7)"></g><g clip-path="url(#8)"></g><g clip-path="url(#9)"></g><g clip-path="url(#10)"></g><g clip-path="url(#11)"></g><g clip-path="url(#12)"></g><g clip-path="url(#13)"></g><g clip-path="url(#14)"></g><g clip-path="url(#15)"></g><g clip-path="url(#16)"></g><g clip-path="url(#17)"></g><g clip-path="url(#18)"></g><g clip-path="url(#19)"></g><g clip-path="url(#20)"></g><g clip-path="url(#21)"></g><g clip-path="url(#22)"></g><g clip-path="url(#23)"></g><g clip-path="url(#24)"></g><g clip-path="url(#25)"></g><g clip-path="url(#26)"></g><g clip-path="url(#27)"></g><g clip-path="url(#28)"></g><g clip-path="url(#29)"></g><g clip-path="url(#30)"></g><g clip-path="url(#31)"></g><g clip-path="url(#32)"></g><g clip-path="url(#33)"></g><g clip-path="url(#34)"></g><path transform="matrix(1 0 0 -1 0 841)" d="M103 769.4L103 537.7" stroke="#000000" stroke-width="0.5" fill="none" /><path transform="matrix(1 0 0 -1 0 841)" d="M137.5 769.4L137.5 692.5" stroke="#000000" stroke-width="0.5" fill="none" /><path transform="matrix(1 0 0 -1 0 841)" d="M137.5 692L137.5 615.1" stroke="#000000" stroke-width="0.5" fill="none" /><path transform="matrix(1 0 0 -1 0 841)" d="M137.5 614.6L137.5 537.7" stroke="#000000" stroke-width="0.5" fill="none" /><path transform="matrix(1 0 0 -1 0 841)" d="M192.25 769.4L192.25 731.2" stroke="#000000" stroke-width="0.5" fill="none" /><path transform="matrix(1 0 0 -1 0 841)" d="M192.25 730.7L192.25 692.5" stroke="#000000" stroke-width="0.5" fill="none" /><path transform="matrix(1 0 0 -1 0 841)" d="M192.25 692L192.25 653.8" stroke="#000000" stroke-width="0.5" fill="none" /><path transform="matrix(1 0 0 -1 0 841)" d="M192.25 653.3L192.25 615.1" stroke="#000000" stroke-width="0.5" fill="none" /><path transform="matrix(1 0 0 -1 0 841)" d="M192.25 614.6L192.25 576.4" stroke="#000000" stroke-width="0.5" fill="none" /><path transform="matrix(1 0 0 -1 0 841)" d="M192.25 575.9L192.25 537.7" stroke="#000000" stroke-width="0.5" fill="none" /><path transform="matrix(1 0 0 -1 0 841)" d="M390.55 769.4L390.55 731.2" stroke="#000000" stroke-width="0.5" fill="none" /><path transform="matrix(1 0 0 -1 0 841)" d="M390.55 730.7L390.55 692.5" stroke="#000000" stroke-width="0.5" fill="none" /><path transform="matrix(1 0 0 -1 0 841)" d="M390.55 692L390.55 653.8" stroke="#000000" stroke-width="0.5" fill="none" /><path transform="matrix(1 0 0 -1 0 841)" d="M390.55 653.3L390.55 615.1" stroke="#000000" stroke-width="0.5" fill="none" /><path transform="matrix(1 0 0 -1 0 841)" d="M390.55 614.6L390.55 576.4" stroke="#000000" stroke-width="0.5" fill="none" /><path transform="matrix(1 0 0 -1 0 841)" d="M390.55 575.9L390.55 537.7" stroke="#000000" stroke-width="0.5" fill="none" /><path transform="matrix(1 0 0 -1 0 841)" d="M434 769.4L434 731.2" stroke="#000000" stroke-width="0.5" fill="none" /><path transform="matrix(1 0 0 -1 0 841)" d="M434 730.7L434 692.5" stroke="#000000" stroke-width="0.5" fill="none" /><path transform="matrix(1 0 0 -1 0 841)" d="M434 692L434 653.8" stroke="#000000" stroke-width="0.5" fill="none" /><path transform="matrix(1 0 0 -1 0 841)" d="M434 653.3L434 615.1" stroke="#000000" stroke-width="0.5" fill="none" /><path transform="matrix(1 0 0 -1 0 841)" d="M434 614.6L434 576.4" stroke="#000000" stroke-width="0.5" fill="none" /><path transform="matrix(1 0 0 -1 0 841)" d="M434 575.9L434 537.7" stroke="#000000" stroke-width="0.5" fill="none" /><path transform="matrix(1 0 0 -1 0 841)" d="M492.3 769.4L492.3 537.7" stroke="#000000" stroke-width="0.5" fill="none" /><path transform="matrix(1 0 0 -1 0 841)" d="M102.75 769.65L492.55 769.65" stroke="#000000" stroke-width="0.5" fill="none" /><path transform="matrix(1 0 0 -1 0 841)" d="M137.75 730.95L492.05 730.95" stroke="#000000" stroke-width="0.5" fill="none" /><path transform="matrix(1 0 0 -1 0 841)" d="M103.25 692.25L492.05 692.25" stroke="#000000" stroke-width="0.5" fill="none" /><path transform="matrix(1 0 0 -1 0 841)" d="M137.75 653.55L492.05 653.55" stroke="#000000" stroke-width="0.5" fill="none" /><path transform="matrix(1 0 0 -1 0 841)" d="M103.25 614.85L492.05 614.85" stroke="#000000" stroke-width="0.5" fill="none" /><path transform="matrix(1 0 0 -1 0 841)" d="M137.75 576.15L492.05 576.15" stroke="#000000" stroke-width="0.5" fill="none" /><path transform="matrix(1 0 0 -1 0 841)" d="M102.75 537.45L492.55 537.45" stroke="#000000" stroke-width="0.5" fill="none" /><g clip-path="url(#35)"><g clip-path="url(#36)"></g><g clip-path="url(#37)"></g><g clip-path="url(#38)"></g><g clip-path="url(#39)"></g><g clip-path="url(#40)"></g><g clip-path="url(#41)"></g><g clip-path="url(#42)"></g><g clip-path="url(#43)"></g><g clip-path="url(#44)"></g><g clip-path="url(#45)"></g><g clip-path="url(#46)"></g><g clip-path="url(#47)"></g><g clip-path="url(#48)"></g><g clip-path="url(#49)"></g><g clip-path="url(#50)"></g><g clip-path="url(#51)"></g><g clip-path="url(#52)"></g><g clip-path="url(#53)"></g><g clip-path="url(#54)"></g><g clip-path="url(#55)"></g><g clip-path="url(#56)"></g><g clip-path="url(#57)"></g><g clip-path="url(#58)"></g><g clip-path="url(#59)"></g><g clip-path="url(#60)"></g><g clip-path="url(#61)"></g><g clip-path="url(#62)"></g><g clip-path="url(#63)"></g><g clip-path="url(#64)"></g><g clip-path="url(#65)"></g><g clip-path="url(#66)"></g><g clip-path="url(#67)"></g><g clip-path="url(#68)"></g><g clip-path="url(#69)"></g><g clip-path="url(#70)"></g><g clip-path="url(#71)"></g><g clip-path="url(#72)"></g><g clip-path="url(#73)"></g><g clip-path="url(#74)"></g><g clip-path="url(#75)"></g><g clip-path="url(#76)"></g><g clip-path="url(#77)"></g><g clip-path="url(#78)"></g><g clip-path="url(#79)"></g><g clip-path="url(#80)"></g><g clip-path="url(#81)"></g><g clip-path="url(#82)"></g><g clip-path="url(#83)"></g><g clip-path="url(#84)"></g><g clip-path="url(#85)"></g><g clip-path="url(#86)"></g><g clip-path="url(#87)"></g><g clip-path="url(#88)"></g><g clip-path="url(#89)"></g><g clip-path="url(#90)"></g><g clip-path="url(#91)"></g><g clip-path="url(#92)"></g><g clip-path="url(#93)"></g><g clip-path="url(#94)"></g><g clip-path="url(#95)"></g><path transform="matrix(1 0 0 -1 0 841)" d="M84.6 522.088L84.6 103.564" stroke="#000000" stroke-width="0.5" fill="none" /><path transform="matrix(1 0 0 -1 0 841)" d="M113.55 522.088L113.55 490.964" stroke="#000000" stroke-width="0.5" fill="none" /><path transform="matrix(1 0 0 -1 0 841)" d="M113.55 490.464L113.55 414.664" stroke="#000000" stroke-width="0.5" fill="none" /><path transform="matrix(1 0 0 -1 0 841)" d="M113.55 414.164L113.55 337.114" stroke="#000000" stroke-width="0.5" fill="none" /><path transform="matrix(1 0 0 -1 0 841)" d="M113.55 336.614L113.55 258.964" stroke="#000000" stroke-width="0.5" fill="none" /><path transform="matrix(1 0 0 -1 0 841)" d="M113.55 258.464L113.55 181.564" stroke="#000000" stroke-width="0.5" fill="none" /><path transform="matrix(1 0 0 -1 0 841)" d="M113.55 181.064L113.55 103.564" stroke="#000000" stroke-width="0.5" fill="none" /><path transform="matrix(1 0 0 -1 0 841)" d="M149.55 522.088L149.55 490.964" stroke="#000000" stroke-width="0.5" fill="none" /><path transform="matrix(1 0 0 -1 0 841)" d="M149.55 490.464L149.55 454.464" stroke="#000000" stroke-width="0.5" fill="none" /><path transform="matrix(1 0 0 -1 0 841)" d="M149.55 453.964L149.55 414.664" stroke="#000000" stroke-width="0.5" fill="none" /><path transform="matrix(1 0 0 -1 0 841)" d="M149.55 414.164L149.55 375.814" stroke="#000000" stroke-width="0.5" fill="none" /><path transform="matrix(1 0 0 -1 0 841)" d="M149.55 375.314L149.55 337.114" stroke="#000000" stroke-width="0.5" fill="none" /><path transform="matrix(1 0 0 -1 0 841)" d="M149.55 336.614L149.55 298.614" stroke="#000000" stroke-width="0.5" fill="none" /><path transform="matrix(1 0 0 -1 0 841)" d="M149.55 298.114L149.55 258.964" stroke="#000000" stroke-width="0.5" fill="none" /><path transform="matrix(1 0 0 -1 0 841)" d="M149.55 258.464L149.55 220.164" stroke="#000000" stroke-width="0.5" fill="none" /><path transform="matrix(1 0 0 -1 0 841)" d="M149.55 219.664L149.55 181.564" stroke="#000000" stroke-width="0.5" fill="none" /><path transform="matrix(1 0 0 -1 0 841)" d="M149.55 181.064L149.55 142.464" stroke="#000000" stroke-width="0.5" fill="none" /><path transform="matrix(1 0 0 -1 0 841)" d="M149.55 141.964L149.55 103.564" stroke="#000000" stroke-width="0.5" fill="none" /><path transform="matrix(1 0 0 -1 0 841)" d="M434.8 522.088L434.8 490.964" stroke="#000000" stroke-width="0.5" fill="none" /><path transform="matrix(1 0 0 -1 0 841)" d="M434.8 490.464L434.8 454.464" stroke="#000000" stroke-width="0.5" fill="none" /><path transform="matrix(1 0 0 -1 0 841)" d="M434.8 453.964L434.8 414.664" stroke="#000000" stroke-width="0.5" fill="none" /><path transform="matrix(1 0 0 -1 0 841)" d="M434.8 414.164L434.8 375.814" stroke="#000000" stroke-width="0.5" fill="none" /><path transform="matrix(1 0 0 -1 0 841)" d="M434.8 375.314L434.8 337.114" stroke="#000000" stroke-width="0.5" fill="none" /><path transform="matrix(1 0 0 -1 0 841)" d="M434.8 336.614L434.8 298.614" stroke="#000000" stroke-width="0.5" fill="none" /><path transform="matrix(1 0 0 -1 0 841)" d="M434.8 298.114L434.8 258.964" stroke="#000000" stroke-width="0.5" fill="none" /><path transform="matrix(1 0 0 -1 0 841)" d="M434.8 258.464L434.8 220.164" stroke="#000000" stroke-width="0.5" fill="none" /><path transform="matrix(1 0 0 -1 0 841)" d="M434.8 219.664L434.8 181.564" stroke="#000000" stroke-width="0.5" fill="none" /><path transform="matrix(1 0 0 -1 0 841)" d="M434.8 181.064L434.8 142.464" stroke="#000000" stroke-width="0.5" fill="none" /><path transform="matrix(1 0 0 -1 0 841)" d="M434.8 141.964L434.8 103.564" stroke="#000000" stroke-width="0.5" fill="none" /><path transform="matrix(1 0 0 -1 0 841)" d="M467.7 522.088L467.7 490.964" stroke="#000000" stroke-width="0.5" fill="none" /><path transform="matrix(1 0 0 -1 0 841)" d="M467.7 490.464L467.7 454.464" stroke="#000000" stroke-width="0.5" fill="none" /><path transform="matrix(1 0 0 -1 0 841)" d="M467.7 453.964L467.7 414.664" stroke="#000000" stroke-width="0.5" fill="none" /><path transform="matrix(1 0 0 -1 0 841)" d="M467.7 414.164L467.7 375.814" stroke="#000000" stroke-width="0.5" fill="none" /><path transform="matrix(1 0 0 -1 0 841)" d="M467.7 375.314L467.7 337.114" stroke="#000000" stroke-width="0.5" fill="none" /><path transform="matrix(1 0 0 -1 0 841)" d="M467.7 336.614L467.7 298.614" stroke="#000000" stroke-width="0.5" fill="none" /><path transform="matrix(1 0 0 -1 0 841)" d="M467.7 298.114L467.7 258.964" stroke="#000000" stroke-width="0.5" fill="none" /><path transform="matrix(1 0 0 -1 0 841)" d="M467.7 258.464L467.7 220.164" stroke="#000000" stroke-width="0.5" fill="none" /><path transform="matrix(1 0 0 -1 0 841)" d="M467.7 219.664L467.7 181.564" stroke="#000000" stroke-width="0.5" fill="none" /><path transform="matrix(1 0 0 -1 0 841)" d="M467.7 181.064L467.7 142.464" stroke="#000000" stroke-width="0.5" fill="none" /><path transform="matrix(1 0 0 -1 0 841)" d="M467.7 141.964L467.7 103.564" stroke="#000000" stroke-width="0.5" fill="none" /><path transform="matrix(1 0 0 -1 0 841)" d="M510.7 522.088L510.7 103.564" stroke="#000000" stroke-width="0.5" fill="none" /><path transform="matrix(1 0 0 -1 0 841)" d="M84.35 522.338L510.95 522.338" stroke="#000000" stroke-width="0.5" fill="none" /><path transform="matrix(1 0 0 -1 0 841)" d="M84.85 490.714L510.45 490.714" stroke="#000000" stroke-width="0.5" fill="none" /><path transform="matrix(1 0 0 -1 0 841)" d="M113.8 454.214L510.45 454.214" stroke="#000000" stroke-width="0.5" fill="none" /><path transform="matrix(1 0 0 -1 0 841)" d="M84.85 414.414L510.45 414.414" stroke="#000000" stroke-width="0.5" fill="none" /><path transform="matrix(1 0 0 -1 0 841)" d="M113.8 375.564L510.45 375.564" stroke="#000000" stroke-width="0.5" fill="none" /><path transform="matrix(1 0 0 -1 0 841)" d="M84.85 336.864L510.45 336.864" stroke="#000000" stroke-width="0.5" fill="none" /><path transform="matrix(1 0 0 -1 0 841)" d="M113.8 298.364L510.45 298.364" stroke="#000000" stroke-width="0.5" fill="none" /><path transform="matrix(1 0 0 -1 0 841)" d="M84.85 258.714L510.45 258.714" stroke="#000000" stroke-width="0.5" fill="none" /><path transform="matrix(1 0 0 -1 0 841)" d="M113.8 219.914L510.45 219.914" stroke="#000000" stroke-width="0.5" fill="none" /><path transform="matrix(1 0 0 -1 0 841)" d="M84.85 181.314L510.45 181.314" stroke="#000000" stroke-width="0.5" fill="none" /><path transform="matrix(1 0 0 -1 0 841)" d="M113.8 142.214L510.45 142.214" stroke="#000000" stroke-width="0.5" fill="none" /><path transform="matrix(1 0 0 -1 0 841)" d="M84.35 103.314L510.95 103.314" stroke="#000000" stroke-width="0.5" fill="none" /></g></g></g></g></svg>