<svg xmlns="http://www.w3.org/2000/svg" xmlns:xlink="http://www.w3.org/1999/xlink" id="body_1" preserveAspectRatio="xMinYMin meet" viewBox="0 0 793 1121"><defs><clipPath id="1"><path clip-rule="evenodd" d="M0 841L0 -0.9000244L0 -0.9000244L595.3 -0.9000244L595.3 -0.9000244L595.3 841L595.3 841L0 841z" /></clipPath><clipPath id="2"><path clip-rule="evenodd" d="M102.25 70.59998L193 70.59998L193 70.59998L193 103.724L193 103.724L102.25 103.724z" /></clipPath><clipPath id="3"><path clip-rule="evenodd" d="M191.5 70.59998L391.3 70.59998L391.3 70.59998L391.3 103.724L391.3 103.724L191.5 103.724z" /></clipPath><clipPath id="4"><path clip-rule="evenodd" d="M389.8 70.59998L434.75 70.59998L434.75 70.59998L434.75 135.348L434.75 135.348L389.8 135.348z" /></clipPath><clipPath id="5"><path clip-rule="evenodd" d="M433.25 70.59998L493.05 70.59998L493.05 70.59998L493.05 135.348L493.05 135.348L433.25 135.348z" /></clipPath><clipPath id="6"><path clip-rule="evenodd" d="M102.25 102.224L138.25 102.224L138.25 102.224L138.25 135.348L138.25 135.348L102.25 135.348z" /></clipPath><clipPath id="7"><path clip-rule="evenodd" d="M136.75 102.224L193 102.224L193 102.224L193 135.348L193 135.348L136.75 135.348z" /></clipPath><clipPath id="8"><path clip-rule="evenodd" d="M191.5 102.224L391.3 102.224L391.3 102.224L391.3 135.348L391.3 135.348L191.5 135.348z" /></clipPath><clipPath id="9"><path clip-rule="evenodd" d="M389.8 101.724L434.75 101.724L434.75 101.724L434.75 135.348L434.75 135.348L389.8 135.348z" /></clipPath><clipPath id="10"><path clip-rule="evenodd" d="M389.8 70.60004L434.75 70.60004L434.75 70.60004L434.75 135.348L434.75 135.348L389.8 135.348z" /></clipPath><clipPath id="11"><path clip-rule="evenodd" d="M433.25 101.724L493.05 101.724L493.05 101.724L493.05 135.348L493.05 135.348L433.25 135.348z" /></clipPath><clipPath id="12"><path clip-rule="evenodd" d="M433.25 70.60004L493.05 70.60004L493.05 70.60004L493.05 135.348L493.05 135.348L433.25 135.348z" /></clipPath><clipPath id="13"><path clip-rule="evenodd" d="M102.25 133.848L138.25 133.848L138.25 133.848L138.25 211.448L138.25 211.448L102.25 211.448z" /></clipPath><clipPath id="14"><path clip-rule="evenodd" d="M136.75 133.848L193 133.848L193 133.848L193 171.748L193 171.748L136.75 171.748z" /></clipPath><clipPath id="15"><path clip-rule="evenodd" d="M191.5 133.848L391.3 133.848L391.3 133.848L391.3 171.748L391.3 171.748L191.5 171.748z" /></clipPath><clipPath id="16"><path clip-rule="evenodd" d="M389.8 133.848L434.75 133.848L434.75 133.848L434.75 171.748L434.75 171.748L389.8 171.748z" /></clipPath><clipPath id="17"><path clip-rule="evenodd" d="M433.25 133.848L493.05 133.848L493.05 133.848L493.05 171.748L493.05 171.748L433.25 171.748z" /></clipPath><clipPath id="18"><path clip-rule="evenodd" d="M102.25 169.748L138.25 169.748L138.25 169.748L138.25 211.448L138.25 211.448L102.25 211.448z" /></clipPath><clipPath id="19"><path clip-rule="evenodd" d="M102.25 133.848L138.25 133.848L138.25 133.848L138.25 211.448L138.25 211.448L102.25 211.448z" /></clipPath><clipPath id="20"><path clip-rule="evenodd" d="M136.75 170.248L193 170.248L193 170.248L193 211.448L193 211.448L136.75 211.448z" /></clipPath><clipPath id="21"><path clip-rule="evenodd" d="M191.5 170.248L391.3 170.248L391.3 170.248L391.3 211.448L391.3 211.448L191.5 211.448z" /></clipPath><clipPath id="22"><path clip-rule="evenodd" d="M389.8 170.248L434.75 170.248L434.75 170.248L434.75 211.448L434.75 211.448L389.8 211.448z" /></clipPath><clipPath id="23"><path clip-rule="evenodd" d="M433.25 170.248L493.05 170.248L493.05 170.248L493.05 211.448L493.05 211.448L433.25 211.448z" /></clipPath><clipPath id="24"><path clip-rule="evenodd" d="M102.25 209.948L138.25 209.948L138.25 209.948L138.25 288.798L138.25 288.798L102.25 288.798z" /></clipPath><clipPath id="25"><path clip-rule="evenodd" d="M136.75 209.948L193 209.948L193 209.948L193 250.248L193 250.248L136.75 250.248z" /></clipPath><clipPath id="26"><path clip-rule="evenodd" d="M191.5 209.948L391.3 209.948L391.3 209.948L391.3 250.248L391.3 250.248L191.5 250.248z" /></clipPath><clipPath id="27"><path clip-rule="evenodd" d="M389.8 209.948L434.75 209.948L434.75 209.948L434.75 250.248L434.75 250.248L389.8 250.248z" /></clipPath><clipPath id="28"><path clip-rule="evenodd" d="M433.25 209.948L493.05 209.948L493.05 209.948L493.05 250.248L493.05 250.248L433.25 250.248z" /></clipPath><clipPath id="29"><path clip-rule="evenodd" d="M102.25 248.248L138.25 248.248L138.25 248.248L138.25 288.798L138.25 288.798L102.25 288.798z" /></clipPath><clipPath id="30"><path clip-rule="evenodd" d="M102.25 209.948L138.25 209.948L138.25 209.948L138.25 288.798L138.25 288.798L102.25 288.798z" /></clipPath><clipPath id="31"><path clip-rule="evenodd" d="M136.75 248.748L193 248.748L193 248.748L193 288.798L193 288.798L136.75 288.798z" /></clipPath><clipPath id="32"><path clip-rule="evenodd" d="M191.5 248.748L391.3 248.748L391.3 248.748L391.3 288.798L391.3 288.798L191.5 288.798z" /></clipPath><clipPath id="33"><path clip-rule="evenodd" d="M389.8 248.748L434.75 248.748L434.75 248.748L434.75 288.798L434.75 288.798L389.8 288.798z" /></clipPath><clipPath id="34"><path clip-rule="evenodd" d="M433.25 248.748L493.05 248.748L493.05 248.748L493.05 288.798L493.05 288.798L433.25 288.798z" /></clipPath><clipPath id="35"><path clip-rule="evenodd" d="M102.25 287.298L138.25 287.298L138.25 287.298L138.25 367.498L138.25 367.498L102.25 367.498z" /></clipPath><clipPath id="36"><path clip-rule="evenodd" d="M136.75 287.298L193 287.298L193 287.298L193 327.8979L193 327.8979L136.75 327.8979z" /></clipPath><clipPath id="37"><path clip-rule="evenodd" d="M191.5 287.298L391.3 287.298L391.3 287.298L391.3 327.8979L391.3 327.8979L191.5 327.8979z" /></clipPath><clipPath id="38"><path clip-rule="evenodd" d="M389.8 287.298L434.75 287.298L434.75 287.298L434.75 327.8979L434.75 327.8979L389.8 327.8979z" /></clipPath><clipPath id="39"><path clip-rule="evenodd" d="M433.25 287.298L493.05 287.298L493.05 287.298L493.05 327.8979L493.05 327.8979L433.25 327.8979z" /></clipPath><clipPath id="40"><path clip-rule="evenodd" d="M102.25 325.898L138.25 325.898L138.25 325.898L138.25 367.498L138.25 367.498L102.25 367.498z" /></clipPath><clipPath id="41"><path clip-rule="evenodd" d="M102.25 287.298L138.25 287.298L138.25 287.298L138.25 367.498L138.25 367.498L102.25 367.498z" /></clipPath><clipPath id="42"><path clip-rule="evenodd" d="M136.75 326.398L193 326.398L193 326.398L193 367.498L193 367.498L136.75 367.498z" /></clipPath><clipPath id="43"><path clip-rule="evenodd" d="M191.5 326.398L391.3 326.398L391.3 326.398L391.3 367.498L391.3 367.498L191.5 367.498z" /></clipPath><clipPath id="44"><path clip-rule="evenodd" d="M389.8 326.398L434.75 326.398L434.75 326.398L434.75 367.498L434.75 367.498L389.8 367.498z" /></clipPath><clipPath id="45"><path clip-rule="evenodd" d="M433.25 326.398L493.05 326.398L493.05 326.398L493.05 367.498L493.05 367.498L433.25 367.498z" /></clipPath><clipPath id="46"><path clip-rule="evenodd" d="M102.25 365.998L138.25 365.998L138.25 365.998L138.25 437.772L138.25 437.772L102.25 437.772z" /></clipPath><clipPath id="47"><path clip-rule="evenodd" d="M136.75 365.998L193 365.998L193 365.998L193 406.148L193 406.148L136.75 406.148z" /></clipPath><clipPath id="48"><path clip-rule="evenodd" d="M191.5 365.998L391.3 365.998L391.3 365.998L391.3 406.148L391.3 406.148L191.5 406.148z" /></clipPath><clipPath id="49"><path clip-rule="evenodd" d="M389.8 365.998L434.75 365.998L434.75 365.998L434.75 406.148L434.75 406.148L389.8 406.148z" /></clipPath><clipPath id="50"><path clip-rule="evenodd" d="M433.25 365.998L493.05 365.998L493.05 365.998L493.05 406.148L493.05 406.148L433.25 406.148z" /></clipPath><clipPath id="51"><path clip-rule="evenodd" d="M102.25 404.148L138.25 404.148L138.25 404.148L138.25 437.772L138.25 437.772L102.25 437.772z" /></clipPath><clipPath id="52"><path clip-rule="evenodd" d="M102.25 365.998L138.25 365.998L138.25 365.998L138.25 437.772L138.25 437.772L102.25 437.772z" /></clipPath><clipPath id="53"><path clip-rule="evenodd" d="M136.75 404.648L193 404.648L193 404.648L193 437.772L193 437.772L136.75 437.772z" /></clipPath><clipPath id="54"><path clip-rule="evenodd" d="M191.5 404.648L391.3 404.648L391.3 404.648L391.3 437.772L391.3 437.772L191.5 437.772z" /></clipPath><clipPath id="55"><path clip-rule="evenodd" d="M389.8 404.648L434.75 404.648L434.75 404.648L434.75 437.772L434.75 437.772L389.8 437.772z" /></clipPath><clipPath id="56"><path clip-rule="evenodd" d="M433.25 404.648L493.05 404.648L493.05 404.648L493.05 437.772L493.05 437.772L433.25 437.772z" /></clipPath><clipPath id="57"><path clip-rule="evenodd" d="M102.25 436.272L138.25 436.272L138.25 436.272L138.25 515.572L138.25 515.572L102.25 515.572z" /></clipPath><clipPath id="58"><path clip-rule="evenodd" d="M136.75 436.272L193 436.272L193 436.272L193 476.672L193 476.672L136.75 476.672z" /></clipPath><clipPath id="59"><path clip-rule="evenodd" d="M191.5 436.272L391.3 436.272L391.3 436.272L391.3 476.672L391.3 476.672L191.5 476.672z" /></clipPath><clipPath id="60"><path clip-rule="evenodd" d="M389.8 436.272L434.75 436.272L434.75 436.272L434.75 476.672L434.75 476.672L389.8 476.672z" /></clipPath><clipPath id="61"><path clip-rule="evenodd" d="M433.25 436.272L493.05 436.272L493.05 436.272L493.05 476.672L493.05 476.672L433.25 476.672z" /></clipPath><clipPath id="62"><path clip-rule="evenodd" d="M102.25 474.672L138.25 474.672L138.25 474.672L138.25 515.572L138.25 515.572L102.25 515.572z" /></clipPath><clipPath id="63"><path clip-rule="evenodd" d="M102.25 436.272L138.25 436.272L138.25 436.272L138.25 515.572L138.25 515.572L102.25 515.572z" /></clipPath><clipPath id="64"><path clip-rule="evenodd" d="M136.75 475.172L193 475.172L193 475.172L193 515.572L193 515.572L136.75 515.572z" /></clipPath><clipPath id="65"><path clip-rule="evenodd" d="M191.5 475.172L391.3 475.172L391.3 475.172L391.3 515.572L391.3 515.572L191.5 515.572z" /></clipPath><clipPath id="66"><path clip-rule="evenodd" d="M389.8 475.172L434.75 475.172L434.75 475.172L434.75 515.572L434.75 515.572L389.8 515.572z" /></clipPath><clipPath id="67"><path clip-rule="evenodd" d="M433.25 475.172L493.05 475.172L493.05 475.172L493.05 515.572L493.05 515.572L433.25 515.572z" /></clipPath><clipPath id="68"><path clip-rule="evenodd" d="M102.25 514.072L138.25 514.072L138.25 514.072L138.25 593.3719L138.25 593.3719L102.25 593.3719z" /></clipPath><clipPath id="69"><path clip-rule="evenodd" d="M136.75 514.072L193 514.072L193 514.072L193 554.4719L193 554.4719L136.75 554.4719z" /></clipPath><clipPath id="70"><path clip-rule="evenodd" d="M191.5 514.072L391.3 514.072L391.3 514.072L391.3 554.4719L391.3 554.4719L191.5 554.4719z" /></clipPath><clipPath id="71"><path clip-rule="evenodd" d="M389.8 514.072L434.75 514.072L434.75 514.072L434.75 554.4719L434.75 554.4719L389.8 554.4719z" /></clipPath><clipPath id="72"><path clip-rule="evenodd" d="M433.25 514.072L493.05 514.072L493.05 514.072L493.05 554.4719L493.05 554.4719L433.25 554.4719z" /></clipPath><clipPath id="73"><path clip-rule="evenodd" d="M102.25 552.472L138.25 552.472L138.25 552.472L138.25 593.3719L138.25 593.3719L102.25 593.3719z" /></clipPath><clipPath id="74"><path clip-rule="evenodd" d="M102.25 514.072L138.25 514.072L138.25 514.072L138.25 593.372L138.25 593.372L102.25 593.372z" /></clipPath><clipPath id="75"><path clip-rule="evenodd" d="M136.75 552.972L193 552.972L193 552.972L193 593.3719L193 593.3719L136.75 593.3719z" /></clipPath><clipPath id="76"><path clip-rule="evenodd" d="M191.5 552.972L391.3 552.972L391.3 552.972L391.3 593.3719L391.3 593.3719L191.5 593.3719z" /></clipPath><clipPath id="77"><path clip-rule="evenodd" d="M389.8 552.972L434.75 552.972L434.75 552.972L434.75 593.3719L434.75 593.3719L389.8 593.3719z" /></clipPath><clipPath id="78"><path clip-rule="evenodd" d="M433.25 552.972L493.05 552.972L493.05 552.972L493.05 593.3719L493.05 593.3719L433.25 593.3719z" /></clipPath><clipPath id="79"><path clip-rule="evenodd" d="M102.25 591.8719L138.25 591.8719L138.25 591.8719L138.25 671.1719L138.25 671.1719L102.25 671.1719z" /></clipPath><clipPath id="80"><path clip-rule="evenodd" d="M136.75 591.8719L193 591.8719L193 591.8719L193 632.272L193 632.272L136.75 632.272z" /></clipPath><clipPath id="81"><path clip-rule="evenodd" d="M191.5 591.8719L391.3 591.8719L391.3 591.8719L391.3 632.272L391.3 632.272L191.5 632.272z" /></clipPath><clipPath id="82"><path clip-rule="evenodd" d="M389.8 591.8719L434.75 591.8719L434.75 591.8719L434.75 632.272L434.75 632.272L389.8 632.272z" /></clipPath><clipPath id="83"><path clip-rule="evenodd" d="M433.25 591.8719L493.05 591.8719L493.05 591.8719L493.05 632.272L493.05 632.272L433.25 632.272z" /></clipPath><clipPath id="84"><path clip-rule="evenodd" d="M102.25 630.272L138.25 630.272L138.25 630.272L138.25 671.172L138.25 671.172L102.25 671.172z" /></clipPath><clipPath id="85"><path clip-rule="evenodd" d="M102.25 591.8719L138.25 591.8719L138.25 591.8719L138.25 671.172L138.25 671.172L102.25 671.172z" /></clipPath><clipPath id="86"><path clip-rule="evenodd" d="M136.75 630.772L193 630.772L193 630.772L193 671.172L193 671.172L136.75 671.172z" /></clipPath><clipPath id="87"><path clip-rule="evenodd" d="M191.5 630.772L391.3 630.772L391.3 630.772L391.3 671.172L391.3 671.172L191.5 671.172z" /></clipPath><clipPath id="88"><path clip-rule="evenodd" d="M389.8 630.772L434.75 630.772L434.75 630.772L434.75 671.172L434.75 671.172L389.8 671.172z" /></clipPath><clipPath id="89"><path clip-rule="evenodd" d="M433.25 630.772L493.05 630.772L493.05 630.772L493.05 671.172L493.05 671.172L433.25 671.172z" /></clipPath><clipPath id="90"><path clip-rule="evenodd" d="M102.25 669.672L138.25 669.672L138.25 669.672L138.25 748.572L138.25 748.572L102.25 748.572z" /></clipPath><clipPath id="91"><path clip-rule="evenodd" d="M136.75 669.672L193 669.672L193 669.672L193 709.872L193 709.872L136.75 709.872z" /></clipPath><clipPath id="92"><path clip-rule="evenodd" d="M191.5 669.672L391.3 669.672L391.3 669.672L391.3 709.872L391.3 709.872L191.5 709.872z" /></clipPath><clipPath id="93"><path clip-rule="evenodd" d="M389.8 669.672L434.75 669.672L434.75 669.672L434.75 709.872L434.75 709.872L389.8 709.872z" /></clipPath><clipPath id="94"><path clip-rule="evenodd" d="M433.25 669.672L493.05 669.672L493.05 669.672L493.05 709.872L493.05 709.872L433.25 709.872z" /></clipPath><clipPath id="95"><path clip-rule="evenodd" d="M102.25 707.8719L138.25 707.8719L138.25 707.8719L138.25 748.572L138.25 748.572L102.25 748.572z" /></clipPath><clipPath id="96"><path clip-rule="evenodd" d="M102.25 669.6719L138.25 669.6719L138.25 669.6719L138.25 748.572L138.25 748.572L102.25 748.572z" /></clipPath><clipPath id="97"><path clip-rule="evenodd" d="M136.75 708.3719L193 708.3719L193 708.3719L193 748.572L193 748.572L136.75 748.572z" /></clipPath><clipPath id="98"><path clip-rule="evenodd" d="M191.5 708.3719L391.3 708.3719L391.3 708.3719L391.3 748.572L391.3 748.572L191.5 748.572z" /></clipPath><clipPath id="99"><path clip-rule="evenodd" d="M389.8 708.3719L434.75 708.3719L434.75 708.3719L434.75 748.572L434.75 748.572L389.8 748.572z" /></clipPath><clipPath id="100"><path clip-rule="evenodd" d="M433.25 708.3719L493.05 708.3719L493.05 708.3719L493.05 748.572L493.05 748.572L433.25 748.572z" /></clipPath></defs><g transform="matrix(1.333333 0 0 1.333333 0 0)"><g><g clip-path="url(#1)"><g clip-path="url(#2)"></g><g clip-path="url(#3)"></g><g clip-path="url(#4)"></g><g clip-path="url(#5)"></g><g clip-path="url(#6)"></g><g clip-path="url(#7)"></g><g clip-path="url(#8)"></g><g clip-path="url(#9)"></g><g clip-path="url(#10)"></g><g clip-path="url(#11)"></g><g clip-path="url(#12)"></g><g clip-path="url(#13)"></g><g clip-path="url(#14)"></g><g clip-path="url(#15)"></g><g clip-path="url(#16)"></g><g clip-path="url(#17)"></g><g clip-path="url(#18)"></g><g clip-path="url(#19)"></g><g clip-path="url(#20)"></g><g clip-path="url(#21)"></g><g clip-path="url(#22)"></g><g clip-path="url(#23)"></g><g clip-path="url(#24)"></g><g clip-path="url(#25)"></g><g clip-path="url(#26)"></g><g clip-path="url(#27)"></g><g clip-path="url(#28)"></g><g clip-path="url(#29)"></g><g clip-path="url(#30)"></g><g clip-path="url(#31)"></g><g clip-path="url(#32)"></g><g clip-path="url(#33)"></g><g clip-path="url(#34)"></g><g clip-path="url(#35)"></g><g clip-path="url(#36)"></g><g clip-path="url(#37)"></g><g clip-path="url(#38)"></g><g clip-path="url(#39)"></g><g clip-path="url(#40)"></g><g clip-path="url(#41)"></g><g clip-path="url(#42)"></g><g clip-path="url(#43)"></g><g clip-path="url(#44)"></g><g clip-path="url(#45)"></g><g clip-path="url(#46)"></g><g clip-path="url(#47)"></g><g clip-path="url(#48)"></g><g clip-path="url(#49)"></g><g clip-path="url(#50)"></g><g clip-path="url(#51)"></g><g clip-path="url(#52)"></g><g clip-path="url(#53)"></g><g clip-path="url(#54)"></g><g clip-path="url(#55)"></g><g clip-path="url(#56)"></g><g clip-path="url(#57)"></g><g clip-path="url(#58)"></g><g clip-path="url(#59)"></g><g clip-path="url(#60)"></g><g clip-path="url(#61)"></g><g clip-path="url(#62)"></g><g clip-path="url(#63)"></g><g clip-path="url(#64)"></g><g clip-path="url(#65)"></g><g clip-path="url(#66)"></g><g clip-path="url(#67)"></g><g clip-path="url(#68)"></g><g clip-path="url(#69)"></g><g clip-path="url(#70)"></g><g clip-path="url(#71)"></g><g clip-path="url(#72)"></g><g clip-path="url(#73)"></g><g clip-path="url(#74)"></g><g clip-path="url(#75)"></g><g clip-path="url(#76)"></g><g clip-path="url(#77)"></g><g clip-path="url(#78)"></g><g clip-path="url(#79)"></g><g clip-path="url(#80)"></g><g clip-path="url(#81)"></g><g clip-path="url(#82)"></g><g clip-path="url(#83)"></g><g clip-path="url(#84)"></g><g clip-path="url(#85)"></g><g clip-path="url(#86)"></g><g clip-path="url(#87)"></g><g clip-path="url(#88)"></g><g clip-path="url(#89)"></g><g clip-path="url(#90)"></g><g clip-path="url(#91)"></g><g clip-path="url(#92)"></g><g clip-path="url(#93)"></g><g clip-path="url(#94)"></g><g clip-path="url(#95)"></g><g clip-path="url(#96)"></g><g clip-path="url(#97)"></g><g clip-path="url(#98)"></g><g clip-path="url(#99)"></g><g clip-path="url(#100)"></g><path transform="matrix(1 0 0 -1 0 841)" d="M103 769.4L103 93.42798" stroke="#000000" stroke-width="0.5" fill="none" /><path transform="matrix(1 0 0 -1 0 841)" d="M192.25 769.4L192.25 738.276" stroke="#000000" stroke-width="0.5" fill="none" /><path transform="matrix(1 0 0 -1 0 841)" d="M192.25 737.776L192.25 706.652" stroke="#000000" stroke-width="0.5" fill="none" /><path transform="matrix(1 0 0 -1 0 841)" d="M192.25 706.152L192.25 670.252" stroke="#000000" stroke-width="0.5" fill="none" /><path transform="matrix(1 0 0 -1 0 841)" d="M192.25 669.752L192.25 630.552" stroke="#000000" stroke-width="0.5" fill="none" /><path transform="matrix(1 0 0 -1 0 841)" d="M192.25 630.052L192.25 591.752" stroke="#000000" stroke-width="0.5" fill="none" /><path transform="matrix(1 0 0 -1 0 841)" d="M192.25 591.252L192.25 553.202" stroke="#000000" stroke-width="0.5" fill="none" /><path transform="matrix(1 0 0 -1 0 841)" d="M192.25 552.702L192.25 514.1021" stroke="#000000" stroke-width="0.5" fill="none" /><path transform="matrix(1 0 0 -1 0 841)" d="M192.25 513.6021L192.25 474.502" stroke="#000000" stroke-width="0.5" fill="none" /><path transform="matrix(1 0 0 -1 0 841)" d="M192.25 474.002L192.25 435.852" stroke="#000000" stroke-width="0.5" fill="none" /><path transform="matrix(1 0 0 -1 0 841)" d="M192.25 435.352L192.25 404.228" stroke="#000000" stroke-width="0.5" fill="none" /><path transform="matrix(1 0 0 -1 0 841)" d="M192.25 403.728L192.25 365.328" stroke="#000000" stroke-width="0.5" fill="none" /><path transform="matrix(1 0 0 -1 0 841)" d="M192.25 364.828L192.25 326.428" stroke="#000000" stroke-width="0.5" fill="none" /><path transform="matrix(1 0 0 -1 0 841)" d="M192.25 325.928L192.25 287.528" stroke="#000000" stroke-width="0.5" fill="none" /><path transform="matrix(1 0 0 -1 0 841)" d="M192.25 287.028L192.25 248.6281" stroke="#000000" stroke-width="0.5" fill="none" /><path transform="matrix(1 0 0 -1 0 841)" d="M192.25 248.1281L192.25 209.728" stroke="#000000" stroke-width="0.5" fill="none" /><path transform="matrix(1 0 0 -1 0 841)" d="M192.25 209.228L192.25 170.828" stroke="#000000" stroke-width="0.5" fill="none" /><path transform="matrix(1 0 0 -1 0 841)" d="M192.25 170.328L192.25 132.128" stroke="#000000" stroke-width="0.5" fill="none" /><path transform="matrix(1 0 0 -1 0 841)" d="M192.25 131.628L192.25 93.42798" stroke="#000000" stroke-width="0.5" fill="none" /><path transform="matrix(1 0 0 -1 0 841)" d="M390.55 769.4L390.55 706.652" stroke="#000000" stroke-width="0.5" fill="none" /><path transform="matrix(1 0 0 -1 0 841)" d="M390.55 706.152L390.55 670.252" stroke="#000000" stroke-width="0.5" fill="none" /><path transform="matrix(1 0 0 -1 0 841)" d="M390.55 669.752L390.55 630.552" stroke="#000000" stroke-width="0.5" fill="none" /><path transform="matrix(1 0 0 -1 0 841)" d="M390.55 630.052L390.55 591.752" stroke="#000000" stroke-width="0.5" fill="none" /><path transform="matrix(1 0 0 -1 0 841)" d="M390.55 591.252L390.55 553.202" stroke="#000000" stroke-width="0.5" fill="none" /><path transform="matrix(1 0 0 -1 0 841)" d="M390.55 552.702L390.55 514.1021" stroke="#000000" stroke-width="0.5" fill="none" /><path transform="matrix(1 0 0 -1 0 841)" d="M390.55 513.6021L390.55 474.502" stroke="#000000" stroke-width="0.5" fill="none" /><path transform="matrix(1 0 0 -1 0 841)" d="M390.55 474.002L390.55 435.852" stroke="#000000" stroke-width="0.5" fill="none" /><path transform="matrix(1 0 0 -1 0 841)" d="M390.55 435.352L390.55 404.228" stroke="#000000" stroke-width="0.5" fill="none" /><path transform="matrix(1 0 0 -1 0 841)" d="M390.55 403.728L390.55 365.328" stroke="#000000" stroke-width="0.5" fill="none" /><path transform="matrix(1 0 0 -1 0 841)" d="M390.55 364.828L390.55 326.428" stroke="#000000" stroke-width="0.5" fill="none" /><path transform="matrix(1 0 0 -1 0 841)" d="M390.55 325.928L390.55 287.528" stroke="#000000" stroke-width="0.5" fill="none" /><path transform="matrix(1 0 0 -1 0 841)" d="M390.55 287.028L390.55 248.6281" stroke="#000000" stroke-width="0.5" fill="none" /><path transform="matrix(1 0 0 -1 0 841)" d="M390.55 248.1281L390.55 209.728" stroke="#000000" stroke-width="0.5" fill="none" /><path transform="matrix(1 0 0 -1 0 841)" d="M390.55 209.228L390.55 170.828" stroke="#000000" stroke-width="0.5" fill="none" /><path transform="matrix(1 0 0 -1 0 841)" d="M390.55 170.328L390.55 132.128" stroke="#000000" stroke-width="0.5" fill="none" /><path transform="matrix(1 0 0 -1 0 841)" d="M390.55 131.628L390.55 93.42798" stroke="#000000" stroke-width="0.5" fill="none" /><path transform="matrix(1 0 0 -1 0 841)" d="M434 769.4L434 706.652" stroke="#000000" stroke-width="0.5" fill="none" /><path transform="matrix(1 0 0 -1 0 841)" d="M434 706.152L434 670.252" stroke="#000000" stroke-width="0.5" fill="none" /><path transform="matrix(1 0 0 -1 0 841)" d="M434 669.752L434 630.552" stroke="#000000" stroke-width="0.5" fill="none" /><path transform="matrix(1 0 0 -1 0 841)" d="M434 630.052L434 591.752" stroke="#000000" stroke-width="0.5" fill="none" /><path transform="matrix(1 0 0 -1 0 841)" d="M434 591.252L434 553.202" stroke="#000000" stroke-width="0.5" fill="none" /><path transform="matrix(1 0 0 -1 0 841)" d="M434 552.702L434 514.1021" stroke="#000000" stroke-width="0.5" fill="none" /><path transform="matrix(1 0 0 -1 0 841)" d="M434 513.6021L434 474.502" stroke="#000000" stroke-width="0.5" fill="none" /><path transform="matrix(1 0 0 -1 0 841)" d="M434 474.002L434 435.852" stroke="#000000" stroke-width="0.5" fill="none" /><path transform="matrix(1 0 0 -1 0 841)" d="M434 435.352L434 404.228" stroke="#000000" stroke-width="0.5" fill="none" /><path transform="matrix(1 0 0 -1 0 841)" d="M434 403.728L434 365.328" stroke="#000000" stroke-width="0.5" fill="none" /><path transform="matrix(1 0 0 -1 0 841)" d="M434 364.828L434 326.428" stroke="#000000" stroke-width="0.5" fill="none" /><path transform="matrix(1 0 0 -1 0 841)" d="M434 325.928L434 287.528" stroke="#000000" stroke-width="0.5" fill="none" /><path transform="matrix(1 0 0 -1 0 841)" d="M434 287.028L434 248.6281" stroke="#000000" stroke-width="0.5" fill="none" /><path transform="matrix(1 0 0 -1 0 841)" d="M434 248.1281L434 209.728" stroke="#000000" stroke-width="0.5" fill="none" /><path transform="matrix(1 0 0 -1 0 841)" d="M434 209.228L434 170.828" stroke="#000000" stroke-width="0.5" fill="none" /><path transform="matrix(1 0 0 -1 0 841)" d="M434 170.328L434 132.128" stroke="#000000" stroke-width="0.5" fill="none" /><path transform="matrix(1 0 0 -1 0 841)" d="M434 131.628L434 93.42798" stroke="#000000" stroke-width="0.5" fill="none" /><path transform="matrix(1 0 0 -1 0 841)" d="M492.3 769.4L492.3 93.42798" stroke="#000000" stroke-width="0.5" fill="none" /><path transform="matrix(1 0 0 -1 0 841)" d="M137.5 737.776L137.5 706.652" stroke="#000000" stroke-width="0.5" fill="none" /><path transform="matrix(1 0 0 -1 0 841)" d="M137.5 706.152L137.5 630.552" stroke="#000000" stroke-width="0.5" fill="none" /><path transform="matrix(1 0 0 -1 0 841)" d="M137.5 630.052L137.5 553.202" stroke="#000000" stroke-width="0.5" fill="none" /><path transform="matrix(1 0 0 -1 0 841)" d="M137.5 552.702L137.5 474.502" stroke="#000000" stroke-width="0.5" fill="none" /><path transform="matrix(1 0 0 -1 0 841)" d="M137.5 474.002L137.5 404.228" stroke="#000000" stroke-width="0.5" fill="none" /><path transform="matrix(1 0 0 -1 0 841)" d="M137.5 403.728L137.5 326.428" stroke="#000000" stroke-width="0.5" fill="none" /><path transform="matrix(1 0 0 -1 0 841)" d="M137.5 325.928L137.5 248.6281" stroke="#000000" stroke-width="0.5" fill="none" /><path transform="matrix(1 0 0 -1 0 841)" d="M137.5 248.1281L137.5 170.828" stroke="#000000" stroke-width="0.5" fill="none" /><path transform="matrix(1 0 0 -1 0 841)" d="M137.5 170.328L137.5 93.42798" stroke="#000000" stroke-width="0.5" fill="none" /><path transform="matrix(1 0 0 -1 0 841)" d="M102.75 769.65L492.55 769.65" stroke="#000000" stroke-width="0.5" fill="none" /><path transform="matrix(1 0 0 -1 0 841)" d="M103.25 738.026L390.3 738.026" stroke="#000000" stroke-width="0.5" fill="none" /><path transform="matrix(1 0 0 -1 0 841)" d="M103.25 706.402L492.05 706.402" stroke="#000000" stroke-width="0.5" fill="none" /><path transform="matrix(1 0 0 -1 0 841)" d="M137.75 670.002L492.05 670.002" stroke="#000000" stroke-width="0.5" fill="none" /><path transform="matrix(1 0 0 -1 0 841)" d="M103.25 630.302L492.05 630.302" stroke="#000000" stroke-width="0.5" fill="none" /><path transform="matrix(1 0 0 -1 0 841)" d="M137.75 591.502L492.05 591.502" stroke="#000000" stroke-width="0.5" fill="none" /><path transform="matrix(1 0 0 -1 0 841)" d="M103.25 552.952L492.05 552.952" stroke="#000000" stroke-width="0.5" fill="none" /><path transform="matrix(1 0 0 -1 0 841)" d="M137.75 513.8521L492.05 513.8521" stroke="#000000" stroke-width="0.5" fill="none" /><path transform="matrix(1 0 0 -1 0 841)" d="M103.25 474.252L492.05 474.252" stroke="#000000" stroke-width="0.5" fill="none" /><path transform="matrix(1 0 0 -1 0 841)" d="M137.75 435.602L492.05 435.602" stroke="#000000" stroke-width="0.5" fill="none" /><path transform="matrix(1 0 0 -1 0 841)" d="M103.25 403.978L492.05 403.978" stroke="#000000" stroke-width="0.5" fill="none" /><path transform="matrix(1 0 0 -1 0 841)" d="M137.75 365.078L492.05 365.078" stroke="#000000" stroke-width="0.5" fill="none" /><path transform="matrix(1 0 0 -1 0 841)" d="M103.25 326.178L492.05 326.178" stroke="#000000" stroke-width="0.5" fill="none" /><path transform="matrix(1 0 0 -1 0 841)" d="M137.75 287.278L492.05 287.278" stroke="#000000" stroke-width="0.5" fill="none" /><path transform="matrix(1 0 0 -1 0 841)" d="M103.25 248.3781L492.05 248.3781" stroke="#000000" stroke-width="0.5" fill="none" /><path transform="matrix(1 0 0 -1 0 841)" d="M137.75 209.478L492.05 209.478" stroke="#000000" stroke-width="0.5" fill="none" /><path transform="matrix(1 0 0 -1 0 841)" d="M103.25 170.578L492.05 170.578" stroke="#000000" stroke-width="0.5" fill="none" /><path transform="matrix(1 0 0 -1 0 841)" d="M137.75 131.878L492.05 131.878" stroke="#000000" stroke-width="0.5" fill="none" /><path transform="matrix(1 0 0 -1 0 841)" d="M102.75 93.17798L492.55 93.17798" stroke="#000000" stroke-width="0.5" fill="none" /></g></g></g></svg>