<svg xmlns="http://www.w3.org/2000/svg" xmlns:xlink="http://www.w3.org/1999/xlink" id="body_3" preserveAspectRatio="xMinYMin meet" viewBox="0 0 793 1121"><defs><clipPath id="1"><path clip-rule="evenodd" d="M0 841L0 -0.9000244L0 -0.9000244L595.3 -0.9000244L595.3 -0.9000244L595.3 841L595.3 841L0 841z" /></clipPath><clipPath id="2"><path clip-rule="evenodd" d="M-1499.4 -1512.9L1668.6 -1512.9L1668.6 -1512.9L1668.6 1655.1L1668.6 1655.1L-1499.4 1655.1z" /></clipPath><clipPath id="3"><path clip-rule="evenodd" d="M83.85 70.59998L114.3 70.59998L114.3 70.59998L114.3 149.95L114.3 149.95L83.85 149.95z" /></clipPath><clipPath id="4"><path clip-rule="evenodd" d="M112.8 70.59998L150.3 70.59998L150.3 70.59998L150.3 110.75L150.3 110.75L112.8 110.75z" /></clipPath><clipPath id="5"><path clip-rule="evenodd" d="M148.8 70.59998L435.55 70.59998L435.55 70.59998L435.55 110.75L435.55 110.75L148.8 110.75z" /></clipPath><clipPath id="6"><path clip-rule="evenodd" d="M434.05 70.59998L468.45 70.59998L468.45 70.59998L468.45 110.75L468.45 110.75L434.05 110.75z" /></clipPath><clipPath id="7"><path clip-rule="evenodd" d="M466.95 70.59998L511.45 70.59998L511.45 70.59998L511.45 110.75L511.45 110.75L466.95 110.75z" /></clipPath><clipPath id="8"><path clip-rule="evenodd" d="M83.85 108.75L114.3 108.75L114.3 108.75L114.3 149.95L114.3 149.95L83.85 149.95z" /></clipPath><clipPath id="9"><path clip-rule="evenodd" d="M83.85 70.60004L114.3 70.60004L114.3 70.60004L114.3 149.95L114.3 149.95L83.85 149.95z" /></clipPath><clipPath id="10"><path clip-rule="evenodd" d="M112.8 109.25L150.3 109.25L150.3 109.25L150.3 149.95L150.3 149.95L112.8 149.95z" /></clipPath><clipPath id="11"><path clip-rule="evenodd" d="M148.8 109.25L435.55 109.25L435.55 109.25L435.55 149.95L435.55 149.95L148.8 149.95z" /></clipPath><clipPath id="12"><path clip-rule="evenodd" d="M434.05 109.25L468.45 109.25L468.45 109.25L468.45 149.95L468.45 149.95L434.05 149.95z" /></clipPath><clipPath id="13"><path clip-rule="evenodd" d="M466.95 109.25L511.45 109.25L511.45 109.25L511.45 149.95L511.45 149.95L466.95 149.95z" /></clipPath><clipPath id="14"><path clip-rule="evenodd" d="M83.85 148.45L114.3 148.45L114.3 148.45L114.3 227.95L114.3 227.95L83.85 227.95z" /></clipPath><clipPath id="15"><path clip-rule="evenodd" d="M112.8 148.45L150.3 148.45L150.3 148.45L150.3 188.95L150.3 188.95L112.8 188.95z" /></clipPath><clipPath id="16"><path clip-rule="evenodd" d="M148.8 148.45L435.55 148.45L435.55 148.45L435.55 188.95L435.55 188.95L148.8 188.95z" /></clipPath><clipPath id="17"><path clip-rule="evenodd" d="M434.05 148.45L468.45 148.45L468.45 148.45L468.45 188.95L468.45 188.95L434.05 188.95z" /></clipPath><clipPath id="18"><path clip-rule="evenodd" d="M466.95 148.45L511.45 148.45L511.45 148.45L511.45 188.95L511.45 188.95L466.95 188.95z" /></clipPath><clipPath id="19"><path clip-rule="evenodd" d="M83.85 186.95L114.3 186.95L114.3 186.95L114.3 227.95L114.3 227.95L83.85 227.95z" /></clipPath><clipPath id="20"><path clip-rule="evenodd" d="M83.85 148.45L114.3 148.45L114.3 148.45L114.3 227.95L114.3 227.95L83.85 227.95z" /></clipPath><clipPath id="21"><path clip-rule="evenodd" d="M112.8 187.45L150.3 187.45L150.3 187.45L150.3 227.95L150.3 227.95L112.8 227.95z" /></clipPath><clipPath id="22"><path clip-rule="evenodd" d="M148.8 187.45L435.55 187.45L435.55 187.45L435.55 227.95L435.55 227.95L148.8 227.95z" /></clipPath><clipPath id="23"><path clip-rule="evenodd" d="M434.05 187.45L468.45 187.45L468.45 187.45L468.45 227.95L468.45 227.95L434.05 227.95z" /></clipPath><clipPath id="24"><path clip-rule="evenodd" d="M466.95 187.45L511.45 187.45L511.45 187.45L511.45 227.95L511.45 227.95L466.95 227.95z" /></clipPath></defs><g transform="matrix(1.333333 0 0 1.333333 0 0)"><g><g clip-path="url(#1)"><g clip-path="url(#2)"><g clip-path="url(#3)"></g><g clip-path="url(#4)"></g><g clip-path="url(#5)"></g><g clip-path="url(#6)"></g><g clip-path="url(#7)"></g><g clip-path="url(#8)"></g><g clip-path="url(#9)"></g><g clip-path="url(#10)"></g><g clip-path="url(#11)"></g><g clip-path="url(#12)"></g><g clip-path="url(#13)"></g><g clip-path="url(#14)"></g><g clip-path="url(#15)"></g><g clip-path="url(#16)"></g><g clip-path="url(#17)"></g><g clip-path="url(#18)"></g><g clip-path="url(#19)"></g><g clip-path="url(#20)"></g><g clip-path="url(#21)"></g><g clip-path="url(#22)"></g><g clip-path="url(#23)"></g><g clip-path="url(#24)"></g><path transform="matrix(1 0 0 -1 0 841)" d="M84.6 769.4L84.6 614.05" stroke="#000000" stroke-width="0.5" fill="none" /><path transform="matrix(1 0 0 -1 0 841)" d="M113.55 769.4L113.55 692.05" stroke="#000000" stroke-width="0.5" fill="none" /><path transform="matrix(1 0 0 -1 0 841)" d="M113.55 691.55L113.55 614.05" stroke="#000000" stroke-width="0.5" fill="none" /><path transform="matrix(1 0 0 -1 0 841)" d="M149.55 769.4L149.55 731.25" stroke="#000000" stroke-width="0.5" fill="none" /><path transform="matrix(1 0 0 -1 0 841)" d="M149.55 730.75L149.55 692.05" stroke="#000000" stroke-width="0.5" fill="none" /><path transform="matrix(1 0 0 -1 0 841)" d="M149.55 691.55L149.55 653.05" stroke="#000000" stroke-width="0.5" fill="none" /><path transform="matrix(1 0 0 -1 0 841)" d="M149.55 652.55L149.55 614.05" stroke="#000000" stroke-width="0.5" fill="none" /><path transform="matrix(1 0 0 -1 0 841)" d="M434.8 769.4L434.8 731.25" stroke="#000000" stroke-width="0.5" fill="none" /><path transform="matrix(1 0 0 -1 0 841)" d="M434.8 730.75L434.8 692.05" stroke="#000000" stroke-width="0.5" fill="none" /><path transform="matrix(1 0 0 -1 0 841)" d="M434.8 691.55L434.8 653.05" stroke="#000000" stroke-width="0.5" fill="none" /><path transform="matrix(1 0 0 -1 0 841)" d="M434.8 652.55L434.8 614.05" stroke="#000000" stroke-width="0.5" fill="none" /><path transform="matrix(1 0 0 -1 0 841)" d="M467.7 769.4L467.7 731.25" stroke="#000000" stroke-width="0.5" fill="none" /><path transform="matrix(1 0 0 -1 0 841)" d="M467.7 730.75L467.7 692.05" stroke="#000000" stroke-width="0.5" fill="none" /><path transform="matrix(1 0 0 -1 0 841)" d="M467.7 691.55L467.7 653.05" stroke="#000000" stroke-width="0.5" fill="none" /><path transform="matrix(1 0 0 -1 0 841)" d="M467.7 652.55L467.7 614.05" stroke="#000000" stroke-width="0.5" fill="none" /><path transform="matrix(1 0 0 -1 0 841)" d="M510.7 769.4L510.7 614.05" stroke="#000000" stroke-width="0.5" fill="none" /><path transform="matrix(1 0 0 -1 0 841)" d="M84.35 769.65L510.95 769.65" stroke="#000000" stroke-width="0.5" fill="none" /><path transform="matrix(1 0 0 -1 0 841)" d="M113.8 731L510.45 731" stroke="#000000" stroke-width="0.5" fill="none" /><path transform="matrix(1 0 0 -1 0 841)" d="M84.85 691.8L510.45 691.8" stroke="#000000" stroke-width="0.5" fill="none" /><path transform="matrix(1 0 0 -1 0 841)" d="M113.8 652.8L510.45 652.8" stroke="#000000" stroke-width="0.5" fill="none" /><path transform="matrix(1 0 0 -1 0 841)" d="M84.35 613.8L510.95 613.8" stroke="#000000" stroke-width="0.5" fill="none" /></g></g></g></g></svg>