<svg xmlns="http://www.w3.org/2000/svg" xmlns:xlink="http://www.w3.org/1999/xlink" id="body_3" preserveAspectRatio="xMinYMin meet" viewBox="0 0 793 1121"><defs><clipPath id="1"><path clip-rule="evenodd" d="M0 841L0 -0.9000244L0 -0.9000244L595.3 -0.9000244L595.3 -0.9000244L595.3 841L595.3 841L0 841z" /></clipPath><clipPath id="2"><path clip-rule="evenodd" d="M0 41.65002L595.3 41.65002L595.3 41.65002L595.3 64.09802L595.3 64.09802L0 64.09802z" /></clipPath><clipPath id="3"><path clip-rule="evenodd" d="M0 770.702L595.3 770.702L595.3 770.702L595.3 791.4L595.3 791.4L0 791.4z" /></clipPath><clipPath id="4"><path clip-rule="evenodd" d="M65.25 70.5L530.05 70.5L530.05 70.5L530.05 258.256L530.05 258.256L65.25 258.256z" /></clipPath><clipPath id="5"><path clip-rule="evenodd" d="M64.5 71L530.8 71L530.8 71L530.8 175.42L530.8 175.42L64.5 175.42z" /></clipPath><clipPath id="6"><path clip-rule="evenodd" d="M64.5 173.92L530.8 173.92L530.8 173.92L530.8 258.256L530.8 258.256L64.5 258.256z" /></clipPath><clipPath id="7"><path clip-rule="evenodd" d="M65.25 70.5L530.05 70.5L530.05 70.5L530.05 258.256L530.05 258.256L65.25 258.256z" /></clipPath></defs><g transform="matrix(1.333333 0 0 1.333333 0 0)"><g><g clip-path="url(#1)"><g clip-path="url(#2)"><path transform="matrix(1 0 0 -1 0 841)" d="M69.45 777.277L525.85 777.277" stroke="#000000" stroke-width="0.75" fill="none" /></g><g clip-path="url(#3)"></g><g clip-path="url(#4)"></g><g clip-path="url(#5)"></g><g clip-path="url(#6)"></g><path transform="matrix(1 0 0 -1 0 841)" d="M65.5 666.33L529.8 666.33" stroke="#000000" stroke-width="0.5" fill="none" /><g clip-path="url(#7)"></g><path transform="matrix(1 0 0 -1 0 841)" d="M65.5 769.5L65.5 583.744" stroke="#000000" stroke-width="1.5" fill="none" /><path transform="matrix(1 0 0 -1 0 841)" d="M529.8 769.5L529.8 583.744" stroke="#000000" stroke-width="1.5" fill="none" /><path transform="matrix(1 0 0 -1 0 841)" d="M64.75 770.25L530.55 770.25" stroke="#000000" stroke-width="1.5" fill="none" /><path transform="matrix(1 0 0 -1 0 841)" d="M64.75 582.994L530.55 582.994" stroke="#000000" stroke-width="1.5" fill="none" /></g></g></g></svg>