<svg xmlns="http://www.w3.org/2000/svg" xmlns:xlink="http://www.w3.org/1999/xlink" id="body_2" preserveAspectRatio="xMinYMin meet" viewBox="0 0 793 1121"><defs><clipPath id="1"><path clip-rule="evenodd" d="M0 841L0 -0.9000244L0 -0.9000244L595.3 -0.9000244L595.3 -0.9000244L595.3 841L595.3 841L0 841z" /></clipPath><clipPath id="2"><path clip-rule="evenodd" d="M0 41.65002L595.3 41.65002L595.3 41.65002L595.3 64.09802L595.3 64.09802L0 64.09802z" /></clipPath><clipPath id="3"><path clip-rule="evenodd" d="M0 770.702L595.3 770.702L595.3 770.702L595.3 791.4L595.3 791.4L0 791.4z" /></clipPath><clipPath id="4"><path clip-rule="evenodd" d="M65.25 117.3L530.05 117.3L530.05 117.3L530.05 765.8121L530.05 765.8121L65.25 765.8121z" /></clipPath><clipPath id="5"><path clip-rule="evenodd" d="M64.5 117.3L133.35 117.3L133.35 117.3L133.35 141.9501L133.35 141.9501L64.5 141.9501z" /></clipPath><clipPath id="6"><path clip-rule="evenodd" d="M131.85 117.3L530.8 117.3L530.8 117.3L530.8 141.9501L530.8 141.9501L131.85 141.9501z" /></clipPath><clipPath id="7"><path clip-rule="evenodd" d="M64.5 140.4501L133.35 140.4501L133.35 140.4501L133.35 183.618L133.35 183.618L64.5 183.618z" /></clipPath><clipPath id="8"><path clip-rule="evenodd" d="M131.85 140.4501L195.15 140.4501L195.15 140.4501L195.15 183.618L195.15 183.618L131.85 183.618z" /></clipPath><clipPath id="9"><path clip-rule="evenodd" d="M193.65 140.4501L256.95 140.4501L256.95 140.4501L256.95 183.618L256.95 183.618L193.65 183.618z" /></clipPath><clipPath id="10"><path clip-rule="evenodd" d="M255.45 140.4501L345.25 140.4501L345.25 140.4501L345.25 183.618L345.25 183.618L255.45 183.618z" /></clipPath><clipPath id="11"><path clip-rule="evenodd" d="M343.75 140.4501L433.5 140.4501L433.5 140.4501L433.5 183.618L433.5 183.618L343.75 183.618z" /></clipPath><clipPath id="12"><path clip-rule="evenodd" d="M432 140.4501L530.8 140.4501L530.8 140.4501L530.8 183.618L530.8 183.618L432 183.618z" /></clipPath><clipPath id="13"><path clip-rule="evenodd" d="M64.5 182.1181L530.8 182.1181L530.8 182.1181L530.8 400.2501L530.8 400.2501L64.5 400.2501z" /></clipPath><clipPath id="14"><path clip-rule="evenodd" d="M64.5 398.7501L530.8 398.7501L530.8 398.7501L530.8 575.7141L530.8 575.7141L64.5 575.7141z" /></clipPath><clipPath id="15"><path clip-rule="evenodd" d="M64.5 574.2141L530.8 574.2141L530.8 574.2141L530.8 744.728L530.8 744.728L64.5 744.728z" /></clipPath><clipPath id="16"><path clip-rule="evenodd" d="M64.5 743.228L530.8 743.228L530.8 743.228L530.8 765.812L530.8 765.812L64.5 765.812z" /></clipPath><clipPath id="17"><path clip-rule="evenodd" d="M65.25 117.3L530.05 117.3L530.05 117.3L530.05 765.8121L530.05 765.8121L65.25 765.8121z" /></clipPath></defs><g transform="matrix(1.333333 0 0 1.333333 0 0)"><g><g clip-path="url(#1)"><g clip-path="url(#2)"><path transform="matrix(1 0 0 -1 0 841)" d="M69.45 777.277L525.85 777.277" stroke="#000000" stroke-width="0.75" fill="none" /></g><g clip-path="url(#3)"></g><g clip-path="url(#4)"></g><g clip-path="url(#5)"></g><g clip-path="url(#6)"></g><g clip-path="url(#7)"></g><g clip-path="url(#8)"></g><g clip-path="url(#9)"></g><g clip-path="url(#10)"></g><g clip-path="url(#11)"></g><g clip-path="url(#12)"></g><g clip-path="url(#13)"></g><g clip-path="url(#14)"></g><g clip-path="url(#15)"></g><g clip-path="url(#16)"></g><path transform="matrix(1 0 0 -1 0 841)" d="M132.6 722.7L132.6 700.0499" stroke="#000000" stroke-width="0.5" fill="none" /><path transform="matrix(1 0 0 -1 0 841)" d="M132.6 699.5499L132.6 658.382" stroke="#000000" stroke-width="0.5" fill="none" /><path transform="matrix(1 0 0 -1 0 841)" d="M194.4 699.5499L194.4 658.382" stroke="#000000" stroke-width="0.5" fill="none" /><path transform="matrix(1 0 0 -1 0 841)" d="M256.2 699.5499L256.2 658.382" stroke="#000000" stroke-width="0.5" fill="none" /><path transform="matrix(1 0 0 -1 0 841)" d="M344.5 699.5499L344.5 658.382" stroke="#000000" stroke-width="0.5" fill="none" /><path transform="matrix(1 0 0 -1 0 841)" d="M432.75 699.5499L432.75 658.382" stroke="#000000" stroke-width="0.5" fill="none" /><path transform="matrix(1 0 0 -1 0 841)" d="M65.5 699.7999L529.8 699.7999" stroke="#000000" stroke-width="0.5" fill="none" /><path transform="matrix(1 0 0 -1 0 841)" d="M65.5 658.132L529.8 658.132" stroke="#000000" stroke-width="0.5" fill="none" /><path transform="matrix(1 0 0 -1 0 841)" d="M65.5 441.4999L529.8 441.4999" stroke="#000000" stroke-width="0.5" fill="none" /><path transform="matrix(1 0 0 -1 0 841)" d="M65.5 266.0359L529.8 266.0359" stroke="#000000" stroke-width="0.5" fill="none" /><path transform="matrix(1 0 0 -1 0 841)" d="M65.5 97.02197L529.8 97.02197" stroke="#000000" stroke-width="0.5" fill="none" /><g clip-path="url(#17)"></g><path transform="matrix(1 0 0 -1 0 841)" d="M65.5 722.7L65.5 76.18793" stroke="#000000" stroke-width="1.5" fill="none" /><path transform="matrix(1 0 0 -1 0 841)" d="M529.8 722.7L529.8 76.18793" stroke="#000000" stroke-width="1.5" fill="none" /><path transform="matrix(1 0 0 -1 0 841)" d="M64.75 723.45L530.55 723.45" stroke="#000000" stroke-width="1.5" fill="none" /><path transform="matrix(1 0 0 -1 0 841)" d="M64.75 75.43793L530.55 75.43793" stroke="#000000" stroke-width="1.5" fill="none" /></g></g></g></svg>