<svg xmlns="http://www.w3.org/2000/svg" xmlns:xlink="http://www.w3.org/1999/xlink" id="body_1" preserveAspectRatio="xMinYMin meet" viewBox="0 0 793 1121"><defs><clipPath id="1"><path clip-rule="evenodd" d="M0 841L0 -0.9000244L0 -0.9000244L595.3 -0.9000244L595.3 -0.9000244L595.3 841L595.3 841L0 841z" /></clipPath><clipPath id="2"><path clip-rule="evenodd" d="M0 41.65002L595.3 41.65002L595.3 41.65002L595.3 64.09802L595.3 64.09802L0 64.09802z" /></clipPath><clipPath id="3"><path clip-rule="evenodd" d="M0 770.702L595.3 770.702L595.3 770.702L595.3 791.4L595.3 791.4L0 791.4z" /></clipPath></defs><g transform="matrix(1.333333 0 0 1.333333 0 0)"><g><g clip-path="url(#1)"><g clip-path="url(#2)"><path transform="matrix(1 0 0 -1 0 841)" d="M69.45 777.277L525.85 777.277" stroke="#000000" stroke-width="0.75" fill="none" /></g><g clip-path="url(#3)"></g><g transform="matrix(1.19625 0 0 1.19625 125.988 134.939)"><g transform="matrix(1 0 0 1 0 0)"><image x="0" y="0" xlink:href="img_01.png" width="287" height="74" /></g></g><path transform="matrix(1 0 0 -1 0 841)" d="M213.9 467.054L435.494 467.054" stroke="#000000" stroke-width="0.8" fill="none" /><path transform="matrix(1 0 0 -1 0 841)" d="M214.9 435.854L440.588 435.854" stroke="#000000" stroke-width="0.8" fill="none" /><path transform="matrix(1 0 0 -1 0 841)" d="M201.838 404.654L436.729 404.654" stroke="#000000" stroke-width="0.8" fill="none" /><path transform="matrix(1 0 0 -1 0 841)" d="M214.9 373.454L442.197 373.454" stroke="#000000" stroke-width="0.8000001" fill="none" /><path transform="matrix(1 0 0 -1 0 841)" d="M214.9 342.254L442.197 342.254" stroke="#000000" stroke-width="0.8000001" fill="none" /><path transform="matrix(1 0 0 -1 0 841)" d="M214.9 311.054L442.197 311.054" stroke="#000000" stroke-width="0.8000001" fill="none" /><path transform="matrix(1 0 0 -1 0 841)" d="M214.9 279.854L442.197 279.854" stroke="#000000" stroke-width="0.8000001" fill="none" /><path transform="matrix(1 0 0 -1 0 841)" d="M214.9 248.654L442.197 248.654" stroke="#000000" stroke-width="0.8000001" fill="none" /><path transform="matrix(1 0 0 -1 0 841)" d="M214.9 217.454L442.197 217.454" stroke="#000000" stroke-width="0.8000001" fill="none" /><path transform="matrix(1 0 0 -1 0 841)" d="M214.9 186.254L424.212 186.254" stroke="#000000" stroke-width="0.8000001" fill="none" /><path transform="matrix(1 0 0 -1 0 841)" d="M214.9 155.054L413.587 155.054" stroke="#000000" stroke-width="0.8" fill="none" /></g></g></g></svg>