<svg xmlns="http://www.w3.org/2000/svg" xmlns:xlink="http://www.w3.org/1999/xlink" id="body_2" preserveAspectRatio="xMinYMin meet" viewBox="0 0 793 1121"><defs><clipPath id="1"><path clip-rule="evenodd" d="M0 841L0 -0.9000244L0 -0.9000244L595.3 -0.9000244L595.3 -0.9000244L595.3 841L595.3 841L0 841z" /></clipPath><clipPath id="2"><path clip-rule="evenodd" d="M-1522.15 -1512.9L1645.85 -1512.9L1645.85 -1512.9L1645.85 1655.1L1645.85 1655.1L-1522.15 1655.1z" /></clipPath><clipPath id="3"><path clip-rule="evenodd" d="M61.6 71.59998L533.7 71.59998L533.7 71.59998L533.7 702.55L533.7 702.55L61.6 702.55z" /></clipPath></defs><g transform="matrix(1.333333 0 0 1.333333 0 0)"><g><g clip-path="url(#1)"><g clip-path="url(#2)"><g clip-path="url(#3)"></g><path transform="matrix(1 0 0 -1 0 841)" d="M61.85 768.4L61.85 139.45" stroke="#000000" stroke-width="1.5" fill="none" /><path transform="matrix(1 0 0 -1 0 841)" d="M533.45 768.4L533.45 139.45" stroke="#000000" stroke-width="1.5" fill="none" /><path transform="matrix(1 0 0 -1 0 841)" d="M61.1 769.15L534.2 769.15" stroke="#000000" stroke-width="1.5" fill="none" /><path transform="matrix(1 0 0 -1 0 841)" d="M61.1 138.7L534.2 138.7" stroke="#000000" stroke-width="1.5" fill="none" /></g></g></g></g></svg>