<svg xmlns="http://www.w3.org/2000/svg" xmlns:xlink="http://www.w3.org/1999/xlink" id="body_1" preserveAspectRatio="xMinYMin meet" viewBox="0 0 793 1121"><defs><clipPath id="1"><path clip-rule="evenodd" d="M0 841L0 -0.9000244L0 -0.9000244L595.3 -0.9000244L595.3 -0.9000244L595.3 841L595.3 841L0 841z" /></clipPath><clipPath id="2"><path clip-rule="evenodd" d="M-1522.15 -1473.6L1645.85 -1473.6L1645.85 -1473.6L1645.85 1694.4L1645.85 1694.4L-1522.15 1694.4z" /></clipPath><clipPath id="3"><path clip-rule="evenodd" d="M61.6 110.9L533.7 110.9L533.7 110.9L533.7 805.28L533.7 805.28L61.6 805.28z" /></clipPath></defs><g transform="matrix(1.333333 0 0 1.333333 0 0)"><g><g clip-path="url(#1)"><g clip-path="url(#2)"><g clip-path="url(#3)"></g><path transform="matrix(1 0 0 -1 0 841)" d="M61.85 729.1L61.85 36.71997" stroke="#000000" stroke-width="1.5" fill="none" /><path transform="matrix(1 0 0 -1 0 841)" d="M533.45 729.1L533.45 36.71997" stroke="#000000" stroke-width="1.5" fill="none" /><path transform="matrix(1 0 0 -1 0 841)" d="M61.1 729.85L534.2 729.85" stroke="#000000" stroke-width="1.5" fill="none" /><path transform="matrix(1 0 0 -1 0 841)" d="M61.1 35.96997L534.2 35.96997" stroke="#000000" stroke-width="1.5" fill="none" /></g></g></g></g></svg>