<svg xmlns="http://www.w3.org/2000/svg" xmlns:xlink="http://www.w3.org/1999/xlink" id="body_2" preserveAspectRatio="xMinYMin meet" viewBox="0 0 793 1121"><defs><clipPath id="1"><path clip-rule="evenodd" d="M0 841L0 -0.9000244L0 -0.9000244L595.3 -0.9000244L595.3 -0.9000244L595.3 841L595.3 841L0 841z" /></clipPath><clipPath id="2"><path clip-rule="evenodd" d="M65.25 117.3L530.05 117.3L530.05 117.3L530.05 766.3701L530.05 766.3701L65.25 766.3701z" /></clipPath><clipPath id="3"><path clip-rule="evenodd" d="M59.925 117.3L130.075 117.3L130.075 117.3L130.075 141.9501L130.075 141.9501L59.925 141.9501z" /></clipPath><clipPath id="4"><path clip-rule="evenodd" d="M128.575 117.3L535.375 117.3L535.375 117.3L535.375 141.9501L535.375 141.9501L128.575 141.9501z" /></clipPath><clipPath id="5"><path clip-rule="evenodd" d="M59.925 140.4501L130.075 140.4501L130.075 140.4501L130.075 183.618L130.075 183.618L59.925 183.618z" /></clipPath><clipPath id="6"><path clip-rule="evenodd" d="M128.575 140.4501L193.075 140.4501L193.075 140.4501L193.075 183.618L193.075 183.618L128.575 183.618z" /></clipPath><clipPath id="7"><path clip-rule="evenodd" d="M191.575 140.4501L256.075 140.4501L256.075 140.4501L256.075 183.618L256.075 183.618L191.575 183.618z" /></clipPath><clipPath id="8"><path clip-rule="evenodd" d="M254.575 140.4501L346.125 140.4501L346.125 140.4501L346.125 183.618L346.125 183.618L254.575 183.618z" /></clipPath><clipPath id="9"><path clip-rule="evenodd" d="M344.625 140.4501L436.125 140.4501L436.125 140.4501L436.125 183.618L436.125 183.618L344.625 183.618z" /></clipPath><clipPath id="10"><path clip-rule="evenodd" d="M434.625 140.4501L535.375 140.4501L535.375 140.4501L535.375 183.618L535.375 183.618L434.625 183.618z" /></clipPath><clipPath id="11"><path clip-rule="evenodd" d="M59.925 182.1181L535.375 182.1181L535.375 182.1181L535.375 346.4181L535.375 346.4181L59.925 346.4181z" /></clipPath><clipPath id="12"><path clip-rule="evenodd" d="M59.925 344.9181L535.375 344.9181L535.375 344.9181L535.375 485.868L535.375 485.868L59.925 485.868z" /></clipPath><clipPath id="13"><path clip-rule="evenodd" d="M59.925 484.368L535.375 484.368L535.375 484.368L535.375 611.5181L535.375 611.5181L59.925 611.5181z" /></clipPath><clipPath id="14"><path clip-rule="evenodd" d="M59.925 610.0181L535.375 610.0181L535.375 610.0181L535.375 704.118L535.375 704.118L59.925 704.118z" /></clipPath><clipPath id="15"><path clip-rule="evenodd" d="M59.925 702.618L535.375 702.618L535.375 702.618L535.375 766.3701L535.375 766.3701L59.925 766.3701z" /></clipPath><clipPath id="16"><path clip-rule="evenodd" d="M65.25 117.3L530.05 117.3L530.05 117.3L530.05 766.3701L530.05 766.3701L65.25 766.3701z" /></clipPath></defs><g transform="matrix(1.333333 0 0 1.333333 0 0)"><g><g clip-path="url(#1)"><g clip-path="url(#2)"></g><g clip-path="url(#3)"></g><g clip-path="url(#4)"></g><g clip-path="url(#5)"></g><g clip-path="url(#6)"></g><g clip-path="url(#7)"></g><g clip-path="url(#8)"></g><g clip-path="url(#9)"></g><g clip-path="url(#10)"></g><g clip-path="url(#11)"></g><g clip-path="url(#12)"></g><g clip-path="url(#13)"></g><g clip-path="url(#14)"></g><g clip-path="url(#15)"></g><path transform="matrix(1 0 0 -1 0 841)" d="M129.325 722.7L129.325 700.0499" stroke="#000000" stroke-width="0.5" fill="none" /><path transform="matrix(1 0 0 -1 0 841)" d="M129.325 699.5499L129.325 658.382" stroke="#000000" stroke-width="0.5" fill="none" /><path transform="matrix(1 0 0 -1 0 841)" d="M192.325 699.5499L192.325 658.382" stroke="#000000" stroke-width="0.5" fill="none" /><path transform="matrix(1 0 0 -1 0 841)" d="M255.325 699.5499L255.325 658.382" stroke="#000000" stroke-width="0.5" fill="none" /><path transform="matrix(1 0 0 -1 0 841)" d="M345.375 699.5499L345.375 658.382" stroke="#000000" stroke-width="0.5" fill="none" /><path transform="matrix(1 0 0 -1 0 841)" d="M435.375 699.5499L435.375 658.382" stroke="#000000" stroke-width="0.5" fill="none" /><path transform="matrix(1 0 0 -1 0 841)" d="M60.925 699.7999L534.375 699.7999" stroke="#000000" stroke-width="0.5" fill="none" /><path transform="matrix(1 0 0 -1 0 841)" d="M60.925 658.132L534.375 658.132" stroke="#000000" stroke-width="0.5" fill="none" /><path transform="matrix(1 0 0 -1 0 841)" d="M60.925 495.3319L534.375 495.3319" stroke="#000000" stroke-width="0.5" fill="none" /><path transform="matrix(1 0 0 -1 0 841)" d="M60.925 355.882L534.375 355.882" stroke="#000000" stroke-width="0.5" fill="none" /><path transform="matrix(1 0 0 -1 0 841)" d="M60.925 230.232L534.375 230.232" stroke="#000000" stroke-width="0.5" fill="none" /><path transform="matrix(1 0 0 -1 0 841)" d="M60.925 137.632L534.375 137.632" stroke="#000000" stroke-width="0.5" fill="none" /><g clip-path="url(#16)"></g><path transform="matrix(1 0 0 -1 0 841)" d="M65.5 722.7L65.5 75.62994" stroke="#000000" stroke-width="1.5" fill="none" /><path transform="matrix(1 0 0 -1 0 841)" d="M529.8 722.7L529.8 75.62994" stroke="#000000" stroke-width="1.5" fill="none" /><path transform="matrix(1 0 0 -1 0 841)" d="M64.75 723.45L530.55 723.45" stroke="#000000" stroke-width="1.5" fill="none" /><path transform="matrix(1 0 0 -1 0 841)" d="M64.75 74.87994L530.55 74.87994" stroke="#000000" stroke-width="1.5" fill="none" /></g></g></g></svg>