<svg xmlns="http://www.w3.org/2000/svg" xmlns:xlink="http://www.w3.org/1999/xlink" id="body_3" preserveAspectRatio="xMinYMin meet" viewBox="0 0 793 1121"><defs><clipPath id="1"><path clip-rule="evenodd" d="M0 841L0 -0.9000244L0 -0.9000244L595.3 -0.9000244L595.3 -0.9000244L595.3 841L595.3 841L0 841z" /></clipPath><clipPath id="2"><path clip-rule="evenodd" d="M65.25 70.5L530.05 70.5L530.05 70.5L530.05 145.9L530.05 145.9L65.25 145.9z" /></clipPath><clipPath id="3"><path clip-rule="evenodd" d="M59.925 71L535.375 71L535.375 71L535.375 145.9L535.375 145.9L59.925 145.9z" /></clipPath><clipPath id="4"><path clip-rule="evenodd" d="M65.25 70.5L530.05 70.5L530.05 70.5L530.05 145.9L530.05 145.9L65.25 145.9z" /></clipPath></defs><g transform="matrix(1.333333 0 0 1.333333 0 0)"><g><g clip-path="url(#1)"><g clip-path="url(#2)"></g><g clip-path="url(#3)"></g><g clip-path="url(#4)"></g><path transform="matrix(1 0 0 -1 0 841)" d="M65.5 769.5L65.5 696.1" stroke="#000000" stroke-width="1.5" fill="none" /><path transform="matrix(1 0 0 -1 0 841)" d="M529.8 769.5L529.8 696.1" stroke="#000000" stroke-width="1.5" fill="none" /><path transform="matrix(1 0 0 -1 0 841)" d="M64.75 770.25L530.55 770.25" stroke="#000000" stroke-width="1.5" fill="none" /><path transform="matrix(1 0 0 -1 0 841)" d="M64.75 695.35L530.55 695.35" stroke="#000000" stroke-width="1.5" fill="none" /></g></g></g></svg>