<svg xmlns="http://www.w3.org/2000/svg" xmlns:xlink="http://www.w3.org/1999/xlink" id="body_1" preserveAspectRatio="xMinYMin meet" viewBox="0 0 793 1121"><defs><clipPath id="1"><path clip-rule="evenodd" d="M0 841L0 -0.9000244L0 -0.9000244L595.3 -0.9000244L595.3 -0.9000244L595.3 841L595.3 841L0 841z" /></clipPath><clipPath id="2"><path clip-rule="evenodd" d="M0 41.65002L595.3 41.65002L595.3 41.65002L595.3 51.99902L595.3 51.99902L0 51.99902z" /></clipPath><clipPath id="3"><path clip-rule="evenodd" d="M201.926 57.888L425.0726 57.888L425.0726 57.888L425.0726 116.111L425.0726 116.111L201.926 116.111z" /></clipPath><clipPath id="4"><path clip-rule="evenodd" d="M202.3304 58.33081L424.6611 58.33081L424.6611 58.33081L424.6611 115.6683L424.6611 115.6683L202.3304 115.6683z" /></clipPath></defs><g transform="matrix(1.333333 0 0 1.333333 0 0)"><g><g clip-path="url(#1)"><g clip-path="url(#2)"></g><g clip-path="url(#3)"><g clip-path="url(#4)"><g transform="matrix(0.3274384 0 0 0.3276425 202.3304 58.33081)"><g transform="matrix(1 0 0 1 0 0)"><image x="0" y="0" xlink:href="img_01.png" width="679" height="175" /></g></g></g></g><path transform="matrix(1 0 0 -1 0 841)" d="M268.96 434.454L448.257 434.454" stroke="#000000" stroke-width="0.8" fill="none" /><path transform="matrix(1 0 0 -1 0 841)" d="M268.96 403.254L448.257 403.254" stroke="#000000" stroke-width="0.8" fill="none" /><path transform="matrix(1 0 0 -1 0 841)" d="M268.96 340.854L448.257 340.854" stroke="#000000" stroke-width="0.8" fill="none" /><path transform="matrix(1 0 0 -1 0 841)" d="M255.898 309.654L449.539 309.654" stroke="#000000" stroke-width="0.8" fill="none" /><path transform="matrix(1 0 0 -1 0 841)" d="M268.96 278.454L448.257 278.454" stroke="#000000" stroke-width="0.8" fill="none" /><path transform="matrix(1 0 0 -1 0 841)" d="M268.96 247.254L448.257 247.254" stroke="#000000" stroke-width="0.8" fill="none" /></g></g></g></svg>