<svg xmlns="http://www.w3.org/2000/svg" xmlns:xlink="http://www.w3.org/1999/xlink" id="body_1" preserveAspectRatio="xMinYMin meet" viewBox="0 0 793 1123"><defs><clipPath id="1"><path clip-rule="evenodd" d="M0 842L0 0L0 0L595.35 0L595.35 0L595.35 842L595.35 842L0 842z" /></clipPath><clipPath id="2"><path clip-rule="evenodd" d="M0 42.55005L595.35 42.55005L595.35 42.55005L595.35 54.89905L595.35 54.89905L0 54.89905z" /></clipPath><clipPath id="3"><path clip-rule="evenodd" d="M0 782.051L595.35 782.051L595.35 782.051L595.35 792.4L595.35 792.4L0 792.4z" /></clipPath></defs><g transform="matrix(1.333333 0 0 1.333333 0 0)"><g><g clip-path="url(#1)"><g clip-path="url(#2)"></g><g clip-path="url(#3)"></g><g transform="matrix(0.75 0 0 0.75 209.15 75.75006)"><g transform="matrix(1 0 0 1 0 0)"><image x="0" y="0" xlink:href="img_01.png" width="287" height="74" /></g></g><path transform="matrix(1 0 0 -1 0 842)" d="M267.86 486.454L496.766 486.454" stroke="#000000" stroke-width="0.8" fill="none" /><path transform="matrix(1 0 0 -1 0 842)" d="M267.86 453.854L505.188 453.854" stroke="#000000" stroke-width="0.8" fill="none" /><path transform="matrix(1 0 0 -1 0 842)" d="M259.532 421.254L496.86 421.254" stroke="#000000" stroke-width="0.8" fill="none" /><path transform="matrix(1 0 0 -1 0 842)" d="M267.86 388.654L497.595 388.654" stroke="#000000" stroke-width="0.8" fill="none" /><path transform="matrix(1 0 0 -1 0 842)" d="M259.81 356.054L489.545 356.054" stroke="#000000" stroke-width="0.8" fill="none" /><path transform="matrix(1 0 0 -1 0 842)" d="M259.75 323.454L482.954 323.454" stroke="#000000" stroke-width="0.8" fill="none" /><path transform="matrix(1 0 0 -1 0 842)" d="M259.75 290.854L487.688 290.854" stroke="#000000" stroke-width="0.8" fill="none" /><path transform="matrix(1 0 0 -1 0 842)" d="M259.75 258.254L494.219 258.254" stroke="#000000" stroke-width="0.8" fill="none" /><path transform="matrix(1 0 0 -1 0 842)" d="M259.75 225.654L489.485 225.654" stroke="#000000" stroke-width="0.8" fill="none" /><path transform="matrix(1 0 0 -1 0 842)" d="M254.798 193.054L473.861 193.054" stroke="#000000" stroke-width="0.8000001" fill="none" /><path transform="matrix(1 0 0 -1 0 842)" d="M267.86 160.454L476.298 160.454" stroke="#000000" stroke-width="0.8" fill="none" /></g></g></g></svg>