<svg xmlns="http://www.w3.org/2000/svg" xmlns:xlink="http://www.w3.org/1999/xlink" id="body_3" preserveAspectRatio="xMinYMin meet" viewBox="0 0 793 1121"><defs><clipPath id="1"><path clip-rule="evenodd" d="M0 841L0 -0.9000244L0 -0.9000244L595.3 -0.9000244L595.3 -0.9000244L595.3 841L595.3 841L0 841z" /></clipPath><clipPath id="2"><path clip-rule="evenodd" d="M0 41.65002L595.3 41.65002L595.3 41.65002L595.3 69.24805L595.3 69.24805L0 69.24805z" /></clipPath><clipPath id="3"><path clip-rule="evenodd" d="M0 781.051L595.3 781.051L595.3 781.051L595.3 791.4L595.3 791.4L0 791.4z" /></clipPath><clipPath id="4"><path clip-rule="evenodd" d="M295 780.501L300.3 780.501L300.3 780.501L300.3 792.0499L300.3 792.0499L295 792.0499z" /></clipPath><clipPath id="5"><path clip-rule="evenodd" d="M84.35 71.59998L569.1 71.59998L569.1 71.59998L569.1 744.236L569.1 744.236L84.35 744.236z" /></clipPath><clipPath id="6"><path clip-rule="evenodd" d="M-1494 -1511.4L1674 -1511.4L1674 -1511.4L1674 1656.6L1674 1656.6L-1494 1656.6z" /></clipPath><clipPath id="7"><path clip-rule="evenodd" d="M89 72.09998L564.45 72.09998L564.45 72.09998L564.45 661.4L564.45 661.4L89 661.4z" /></clipPath><clipPath id="8"><path clip-rule="evenodd" d="M89 659.9L564.45 659.9L564.45 659.9L564.45 744.236L564.45 744.236L89 744.236z" /></clipPath><clipPath id="9"><path clip-rule="evenodd" d="M84.35 71.59998L569.1 71.59998L569.1 71.59998L569.1 744.236L569.1 744.236L84.35 744.236z" /></clipPath><clipPath id="10"><path clip-rule="evenodd" d="M-1494 -1511.4L1674 -1511.4L1674 -1511.4L1674 1656.6L1674 1656.6L-1494 1656.6z" /></clipPath></defs><g transform="matrix(1.333333 0 0 1.333333 0 0)"><g><g clip-path="url(#1)"><g clip-path="url(#2)"></g><g clip-path="url(#3)"></g><g clip-path="url(#4)"></g><g clip-path="url(#5)"><g clip-path="url(#6)"></g></g><g clip-path="url(#7)"></g><g clip-path="url(#8)"></g><path transform="matrix(1 0 0 -1 0 841)" d="M90 180.35L563.45 180.35" stroke="#000000" stroke-width="0.5" fill="none" /><g clip-path="url(#9)"><g clip-path="url(#10)"></g></g><path transform="matrix(1 0 0 -1 0 841)" d="M84.6 768.4L84.6 97.76404" stroke="#000000" stroke-width="1.5" fill="none" /><path transform="matrix(1 0 0 -1 0 841)" d="M568.85 768.4L568.85 97.76404" stroke="#000000" stroke-width="1.5" fill="none" /><path transform="matrix(1 0 0 -1 0 841)" d="M83.85 769.15L569.6 769.15" stroke="#000000" stroke-width="1.5" fill="none" /><path transform="matrix(1 0 0 -1 0 841)" d="M83.85 97.01404L569.6 97.01404" stroke="#000000" stroke-width="1.5" fill="none" /></g></g></g></svg>