<svg xmlns="http://www.w3.org/2000/svg" xmlns:xlink="http://www.w3.org/1999/xlink" id="body_1" preserveAspectRatio="xMinYMin meet" viewBox="0 0 793 1121"><defs><clipPath id="1"><path clip-rule="evenodd" d="M0 841L0 -0.9000244L0 -0.9000244L595.3 -0.9000244L595.3 -0.9000244L595.3 841L595.3 841L0 841z" /></clipPath><clipPath id="2"><path clip-rule="evenodd" d="M13.95 128.359L76.75 128.359L76.75 128.359L76.75 155.359L76.75 155.359L13.95 155.359z" /></clipPath><clipPath id="3"><path clip-rule="evenodd" d="M75.25 128.359L581.35 128.359L581.35 128.359L581.35 155.359L581.35 155.359L75.25 155.359z" /></clipPath><clipPath id="4"><path clip-rule="evenodd" d="M13.95 153.359L76.75 153.359L76.75 153.359L76.75 181.159L76.75 181.159L13.95 181.159z" /></clipPath><clipPath id="5"><path clip-rule="evenodd" d="M75.25 153.359L294.3 153.359L294.3 153.359L294.3 181.159L294.3 181.159L75.25 181.159z" /></clipPath><clipPath id="6"><path clip-rule="evenodd" d="M292.8 153.359L543.9 153.359L543.9 153.359L543.9 181.159L543.9 181.159L292.8 181.159z" /></clipPath><clipPath id="7"><path clip-rule="evenodd" d="M542.4 153.359L581.35 153.359L581.35 153.359L581.35 181.159L581.35 181.159L542.4 181.159z" /></clipPath><clipPath id="8"><path clip-rule="evenodd" d="M13.95 179.1591L581.35 179.1591L581.35 179.1591L581.35 206.709L581.35 206.709L13.95 206.709z" /></clipPath><clipPath id="9"><path clip-rule="evenodd" d="M13.95 204.709L76.75 204.709L76.75 204.709L76.75 232.4091L76.75 232.4091L13.95 232.4091z" /></clipPath><clipPath id="10"><path clip-rule="evenodd" d="M75.25 204.709L497.05 204.709L497.05 204.709L497.05 232.4091L497.05 232.4091L75.25 232.4091z" /></clipPath><clipPath id="11"><path clip-rule="evenodd" d="M495.55 204.709L581.35 204.709L581.35 204.709L581.35 232.4091L581.35 232.4091L495.55 232.4091z" /></clipPath><clipPath id="12"><path clip-rule="evenodd" d="M13.95 230.4091L76.75 230.4091L76.75 230.4091L76.75 267.6091L76.75 267.6091L13.95 267.6091z" /></clipPath><clipPath id="13"><path clip-rule="evenodd" d="M75.25 230.4091L497.05 230.4091L497.05 230.4091L497.05 267.6091L497.05 267.6091L75.25 267.6091z" /></clipPath><clipPath id="14"><path clip-rule="evenodd" d="M495.55 230.4091L581.35 230.4091L581.35 230.4091L581.35 267.6091L581.35 267.6091L495.55 267.6091z" /></clipPath><clipPath id="15"><path clip-rule="evenodd" d="M13.95 265.609L76.75 265.609L76.75 265.609L76.75 299.759L76.75 299.759L13.95 299.759z" /></clipPath><clipPath id="16"><path clip-rule="evenodd" d="M75.25 265.609L497.05 265.609L497.05 265.609L497.05 299.759L497.05 299.759L75.25 299.759z" /></clipPath><clipPath id="17"><path clip-rule="evenodd" d="M495.55 265.609L581.35 265.609L581.35 265.609L581.35 299.759L581.35 299.759L495.55 299.759z" /></clipPath><clipPath id="18"><path clip-rule="evenodd" d="M13.95 297.759L76.75 297.759L76.75 297.759L76.75 332.309L76.75 332.309L13.95 332.309z" /></clipPath><clipPath id="19"><path clip-rule="evenodd" d="M75.25 297.759L497.05 297.759L497.05 297.759L497.05 332.309L497.05 332.309L75.25 332.309z" /></clipPath><clipPath id="20"><path clip-rule="evenodd" d="M495.55 297.759L581.35 297.759L581.35 297.759L581.35 332.309L581.35 332.309L495.55 332.309z" /></clipPath><clipPath id="21"><path clip-rule="evenodd" d="M13.95 330.309L76.75 330.309L76.75 330.309L76.75 364.509L76.75 364.509L13.95 364.509z" /></clipPath><clipPath id="22"><path clip-rule="evenodd" d="M75.25 330.309L497.05 330.309L497.05 330.309L497.05 364.509L497.05 364.509L75.25 364.509z" /></clipPath><clipPath id="23"><path clip-rule="evenodd" d="M495.55 330.309L581.35 330.309L581.35 330.309L581.35 364.509L581.35 364.509L495.55 364.509z" /></clipPath><clipPath id="24"><path clip-rule="evenodd" d="M13.95 362.509L76.75 362.509L76.75 362.509L76.75 395.509L76.75 395.509L13.95 395.509z" /></clipPath><clipPath id="25"><path clip-rule="evenodd" d="M75.25 362.509L497.05 362.509L497.05 362.509L497.05 395.509L497.05 395.509L75.25 395.509z" /></clipPath><clipPath id="26"><path clip-rule="evenodd" d="M495.55 362.509L581.35 362.509L581.35 362.509L581.35 395.509L581.35 395.509L495.55 395.509z" /></clipPath><clipPath id="27"><path clip-rule="evenodd" d="M13.95 393.509L76.75 393.509L76.75 393.509L76.75 429.209L76.75 429.209L13.95 429.209z" /></clipPath><clipPath id="28"><path clip-rule="evenodd" d="M75.25 393.509L497.05 393.509L497.05 393.509L497.05 429.209L497.05 429.209L75.25 429.209z" /></clipPath><clipPath id="29"><path clip-rule="evenodd" d="M495.55 393.509L581.35 393.509L581.35 393.509L581.35 429.209L581.35 429.209L495.55 429.209z" /></clipPath><clipPath id="30"><path clip-rule="evenodd" d="M13.95 427.209L76.75 427.209L76.75 427.209L76.75 463.359L76.75 463.359L13.95 463.359z" /></clipPath><clipPath id="31"><path clip-rule="evenodd" d="M75.25 427.209L497.05 427.209L497.05 427.209L497.05 463.359L497.05 463.359L75.25 463.359z" /></clipPath><clipPath id="32"><path clip-rule="evenodd" d="M495.55 427.209L581.35 427.209L581.35 427.209L581.35 463.359L581.35 463.359L495.55 463.359z" /></clipPath><clipPath id="33"><path clip-rule="evenodd" d="M13.95 461.359L76.75 461.359L76.75 461.359L76.75 492.959L76.75 492.959L13.95 492.959z" /></clipPath><clipPath id="34"><path clip-rule="evenodd" d="M75.25 461.359L497.05 461.359L497.05 461.359L497.05 492.959L497.05 492.959L75.25 492.959z" /></clipPath><clipPath id="35"><path clip-rule="evenodd" d="M495.55 461.359L581.35 461.359L581.35 461.359L581.35 492.959L581.35 492.959L495.55 492.959z" /></clipPath><clipPath id="36"><path clip-rule="evenodd" d="M13.95 490.959L76.75 490.959L76.75 490.959L76.75 525.709L76.75 525.709L13.95 525.709z" /></clipPath><clipPath id="37"><path clip-rule="evenodd" d="M75.25 490.959L497.05 490.959L497.05 490.959L497.05 525.709L497.05 525.709L75.25 525.709z" /></clipPath><clipPath id="38"><path clip-rule="evenodd" d="M495.55 490.959L581.35 490.959L581.35 490.959L581.35 525.709L581.35 525.709L495.55 525.709z" /></clipPath><clipPath id="39"><path clip-rule="evenodd" d="M13.95 523.709L76.75 523.709L76.75 523.709L76.75 558.459L76.75 558.459L13.95 558.459z" /></clipPath><clipPath id="40"><path clip-rule="evenodd" d="M75.25 523.709L497.05 523.709L497.05 523.709L497.05 558.459L497.05 558.459L75.25 558.459z" /></clipPath><clipPath id="41"><path clip-rule="evenodd" d="M495.55 523.709L581.35 523.709L581.35 523.709L581.35 558.459L581.35 558.459L495.55 558.459z" /></clipPath><clipPath id="42"><path clip-rule="evenodd" d="M13.95 556.459L76.75 556.459L76.75 556.459L76.75 591.209L76.75 591.209L13.95 591.209z" /></clipPath><clipPath id="43"><path clip-rule="evenodd" d="M75.25 556.459L497.05 556.459L497.05 556.459L497.05 591.209L497.05 591.209L75.25 591.209z" /></clipPath><clipPath id="44"><path clip-rule="evenodd" d="M495.55 556.459L581.35 556.459L581.35 556.459L581.35 591.209L581.35 591.209L495.55 591.209z" /></clipPath><clipPath id="45"><path clip-rule="evenodd" d="M13.95 589.209L76.75 589.209L76.75 589.209L76.75 623.959L76.75 623.959L13.95 623.959z" /></clipPath><clipPath id="46"><path clip-rule="evenodd" d="M75.25 589.209L497.05 589.209L497.05 589.209L497.05 623.959L497.05 623.959L75.25 623.959z" /></clipPath><clipPath id="47"><path clip-rule="evenodd" d="M495.55 589.209L581.35 589.209L581.35 589.209L581.35 623.959L581.35 623.959L495.55 623.959z" /></clipPath></defs><g transform="matrix(1.333333 0 0 1.333333 0 0)"><g><g clip-path="url(#1)"><path transform="matrix(1 0 0 -1 0 841)" d="M142.9 722.1479L298.9 722.1479" stroke="#000000" stroke-width="0.6000001" fill="none" /><g clip-path="url(#2)"></g><g clip-path="url(#3)"></g><g clip-path="url(#4)"></g><g clip-path="url(#5)"></g><g clip-path="url(#6)"></g><g clip-path="url(#7)"></g><g clip-path="url(#8)"></g><g clip-path="url(#9)"></g><g clip-path="url(#10)"></g><g clip-path="url(#11)"></g><g clip-path="url(#12)"></g><g clip-path="url(#13)"></g><g clip-path="url(#14)"></g><g clip-path="url(#15)"></g><g clip-path="url(#16)"></g><g clip-path="url(#17)"></g><g clip-path="url(#18)"></g><g clip-path="url(#19)"></g><g clip-path="url(#20)"></g><g clip-path="url(#21)"></g><g clip-path="url(#22)"></g><g clip-path="url(#23)"></g><g clip-path="url(#24)"></g><g clip-path="url(#25)"></g><g clip-path="url(#26)"></g><g clip-path="url(#27)"></g><g clip-path="url(#28)"></g><g clip-path="url(#29)"></g><g clip-path="url(#30)"></g><g clip-path="url(#31)"></g><g clip-path="url(#32)"></g><g clip-path="url(#33)"></g><g clip-path="url(#34)"></g><g clip-path="url(#35)"></g><g clip-path="url(#36)"></g><g clip-path="url(#37)"></g><g clip-path="url(#38)"></g><g clip-path="url(#39)"></g><g clip-path="url(#40)"></g><g clip-path="url(#41)"></g><g clip-path="url(#42)"></g><g clip-path="url(#43)"></g><g clip-path="url(#44)"></g><g clip-path="url(#45)"></g><g clip-path="url(#46)"></g><g clip-path="url(#47)"></g><path transform="matrix(1 0 0 -1 0 841)" d="M14.45 711.641L14.45 218.041" stroke="#000000" stroke-width="0.5142857" fill="none" /><path transform="matrix(1 0 0 -1 0 841)" d="M76.25 711.641L76.25 686.641" stroke="#000000" stroke-width="0.5142857" fill="none" /><path transform="matrix(1 0 0 -1 0 841)" d="M76.25 685.641L76.25 660.841" stroke="#000000" stroke-width="0.5142857" fill="none" /><path transform="matrix(1 0 0 -1 0 841)" d="M580.85 711.641L580.85 218.041" stroke="#000000" stroke-width="0.5142857" fill="none" /><path transform="matrix(1 0 0 -1 0 841)" d="M293.8 685.641L293.8 660.841" stroke="#000000" stroke-width="0.5142857" fill="none" /><path transform="matrix(1 0 0 -1 0 841)" d="M543.4 685.641L543.4 660.841" stroke="#000000" stroke-width="0.5142857" fill="none" /><path transform="matrix(1 0 0 -1 0 841)" d="M76.25 634.291L76.25 609.591" stroke="#000000" stroke-width="0.5142857" fill="none" /><path transform="matrix(1 0 0 -1 0 841)" d="M76.25 608.591L76.25 574.391" stroke="#000000" stroke-width="0.5142857" fill="none" /><path transform="matrix(1 0 0 -1 0 841)" d="M76.25 573.391L76.25 542.241" stroke="#000000" stroke-width="0.5142857" fill="none" /><path transform="matrix(1 0 0 -1 0 841)" d="M76.25 541.241L76.25 509.691" stroke="#000000" stroke-width="0.5142857" fill="none" /><path transform="matrix(1 0 0 -1 0 841)" d="M76.25 508.691L76.25 477.491" stroke="#000000" stroke-width="0.5142857" fill="none" /><path transform="matrix(1 0 0 -1 0 841)" d="M76.25 476.491L76.25 446.491" stroke="#000000" stroke-width="0.5142857" fill="none" /><path transform="matrix(1 0 0 -1 0 841)" d="M76.25 445.491L76.25 412.791" stroke="#000000" stroke-width="0.5142857" fill="none" /><path transform="matrix(1 0 0 -1 0 841)" d="M76.25 411.791L76.25 378.641" stroke="#000000" stroke-width="0.5142857" fill="none" /><path transform="matrix(1 0 0 -1 0 841)" d="M76.25 377.641L76.25 349.041" stroke="#000000" stroke-width="0.5142857" fill="none" /><path transform="matrix(1 0 0 -1 0 841)" d="M76.25 348.041L76.25 316.291" stroke="#000000" stroke-width="0.5142857" fill="none" /><path transform="matrix(1 0 0 -1 0 841)" d="M76.25 315.291L76.25 283.541" stroke="#000000" stroke-width="0.5142857" fill="none" /><path transform="matrix(1 0 0 -1 0 841)" d="M76.25 282.541L76.25 250.791" stroke="#000000" stroke-width="0.5142857" fill="none" /><path transform="matrix(1 0 0 -1 0 841)" d="M76.25 249.791L76.25 218.041" stroke="#000000" stroke-width="0.5142857" fill="none" /><path transform="matrix(1 0 0 -1 0 841)" d="M496.55 634.291L496.55 609.591" stroke="#000000" stroke-width="0.5142857" fill="none" /><path transform="matrix(1 0 0 -1 0 841)" d="M496.55 608.591L496.55 574.391" stroke="#000000" stroke-width="0.5142857" fill="none" /><path transform="matrix(1 0 0 -1 0 841)" d="M496.55 573.391L496.55 542.241" stroke="#000000" stroke-width="0.5142857" fill="none" /><path transform="matrix(1 0 0 -1 0 841)" d="M496.55 541.241L496.55 509.691" stroke="#000000" stroke-width="0.5142857" fill="none" /><path transform="matrix(1 0 0 -1 0 841)" d="M496.55 508.691L496.55 477.491" stroke="#000000" stroke-width="0.5142857" fill="none" /><path transform="matrix(1 0 0 -1 0 841)" d="M496.55 476.491L496.55 446.491" stroke="#000000" stroke-width="0.5142857" fill="none" /><path transform="matrix(1 0 0 -1 0 841)" d="M496.55 445.491L496.55 412.791" stroke="#000000" stroke-width="0.5142857" fill="none" /><path transform="matrix(1 0 0 -1 0 841)" d="M496.55 411.791L496.55 378.641" stroke="#000000" stroke-width="0.5142857" fill="none" /><path transform="matrix(1 0 0 -1 0 841)" d="M496.55 377.641L496.55 349.041" stroke="#000000" stroke-width="0.5142857" fill="none" /><path transform="matrix(1 0 0 -1 0 841)" d="M496.55 348.041L496.55 316.291" stroke="#000000" stroke-width="0.5142857" fill="none" /><path transform="matrix(1 0 0 -1 0 841)" d="M496.55 315.291L496.55 283.541" stroke="#000000" stroke-width="0.5142857" fill="none" /><path transform="matrix(1 0 0 -1 0 841)" d="M496.55 282.541L496.55 250.791" stroke="#000000" stroke-width="0.5142857" fill="none" /><path transform="matrix(1 0 0 -1 0 841)" d="M496.55 249.791L496.55 218.041" stroke="#000000" stroke-width="0.5142857" fill="none" /><path transform="matrix(1 0 0 -1 0 841)" d="M13.95 712.141L581.35 712.141" stroke="#000000" stroke-width="0.5142857" fill="none" /><path transform="matrix(1 0 0 -1 0 841)" d="M14.95 686.141L580.35 686.141" stroke="#000000" stroke-width="0.5142857" fill="none" /><path transform="matrix(1 0 0 -1 0 841)" d="M14.95 660.341L580.35 660.341" stroke="#000000" stroke-width="0.5142857" fill="none" /><path transform="matrix(1 0 0 -1 0 841)" d="M14.95 634.791L580.35 634.791" stroke="#000000" stroke-width="0.5142857" fill="none" /><path transform="matrix(1 0 0 -1 0 841)" d="M14.95 609.091L580.35 609.091" stroke="#000000" stroke-width="0.5142857" fill="none" /><path transform="matrix(1 0 0 -1 0 841)" d="M14.95 573.891L580.35 573.891" stroke="#000000" stroke-width="0.5142857" fill="none" /><path transform="matrix(1 0 0 -1 0 841)" d="M14.95 541.741L580.35 541.741" stroke="#000000" stroke-width="0.5142857" fill="none" /><path transform="matrix(1 0 0 -1 0 841)" d="M14.95 509.191L580.35 509.191" stroke="#000000" stroke-width="0.5142857" fill="none" /><path transform="matrix(1 0 0 -1 0 841)" d="M14.95 476.991L580.35 476.991" stroke="#000000" stroke-width="0.5142857" fill="none" /><path transform="matrix(1 0 0 -1 0 841)" d="M14.95 445.991L580.35 445.991" stroke="#000000" stroke-width="0.5142857" fill="none" /><path transform="matrix(1 0 0 -1 0 841)" d="M14.95 412.291L580.35 412.291" stroke="#000000" stroke-width="0.5142857" fill="none" /><path transform="matrix(1 0 0 -1 0 841)" d="M14.95 378.141L580.35 378.141" stroke="#000000" stroke-width="0.5142857" fill="none" /><path transform="matrix(1 0 0 -1 0 841)" d="M14.95 348.541L580.35 348.541" stroke="#000000" stroke-width="0.5142857" fill="none" /><path transform="matrix(1 0 0 -1 0 841)" d="M14.95 315.791L580.35 315.791" stroke="#000000" stroke-width="0.5142857" fill="none" /><path transform="matrix(1 0 0 -1 0 841)" d="M14.95 283.041L580.35 283.041" stroke="#000000" stroke-width="0.5142857" fill="none" /><path transform="matrix(1 0 0 -1 0 841)" d="M14.95 250.291L580.35 250.291" stroke="#000000" stroke-width="0.5142857" fill="none" /><path transform="matrix(1 0 0 -1 0 841)" d="M13.95 217.541L581.35 217.541" stroke="#000000" stroke-width="0.5142857" fill="none" /></g></g></g></svg>