<svg xmlns="http://www.w3.org/2000/svg" xmlns:xlink="http://www.w3.org/1999/xlink" id="body_1" preserveAspectRatio="xMinYMin meet" viewBox="0 0 793 1121"><defs><clipPath id="1"><path clip-rule="evenodd" d="M0 841L0 -0.9000244L0 -0.9000244L595.3 -0.9000244L595.3 -0.9000244L595.3 841L595.3 841L0 841z" /></clipPath><clipPath id="2"><path clip-rule="evenodd" d="M0 41.65002L595.3 41.65002L595.3 41.65002L595.3 51.99902L595.3 51.99902L0 51.99902z" /></clipPath></defs><g transform="matrix(1.333333 0 0 1.333333 0 0)"><g><g clip-path="url(#1)"><g clip-path="url(#2)"></g><g transform="matrix(0.75 0 0 0.75 193.875 90.45001)"><g transform="matrix(1 0 0 1 0 0)"><image x="0" y="0" xlink:href="img_01.png" width="287" height="74" /></g></g><path transform="matrix(1 0 0 -1 0 841)" d="M236 434.454L452.86 434.454" stroke="#000000" stroke-width="0.8" fill="none" /><path transform="matrix(1 0 0 -1 0 841)" d="M236 403.254L461.047 403.254" stroke="#000000" stroke-width="0.8" fill="none" /><path transform="matrix(1 0 0 -1 0 841)" d="M227.672 372.054L455.391 372.054" stroke="#000000" stroke-width="0.8" fill="none" /><path transform="matrix(1 0 0 -1 0 841)" d="M236 340.854L463.297 340.854" stroke="#000000" stroke-width="0.8000001" fill="none" /><path transform="matrix(1 0 0 -1 0 841)" d="M240 309.654L469.735 309.654" stroke="#000000" stroke-width="0.8" fill="none" /><path transform="matrix(1 0 0 -1 0 841)" d="M240 278.454L469.735 278.454" stroke="#000000" stroke-width="0.8" fill="none" /><path transform="matrix(1 0 0 -1 0 841)" d="M236 247.254L446.734 247.254" stroke="#000000" stroke-width="0.8" fill="none" /></g></g></g></svg>