<svg xmlns="http://www.w3.org/2000/svg" xmlns:xlink="http://www.w3.org/1999/xlink" id="body_2" preserveAspectRatio="xMinYMin meet" viewBox="0 0 793 1121"><defs><clipPath id="1"><path clip-rule="evenodd" d="M0 841L0 -0.9000244L0 -0.9000244L595.3 -0.9000244L595.3 -0.9000244L595.3 841L595.3 841L0 841z" /></clipPath><clipPath id="2"><path clip-rule="evenodd" d="M0 781.051L595.3 781.051L595.3 781.051L595.3 791.4L595.3 791.4L0 791.4z" /></clipPath><clipPath id="3"><path clip-rule="evenodd" d="M68.45 118.4L536.8 118.4L536.8 118.4L536.8 756.118L536.8 756.118L68.45 756.118z" /></clipPath><clipPath id="4"><path clip-rule="evenodd" d="M64.89999 118.4L154.55 118.4L154.55 118.4L154.55 143.05L154.55 143.05L64.89999 143.05z" /></clipPath><clipPath id="5"><path clip-rule="evenodd" d="M153.05 118.4L540.35 118.4L540.35 118.4L540.35 143.05L540.35 143.05L153.05 143.05z" /></clipPath><clipPath id="6"><path clip-rule="evenodd" d="M64.89999 141.55L154.55 141.55L154.55 141.55L154.55 184.718L154.55 184.718L64.89999 184.718z" /></clipPath><clipPath id="7"><path clip-rule="evenodd" d="M153.05 141.55L204.15 141.55L204.15 141.55L204.15 184.718L204.15 184.718L153.05 184.718z" /></clipPath><clipPath id="8"><path clip-rule="evenodd" d="M202.65 141.55L267.95 141.55L267.95 141.55L267.95 184.718L267.95 184.718L202.65 184.718z" /></clipPath><clipPath id="9"><path clip-rule="evenodd" d="M266.45 141.55L351.1 141.55L351.1 141.55L351.1 184.718L351.1 184.718L266.45 184.718z" /></clipPath><clipPath id="10"><path clip-rule="evenodd" d="M349.6 141.55L452.25 141.55L452.25 141.55L452.25 184.718L452.25 184.718L349.6 184.718z" /></clipPath><clipPath id="11"><path clip-rule="evenodd" d="M450.75 141.55L540.35 141.55L540.35 141.55L540.35 184.718L540.35 184.718L450.75 184.718z" /></clipPath><clipPath id="12"><path clip-rule="evenodd" d="M64.89999 183.2181L540.35 183.2181L540.35 183.2181L540.35 324.5181L540.35 324.5181L64.89999 324.5181z" /></clipPath><clipPath id="13"><path clip-rule="evenodd" d="M64.89999 323.0181L540.35 323.0181L540.35 323.0181L540.35 463.9681L540.35 463.9681L64.89999 463.9681z" /></clipPath><clipPath id="14"><path clip-rule="evenodd" d="M64.89999 462.468L540.35 462.468L540.35 462.468L540.35 589.618L540.35 589.618L64.89999 589.618z" /></clipPath><clipPath id="15"><path clip-rule="evenodd" d="M64.89999 588.118L540.35 588.118L540.35 588.118L540.35 682.218L540.35 682.218L64.89999 682.218z" /></clipPath><clipPath id="16"><path clip-rule="evenodd" d="M64.89999 680.718L540.35 680.718L540.35 680.718L540.35 756.118L540.35 756.118L64.89999 756.118z" /></clipPath><clipPath id="17"><path clip-rule="evenodd" d="M68.45 118.4L536.8 118.4L536.8 118.4L536.8 756.118L536.8 756.118L68.45 756.118z" /></clipPath></defs><g transform="matrix(1.333333 0 0 1.333333 0 0)"><g><g clip-path="url(#1)"><g clip-path="url(#2)"></g><g clip-path="url(#3)"></g><g clip-path="url(#4)"></g><g clip-path="url(#5)"></g><g clip-path="url(#6)"></g><g clip-path="url(#7)"></g><g clip-path="url(#8)"></g><g clip-path="url(#9)"></g><g clip-path="url(#10)"></g><g clip-path="url(#11)"></g><g clip-path="url(#12)"></g><g clip-path="url(#13)"></g><g clip-path="url(#14)"></g><g clip-path="url(#15)"></g><g clip-path="url(#16)"></g><path transform="matrix(1 0 0 -1 0 841)" d="M153.8 721.6L153.8 698.95" stroke="#000000" stroke-width="0.5" fill="none" /><path transform="matrix(1 0 0 -1 0 841)" d="M153.8 698.45L153.8 657.282" stroke="#000000" stroke-width="0.5" fill="none" /><path transform="matrix(1 0 0 -1 0 841)" d="M203.4 698.45L203.4 657.282" stroke="#000000" stroke-width="0.5" fill="none" /><path transform="matrix(1 0 0 -1 0 841)" d="M267.2 698.45L267.2 657.282" stroke="#000000" stroke-width="0.5" fill="none" /><path transform="matrix(1 0 0 -1 0 841)" d="M350.35 698.45L350.35 657.282" stroke="#000000" stroke-width="0.5" fill="none" /><path transform="matrix(1 0 0 -1 0 841)" d="M451.5 698.45L451.5 657.282" stroke="#000000" stroke-width="0.5" fill="none" /><path transform="matrix(1 0 0 -1 0 841)" d="M65.89999 698.7L539.35 698.7" stroke="#000000" stroke-width="0.5" fill="none" /><path transform="matrix(1 0 0 -1 0 841)" d="M65.89999 657.032L539.35 657.032" stroke="#000000" stroke-width="0.5" fill="none" /><path transform="matrix(1 0 0 -1 0 841)" d="M65.89999 517.2319L539.35 517.2319" stroke="#000000" stroke-width="0.5" fill="none" /><path transform="matrix(1 0 0 -1 0 841)" d="M65.89999 377.782L539.35 377.782" stroke="#000000" stroke-width="0.5" fill="none" /><path transform="matrix(1 0 0 -1 0 841)" d="M65.89999 252.132L539.35 252.132" stroke="#000000" stroke-width="0.5" fill="none" /><path transform="matrix(1 0 0 -1 0 841)" d="M65.89999 159.532L539.35 159.532" stroke="#000000" stroke-width="0.5" fill="none" /><g clip-path="url(#17)"></g><path transform="matrix(1 0 0 -1 0 841)" d="M68.7 721.6L68.7 85.88196" stroke="#000000" stroke-width="1.5" fill="none" /><path transform="matrix(1 0 0 -1 0 841)" d="M536.55 721.6L536.55 85.88196" stroke="#000000" stroke-width="1.5" fill="none" /><path transform="matrix(1 0 0 -1 0 841)" d="M67.95 722.35L537.3 722.35" stroke="#000000" stroke-width="1.5" fill="none" /><path transform="matrix(1 0 0 -1 0 841)" d="M67.95 85.13196L537.3 85.13196" stroke="#000000" stroke-width="1.5" fill="none" /></g></g></g></svg>