<svg xmlns="http://www.w3.org/2000/svg" xmlns:xlink="http://www.w3.org/1999/xlink" id="body_3" preserveAspectRatio="xMinYMin meet" viewBox="0 0 793 1121"><defs><clipPath id="1"><path clip-rule="evenodd" d="M0 841L0 -0.9000244L0 -0.9000244L595.3 -0.9000244L595.3 -0.9000244L595.3 841L595.3 841L0 841z" /></clipPath><clipPath id="2"><path clip-rule="evenodd" d="M84.35 71.59998L549.15 71.59998L549.15 71.59998L549.15 248.536L549.15 248.536L84.35 248.536z" /></clipPath><clipPath id="3"><path clip-rule="evenodd" d="M83.6 72.09998L549.9 72.09998L549.9 72.09998L549.9 165.7L549.9 165.7L83.6 165.7z" /></clipPath><clipPath id="4"><path clip-rule="evenodd" d="M83.6 164.2L549.9 164.2L549.9 164.2L549.9 248.536L549.9 248.536L83.6 248.536z" /></clipPath><clipPath id="5"><path clip-rule="evenodd" d="M84.35 71.59998L549.15 71.59998L549.15 71.59998L549.15 248.536L549.15 248.536L84.35 248.536z" /></clipPath></defs><g transform="matrix(1.333333 0 0 1.333333 0 0)"><g><g clip-path="url(#1)"><g clip-path="url(#2)"></g><g clip-path="url(#3)"></g><g clip-path="url(#4)"></g><path transform="matrix(1 0 0 -1 0 841)" d="M84.6 676.05L548.9 676.05" stroke="#000000" stroke-width="0.5" fill="none" /><g clip-path="url(#5)"></g><path transform="matrix(1 0 0 -1 0 841)" d="M84.6 768.4L84.6 593.464" stroke="#000000" stroke-width="1.5" fill="none" /><path transform="matrix(1 0 0 -1 0 841)" d="M548.9 768.4L548.9 593.464" stroke="#000000" stroke-width="1.5" fill="none" /><path transform="matrix(1 0 0 -1 0 841)" d="M83.85 769.15L549.65 769.15" stroke="#000000" stroke-width="1.5" fill="none" /><path transform="matrix(1 0 0 -1 0 841)" d="M83.85 592.714L549.65 592.714" stroke="#000000" stroke-width="1.5" fill="none" /></g></g></g></svg>