<svg xmlns="http://www.w3.org/2000/svg" xmlns:xlink="http://www.w3.org/1999/xlink" id="body_1" preserveAspectRatio="xMinYMin meet" viewBox="0 0 793 1121"><defs><clipPath id="1"><path clip-rule="evenodd" d="M0 841L0 -0.9000244L0 -0.9000244L595.3 -0.9000244L595.3 -0.9000244L595.3 841L595.3 841L0 841z" /></clipPath><clipPath id="2"><path clip-rule="evenodd" d="M0 41.65002L595.3 41.65002L595.3 41.65002L595.3 53.74902L595.3 53.74902L0 53.74902z" /></clipPath><clipPath id="3"><path clip-rule="evenodd" d="M0 781.051L595.3 781.051L595.3 781.051L595.3 791.4L595.3 791.4L0 791.4z" /></clipPath></defs><g transform="matrix(1.333333 0 0 1.333333 0 0)"><g><g clip-path="url(#1)"><g clip-path="url(#2)"><path transform="matrix(1 0 0 -1 0 841)" d="M70.55 787.626L532.45 787.626" stroke="#000000" stroke-width="0.75" fill="none" /></g><g clip-path="url(#3)"></g><g transform="matrix(0.75 0 0 0.75 193.875 152.85)"><g transform="matrix(1 0 0 1 0 0)"><image x="0" y="0" xlink:href="img_01.png" width="287" height="74" /></g></g><path transform="matrix(1 0 0 -1 0 841)" d="M268 387.654L470.657 387.654" stroke="#000000" stroke-width="0.8" fill="none" /><path transform="matrix(1 0 0 -1 0 841)" d="M268 356.454L467.813 356.454" stroke="#000000" stroke-width="0.8000001" fill="none" /><path transform="matrix(1 0 0 -1 0 841)" d="M255.898 325.254L464.539 325.254" stroke="#000000" stroke-width="0.8000001" fill="none" /><path transform="matrix(1 0 0 -1 0 841)" d="M268.96 294.164L467.006 294.164" stroke="#000000" stroke-width="0.76" fill="none" /><path transform="matrix(1 0 0 -1 0 841)" d="M268.5 260.7876L469.937 260.7876" stroke="#000000" stroke-width="0.7583334" fill="none" /><path transform="matrix(1 0 0 -1 0 841)" d="M268.5 229.5876L469.937 229.5876" stroke="#000000" stroke-width="0.7583334" fill="none" /><path transform="matrix(1 0 0 -1 0 841)" d="M268.96 200.454L467.851 200.454" stroke="#000000" stroke-width="0.8" fill="none" /><path transform="matrix(1 0 0 -1 0 841)" d="M268.96 169.254L460.616 169.254" stroke="#000000" stroke-width="0.8000001" fill="none" /></g></g></g></svg>