<svg xmlns="http://www.w3.org/2000/svg" xmlns:xlink="http://www.w3.org/1999/xlink" id="body_2" preserveAspectRatio="xMinYMin meet" viewBox="0 0 793 1121"><defs><clipPath id="1"><path clip-rule="evenodd" d="M0 841L0 -0.9000244L0 -0.9000244L595.3 -0.9000244L595.3 -0.9000244L595.3 841L595.3 841L0 841z" /></clipPath><clipPath id="2"><path clip-rule="evenodd" d="M84.35 118.4L549.15 118.4L549.15 118.4L549.15 755.56L549.15 755.56L84.35 755.56z" /></clipPath><clipPath id="3"><path clip-rule="evenodd" d="M83.6 118.4L152.45 118.4L152.45 118.4L152.45 143.05L152.45 143.05L83.6 143.05z" /></clipPath><clipPath id="4"><path clip-rule="evenodd" d="M150.95 118.4L549.9 118.4L549.9 118.4L549.9 143.05L549.9 143.05L150.95 143.05z" /></clipPath><clipPath id="5"><path clip-rule="evenodd" d="M83.6 141.55L152.45 141.55L152.45 141.55L152.45 184.718L152.45 184.718L83.6 184.718z" /></clipPath><clipPath id="6"><path clip-rule="evenodd" d="M150.95 141.55L214.25 141.55L214.25 141.55L214.25 184.718L214.25 184.718L150.95 184.718z" /></clipPath><clipPath id="7"><path clip-rule="evenodd" d="M212.75 141.55L276.05 141.55L276.05 141.55L276.05 184.718L276.05 184.718L212.75 184.718z" /></clipPath><clipPath id="8"><path clip-rule="evenodd" d="M274.55 141.55L364.35 141.55L364.35 141.55L364.35 184.718L364.35 184.718L274.55 184.718z" /></clipPath><clipPath id="9"><path clip-rule="evenodd" d="M362.85 141.55L452.6 141.55L452.6 141.55L452.6 184.718L452.6 184.718L362.85 184.718z" /></clipPath><clipPath id="10"><path clip-rule="evenodd" d="M451.1 141.55L549.9 141.55L549.9 141.55L549.9 184.718L549.9 184.718L451.1 184.718z" /></clipPath><clipPath id="11"><path clip-rule="evenodd" d="M83.6 183.2181L549.9 183.2181L549.9 183.2181L549.9 347.5181L549.9 347.5181L83.6 347.5181z" /></clipPath><clipPath id="12"><path clip-rule="evenodd" d="M83.6 346.018L549.9 346.018L549.9 346.018L549.9 486.968L549.9 486.968L83.6 486.968z" /></clipPath><clipPath id="13"><path clip-rule="evenodd" d="M83.6 485.468L549.9 485.468L549.9 485.468L549.9 693.308L549.9 693.308L83.6 693.308z" /></clipPath><clipPath id="14"><path clip-rule="evenodd" d="M83.6 691.808L549.9 691.808L549.9 691.808L549.9 755.5601L549.9 755.5601L83.6 755.5601z" /></clipPath><clipPath id="15"><path clip-rule="evenodd" d="M84.35 118.4L549.15 118.4L549.15 118.4L549.15 755.56L549.15 755.56L84.35 755.56z" /></clipPath></defs><g transform="matrix(1.333333 0 0 1.333333 0 0)"><g><g clip-path="url(#1)"><g clip-path="url(#2)"></g><g clip-path="url(#3)"></g><g clip-path="url(#4)"></g><g clip-path="url(#5)"></g><g clip-path="url(#6)"></g><g clip-path="url(#7)"></g><g clip-path="url(#8)"></g><g clip-path="url(#9)"></g><g clip-path="url(#10)"></g><g clip-path="url(#11)"></g><g clip-path="url(#12)"></g><g clip-path="url(#13)"></g><g clip-path="url(#14)"></g><path transform="matrix(1 0 0 -1 0 841)" d="M151.7 721.6L151.7 698.95" stroke="#000000" stroke-width="0.5" fill="none" /><path transform="matrix(1 0 0 -1 0 841)" d="M151.7 698.45L151.7 657.282" stroke="#000000" stroke-width="0.5" fill="none" /><path transform="matrix(1 0 0 -1 0 841)" d="M213.5 698.45L213.5 657.282" stroke="#000000" stroke-width="0.5" fill="none" /><path transform="matrix(1 0 0 -1 0 841)" d="M275.3 698.45L275.3 657.282" stroke="#000000" stroke-width="0.5" fill="none" /><path transform="matrix(1 0 0 -1 0 841)" d="M363.6 698.45L363.6 657.282" stroke="#000000" stroke-width="0.5" fill="none" /><path transform="matrix(1 0 0 -1 0 841)" d="M451.85 698.45L451.85 657.282" stroke="#000000" stroke-width="0.5" fill="none" /><path transform="matrix(1 0 0 -1 0 841)" d="M84.6 698.7L548.9 698.7" stroke="#000000" stroke-width="0.5" fill="none" /><path transform="matrix(1 0 0 -1 0 841)" d="M84.6 657.032L548.9 657.032" stroke="#000000" stroke-width="0.5" fill="none" /><path transform="matrix(1 0 0 -1 0 841)" d="M84.6 494.232L548.9 494.232" stroke="#000000" stroke-width="0.5" fill="none" /><path transform="matrix(1 0 0 -1 0 841)" d="M84.6 354.782L548.9 354.782" stroke="#000000" stroke-width="0.5" fill="none" /><path transform="matrix(1 0 0 -1 0 841)" d="M84.6 148.442L548.9 148.442" stroke="#000000" stroke-width="0.5" fill="none" /><g clip-path="url(#15)"></g><path transform="matrix(1 0 0 -1 0 841)" d="M84.6 721.6L84.6 86.44" stroke="#000000" stroke-width="1.5" fill="none" /><path transform="matrix(1 0 0 -1 0 841)" d="M548.9 721.6L548.9 86.44" stroke="#000000" stroke-width="1.5" fill="none" /><path transform="matrix(1 0 0 -1 0 841)" d="M83.85 722.35L549.65 722.35" stroke="#000000" stroke-width="1.5" fill="none" /><path transform="matrix(1 0 0 -1 0 841)" d="M83.85 85.69L549.65 85.69" stroke="#000000" stroke-width="1.5" fill="none" /></g></g></g></svg>