<svg xmlns="http://www.w3.org/2000/svg" xmlns:xlink="http://www.w3.org/1999/xlink" id="body_1" preserveAspectRatio="xMinYMin meet" viewBox="0 0 793 1121"><defs><clipPath id="1"><path clip-rule="evenodd" d="M0 841L0 -0.9000244L0 -0.9000244L595.3 -0.9000244L595.3 -0.9000244L595.3 841L595.3 841L0 841z" /></clipPath><clipPath id="2"><path clip-rule="evenodd" d="M83.85 442.856L116.05 442.856L116.05 442.856L116.05 484.856L116.05 484.856L83.85 484.856z" /></clipPath><clipPath id="3"><path clip-rule="evenodd" d="M114.55 442.856L207.75 442.856L207.75 442.856L207.75 484.856L207.75 484.856L114.55 484.856z" /></clipPath><clipPath id="4"><path clip-rule="evenodd" d="M206.25 442.856L241.85 442.856L241.85 442.856L241.85 484.856L241.85 484.856L206.25 484.856z" /></clipPath><clipPath id="5"><path clip-rule="evenodd" d="M240.35 442.856L277.1 442.856L277.1 442.856L277.1 484.856L277.1 484.856L240.35 484.856z" /></clipPath><clipPath id="6"><path clip-rule="evenodd" d="M275.6 442.856L344.4 442.856L344.4 442.856L344.4 484.856L344.4 484.856L275.6 484.856z" /></clipPath><clipPath id="7"><path clip-rule="evenodd" d="M342.9 442.856L520.2 442.856L520.2 442.856L520.2 484.856L520.2 484.856L342.9 484.856z" /></clipPath><clipPath id="8"><path clip-rule="evenodd" d="M83.85 483.356L116.05 483.356L116.05 483.356L116.05 532.406L116.05 532.406L83.85 532.406z" /></clipPath><clipPath id="9"><path clip-rule="evenodd" d="M114.55 483.356L207.75 483.356L207.75 483.356L207.75 532.406L207.75 532.406L114.55 532.406z" /></clipPath><clipPath id="10"><path clip-rule="evenodd" d="M206.25 483.356L241.85 483.356L241.85 483.356L241.85 532.406L241.85 532.406L206.25 532.406z" /></clipPath><clipPath id="11"><path clip-rule="evenodd" d="M240.35 483.356L277.1 483.356L277.1 483.356L277.1 532.406L277.1 532.406L240.35 532.406z" /></clipPath><clipPath id="12"><path clip-rule="evenodd" d="M275.6 483.356L344.4 483.356L344.4 483.356L344.4 532.406L344.4 532.406L275.6 532.406z" /></clipPath><clipPath id="13"><path clip-rule="evenodd" d="M342.9 483.356L520.2 483.356L520.2 483.356L520.2 532.406L520.2 532.406L342.9 532.406z" /></clipPath><clipPath id="14"><path clip-rule="evenodd" d="M83.85 530.906L116.05 530.906L116.05 530.906L116.05 579.006L116.05 579.006L83.85 579.006z" /></clipPath><clipPath id="15"><path clip-rule="evenodd" d="M114.55 530.906L207.75 530.906L207.75 530.906L207.75 579.006L207.75 579.006L114.55 579.006z" /></clipPath><clipPath id="16"><path clip-rule="evenodd" d="M206.25 530.906L241.85 530.906L241.85 530.906L241.85 579.006L241.85 579.006L206.25 579.006z" /></clipPath><clipPath id="17"><path clip-rule="evenodd" d="M240.35 530.906L277.1 530.906L277.1 530.906L277.1 579.006L277.1 579.006L240.35 579.006z" /></clipPath><clipPath id="18"><path clip-rule="evenodd" d="M275.6 530.906L344.4 530.906L344.4 530.906L344.4 579.006L344.4 579.006L275.6 579.006z" /></clipPath><clipPath id="19"><path clip-rule="evenodd" d="M342.9 530.906L520.2 530.906L520.2 530.906L520.2 579.006L520.2 579.006L342.9 579.006z" /></clipPath><clipPath id="20"><path clip-rule="evenodd" d="M83.85 577.506L116.05 577.506L116.05 577.506L116.05 633.506L116.05 633.506L83.85 633.506z" /></clipPath><clipPath id="21"><path clip-rule="evenodd" d="M114.55 577.506L207.75 577.506L207.75 577.506L207.75 633.506L207.75 633.506L114.55 633.506z" /></clipPath><clipPath id="22"><path clip-rule="evenodd" d="M206.25 577.506L241.85 577.506L241.85 577.506L241.85 633.506L241.85 633.506L206.25 633.506z" /></clipPath><clipPath id="23"><path clip-rule="evenodd" d="M240.35 577.506L277.1 577.506L277.1 577.506L277.1 633.506L277.1 633.506L240.35 633.506z" /></clipPath><clipPath id="24"><path clip-rule="evenodd" d="M275.6 577.506L344.4 577.506L344.4 577.506L344.4 633.506L344.4 633.506L275.6 633.506z" /></clipPath><clipPath id="25"><path clip-rule="evenodd" d="M342.9 577.506L520.2 577.506L520.2 577.506L520.2 633.506L520.2 633.506L342.9 633.506z" /></clipPath><clipPath id="26"><path clip-rule="evenodd" d="M83.85 632.006L116.05 632.006L116.05 632.006L116.05 688.006L116.05 688.006L83.85 688.006z" /></clipPath><clipPath id="27"><path clip-rule="evenodd" d="M114.55 632.006L207.75 632.006L207.75 632.006L207.75 688.006L207.75 688.006L114.55 688.006z" /></clipPath><clipPath id="28"><path clip-rule="evenodd" d="M206.25 632.006L241.85 632.006L241.85 632.006L241.85 688.006L241.85 688.006L206.25 688.006z" /></clipPath><clipPath id="29"><path clip-rule="evenodd" d="M240.35 632.006L277.1 632.006L277.1 632.006L277.1 688.006L277.1 688.006L240.35 688.006z" /></clipPath><clipPath id="30"><path clip-rule="evenodd" d="M275.6 632.006L344.4 632.006L344.4 632.006L344.4 688.006L344.4 688.006L275.6 688.006z" /></clipPath><clipPath id="31"><path clip-rule="evenodd" d="M342.9 632.006L520.2 632.006L520.2 632.006L520.2 688.006L520.2 688.006L342.9 688.006z" /></clipPath></defs><g transform="matrix(1.333333 0 0 1.333333 0 0)"><g><g clip-path="url(#1)"><g clip-path="url(#2)"></g><g clip-path="url(#3)"></g><g clip-path="url(#4)"></g><g clip-path="url(#5)"></g><g clip-path="url(#6)"></g><g clip-path="url(#7)"></g><g clip-path="url(#8)"></g><g clip-path="url(#9)"></g><g clip-path="url(#10)"></g><g clip-path="url(#11)"></g><g clip-path="url(#12)"></g><g clip-path="url(#13)"></g><g clip-path="url(#14)"></g><g clip-path="url(#15)"></g><g clip-path="url(#16)"></g><g clip-path="url(#17)"></g><g clip-path="url(#18)"></g><g clip-path="url(#19)"></g><g clip-path="url(#20)"></g><g clip-path="url(#21)"></g><g clip-path="url(#22)"></g><g clip-path="url(#23)"></g><g clip-path="url(#24)"></g><g clip-path="url(#25)"></g><g clip-path="url(#26)"></g><g clip-path="url(#27)"></g><g clip-path="url(#28)"></g><g clip-path="url(#29)"></g><g clip-path="url(#30)"></g><g clip-path="url(#31)"></g><path transform="matrix(1 0 0 -1 0 841)" d="M84.6 397.144L84.6 153.994" stroke="#000000" stroke-width="0.5" fill="none" /><path transform="matrix(1 0 0 -1 0 841)" d="M115.3 397.144L115.3 357.144" stroke="#000000" stroke-width="0.5" fill="none" /><path transform="matrix(1 0 0 -1 0 841)" d="M115.3 356.644L115.3 309.594" stroke="#000000" stroke-width="0.5" fill="none" /><path transform="matrix(1 0 0 -1 0 841)" d="M115.3 309.094L115.3 262.994" stroke="#000000" stroke-width="0.5" fill="none" /><path transform="matrix(1 0 0 -1 0 841)" d="M115.3 262.494L115.3 208.494" stroke="#000000" stroke-width="0.5" fill="none" /><path transform="matrix(1 0 0 -1 0 841)" d="M115.3 207.994L115.3 153.994" stroke="#000000" stroke-width="0.5" fill="none" /><path transform="matrix(1 0 0 -1 0 841)" d="M207 397.144L207 357.144" stroke="#000000" stroke-width="0.5" fill="none" /><path transform="matrix(1 0 0 -1 0 841)" d="M207 356.644L207 309.594" stroke="#000000" stroke-width="0.5" fill="none" /><path transform="matrix(1 0 0 -1 0 841)" d="M207 309.094L207 262.994" stroke="#000000" stroke-width="0.5" fill="none" /><path transform="matrix(1 0 0 -1 0 841)" d="M207 262.494L207 208.494" stroke="#000000" stroke-width="0.5" fill="none" /><path transform="matrix(1 0 0 -1 0 841)" d="M207 207.994L207 153.994" stroke="#000000" stroke-width="0.5" fill="none" /><path transform="matrix(1 0 0 -1 0 841)" d="M241.1 397.144L241.1 357.144" stroke="#000000" stroke-width="0.5" fill="none" /><path transform="matrix(1 0 0 -1 0 841)" d="M241.1 356.644L241.1 309.594" stroke="#000000" stroke-width="0.5" fill="none" /><path transform="matrix(1 0 0 -1 0 841)" d="M241.1 309.094L241.1 262.994" stroke="#000000" stroke-width="0.5" fill="none" /><path transform="matrix(1 0 0 -1 0 841)" d="M241.1 262.494L241.1 208.494" stroke="#000000" stroke-width="0.5" fill="none" /><path transform="matrix(1 0 0 -1 0 841)" d="M241.1 207.994L241.1 153.994" stroke="#000000" stroke-width="0.5" fill="none" /><path transform="matrix(1 0 0 -1 0 841)" d="M276.35 397.144L276.35 357.144" stroke="#000000" stroke-width="0.5" fill="none" /><path transform="matrix(1 0 0 -1 0 841)" d="M276.35 356.644L276.35 309.594" stroke="#000000" stroke-width="0.5" fill="none" /><path transform="matrix(1 0 0 -1 0 841)" d="M276.35 309.094L276.35 262.994" stroke="#000000" stroke-width="0.5" fill="none" /><path transform="matrix(1 0 0 -1 0 841)" d="M276.35 262.494L276.35 208.494" stroke="#000000" stroke-width="0.5" fill="none" /><path transform="matrix(1 0 0 -1 0 841)" d="M276.35 207.994L276.35 153.994" stroke="#000000" stroke-width="0.5" fill="none" /><path transform="matrix(1 0 0 -1 0 841)" d="M343.65 397.144L343.65 357.144" stroke="#000000" stroke-width="0.5" fill="none" /><path transform="matrix(1 0 0 -1 0 841)" d="M343.65 356.644L343.65 309.594" stroke="#000000" stroke-width="0.5" fill="none" /><path transform="matrix(1 0 0 -1 0 841)" d="M343.65 309.094L343.65 262.994" stroke="#000000" stroke-width="0.5" fill="none" /><path transform="matrix(1 0 0 -1 0 841)" d="M343.65 262.494L343.65 208.494" stroke="#000000" stroke-width="0.5" fill="none" /><path transform="matrix(1 0 0 -1 0 841)" d="M343.65 207.994L343.65 153.994" stroke="#000000" stroke-width="0.5" fill="none" /><path transform="matrix(1 0 0 -1 0 841)" d="M519.45 397.144L519.45 153.994" stroke="#000000" stroke-width="0.5" fill="none" /><path transform="matrix(1 0 0 -1 0 841)" d="M84.35 397.394L519.7 397.394" stroke="#000000" stroke-width="0.5" fill="none" /><path transform="matrix(1 0 0 -1 0 841)" d="M84.85 356.894L519.2 356.894" stroke="#000000" stroke-width="0.5" fill="none" /><path transform="matrix(1 0 0 -1 0 841)" d="M84.85 309.344L519.2 309.344" stroke="#000000" stroke-width="0.5" fill="none" /><path transform="matrix(1 0 0 -1 0 841)" d="M84.85 262.744L519.2 262.744" stroke="#000000" stroke-width="0.5" fill="none" /><path transform="matrix(1 0 0 -1 0 841)" d="M84.85 208.244L519.2 208.244" stroke="#000000" stroke-width="0.5" fill="none" /><path transform="matrix(1 0 0 -1 0 841)" d="M84.35 153.744L519.7 153.744" stroke="#000000" stroke-width="0.5" fill="none" /></g></g></g></svg>