<svg xmlns="http://www.w3.org/2000/svg" xmlns:xlink="http://www.w3.org/1999/xlink" id="body_1" preserveAspectRatio="xMinYMin meet" viewBox="0 0 793 1121"><defs><clipPath id="1"><path clip-rule="evenodd" d="M0 841L0 -0.9000244L0 -0.9000244L595.3 -0.9000244L595.3 -0.9000244L595.3 841L595.3 841L0 841z" /></clipPath><clipPath id="2"><path clip-rule="evenodd" d="M198.076 73.18799L421.2226 73.18799L421.2226 73.18799L421.2226 131.411L421.2226 131.411L198.076 131.411z" /></clipPath><clipPath id="3"><path clip-rule="evenodd" d="M198.4804 73.6308L420.8112 73.6308L420.8112 73.6308L420.8112 130.9683L420.8112 130.9683L198.4804 130.9683z" /></clipPath></defs><g transform="matrix(1.333333 0 0 1.333333 0 0)"><g><g clip-path="url(#1)"><g clip-path="url(#2)"><g clip-path="url(#3)"><g transform="matrix(0.3274384 0 0 0.3276425 198.4804 73.6308)"><g transform="matrix(1 0 0 1 0 0)"><image x="0" y="0" xlink:href="img_01.png" width="679" height="175" /></g></g></g></g><path transform="matrix(1 0 0 -1 0 841)" d="M233 465.954L449.86 465.954" stroke="#000000" stroke-width="0.8" fill="none" /><path transform="matrix(1 0 0 -1 0 841)" d="M233 434.754L467.891 434.754" stroke="#000000" stroke-width="0.8" fill="none" /><path transform="matrix(1 0 0 -1 0 841)" d="M224.672 403.554L454.829 403.554" stroke="#000000" stroke-width="0.8" fill="none" /><path transform="matrix(1 0 0 -1 0 841)" d="M224.672 372.354L456.844 372.354" stroke="#000000" stroke-width="0.8" fill="none" /><path transform="matrix(1 0 0 -1 0 841)" d="M237 341.154L473.907 341.154" stroke="#000000" stroke-width="0.8" fill="none" /><path transform="matrix(1 0 0 -1 0 841)" d="M237 309.954L467.375 309.954" stroke="#000000" stroke-width="0.8" fill="none" /><path transform="matrix(1 0 0 -1 0 841)" d="M237 278.754L467.375 278.754" stroke="#000000" stroke-width="0.8" fill="none" /><path transform="matrix(1 0 0 -1 0 841)" d="M237 247.554L473.906 247.554" stroke="#000000" stroke-width="0.8" fill="none" /><path transform="matrix(1 0 0 -1 0 841)" d="M237 216.354L473.906 216.354" stroke="#000000" stroke-width="0.8" fill="none" /><path transform="matrix(1 0 0 -1 0 841)" d="M233 185.1541L459.094 185.1541" stroke="#000000" stroke-width="0.8" fill="none" /><path transform="matrix(1 0 0 -1 0 841)" d="M233 153.954L450.906 153.954" stroke="#000000" stroke-width="0.8000001" fill="none" /></g></g></g></svg>