<svg xmlns="http://www.w3.org/2000/svg" xmlns:xlink="http://www.w3.org/1999/xlink" id="body_2" preserveAspectRatio="xMinYMin meet" viewBox="0 0 793 1121"><defs><clipPath id="1"><path clip-rule="evenodd" d="M0 841L0 -0.9000244L0 -0.9000244L595.3 -0.9000244L595.3 -0.9000244L595.3 841L595.3 841L0 841z" /></clipPath><clipPath id="2"><path clip-rule="evenodd" d="M84.35 118.4L550.95 118.4L550.95 118.4L550.95 764.716L550.95 764.716L84.35 764.716z" /></clipPath><clipPath id="3"><path clip-rule="evenodd" d="M79.925 118.4L150.075 118.4L150.075 118.4L150.075 143.05L150.075 143.05L79.925 143.05z" /></clipPath><clipPath id="4"><path clip-rule="evenodd" d="M148.575 118.4L555.375 118.4L555.375 118.4L555.375 143.05L555.375 143.05L148.575 143.05z" /></clipPath><clipPath id="5"><path clip-rule="evenodd" d="M79.925 141.55L150.075 141.55L150.075 141.55L150.075 267.0541L150.075 267.0541L79.925 267.0541z" /></clipPath><clipPath id="6"><path clip-rule="evenodd" d="M148.575 141.55L213.075 141.55L213.075 141.55L213.075 267.0541L213.075 267.0541L148.575 267.0541z" /></clipPath><clipPath id="7"><path clip-rule="evenodd" d="M211.575 141.55L276.075 141.55L276.075 141.55L276.075 267.0541L276.075 267.0541L211.575 267.0541z" /></clipPath><clipPath id="8"><path clip-rule="evenodd" d="M274.575 141.55L366.125 141.55L366.125 141.55L366.125 267.0541L366.125 267.0541L274.575 267.0541z" /></clipPath><clipPath id="9"><path clip-rule="evenodd" d="M364.625 141.55L456.125 141.55L456.125 141.55L456.125 267.0541L456.125 267.0541L364.625 267.0541z" /></clipPath><clipPath id="10"><path clip-rule="evenodd" d="M454.625 141.55L555.375 141.55L555.375 141.55L555.375 267.0541L555.375 267.0541L454.625 267.0541z" /></clipPath><clipPath id="11"><path clip-rule="evenodd" d="M79.925 265.5541L555.375 265.5541L555.375 265.5541L555.375 349.8901L555.375 349.8901L79.925 349.8901z" /></clipPath><clipPath id="12"><path clip-rule="evenodd" d="M79.925 348.39L555.375 348.39L555.375 348.39L555.375 617.9821L555.375 617.9821L79.925 617.9821z" /></clipPath><clipPath id="13"><path clip-rule="evenodd" d="M79.925 616.4821L555.375 616.4821L555.375 616.4821L555.375 743.632L555.375 743.632L79.925 743.632z" /></clipPath><clipPath id="14"><path clip-rule="evenodd" d="M79.925 742.132L555.375 742.132L555.375 742.132L555.375 764.716L555.375 764.716L79.925 764.716z" /></clipPath><clipPath id="15"><path clip-rule="evenodd" d="M84.35 118.4L550.95 118.4L550.95 118.4L550.95 764.716L550.95 764.716L84.35 764.716z" /></clipPath></defs><g transform="matrix(1.333333 0 0 1.333333 0 0)"><g><g clip-path="url(#1)"><g clip-path="url(#2)"></g><g clip-path="url(#3)"></g><g clip-path="url(#4)"></g><g clip-path="url(#5)"></g><g clip-path="url(#6)"></g><g clip-path="url(#7)"></g><g clip-path="url(#8)"></g><g clip-path="url(#9)"></g><g clip-path="url(#10)"></g><g clip-path="url(#11)"></g><g clip-path="url(#12)"></g><g clip-path="url(#13)"></g><g clip-path="url(#14)"></g><path transform="matrix(1 0 0 -1 0 841)" d="M149.325 721.6L149.325 698.95" stroke="#000000" stroke-width="0.5" fill="none" /><path transform="matrix(1 0 0 -1 0 841)" d="M149.325 698.45L149.325 574.946" stroke="#000000" stroke-width="0.5" fill="none" /><path transform="matrix(1 0 0 -1 0 841)" d="M212.325 698.45L212.325 574.946" stroke="#000000" stroke-width="0.5" fill="none" /><path transform="matrix(1 0 0 -1 0 841)" d="M275.325 698.45L275.325 574.946" stroke="#000000" stroke-width="0.5" fill="none" /><path transform="matrix(1 0 0 -1 0 841)" d="M365.375 698.45L365.375 574.946" stroke="#000000" stroke-width="0.5" fill="none" /><path transform="matrix(1 0 0 -1 0 841)" d="M455.375 698.45L455.375 574.946" stroke="#000000" stroke-width="0.5" fill="none" /><path transform="matrix(1 0 0 -1 0 841)" d="M80.925 698.7L554.375 698.7" stroke="#000000" stroke-width="0.5" fill="none" /><path transform="matrix(1 0 0 -1 0 841)" d="M80.925 574.696L554.375 574.696" stroke="#000000" stroke-width="0.5" fill="none" /><path transform="matrix(1 0 0 -1 0 841)" d="M80.925 491.86L554.375 491.86" stroke="#000000" stroke-width="0.5" fill="none" /><path transform="matrix(1 0 0 -1 0 841)" d="M80.925 223.768L554.375 223.768" stroke="#000000" stroke-width="0.5" fill="none" /><path transform="matrix(1 0 0 -1 0 841)" d="M80.925 98.11798L554.375 98.11798" stroke="#000000" stroke-width="0.5" fill="none" /><g clip-path="url(#15)"></g><path transform="matrix(1 0 0 -1 0 841)" d="M84.6 721.6L84.6 77.284" stroke="#000000" stroke-width="1.5" fill="none" /><path transform="matrix(1 0 0 -1 0 841)" d="M550.7 721.6L550.7 77.284" stroke="#000000" stroke-width="1.5" fill="none" /><path transform="matrix(1 0 0 -1 0 841)" d="M83.85 722.35L551.45 722.35" stroke="#000000" stroke-width="1.5" fill="none" /><path transform="matrix(1 0 0 -1 0 841)" d="M83.85 76.534L551.45 76.534" stroke="#000000" stroke-width="1.5" fill="none" /></g></g></g></svg>