<svg xmlns="http://www.w3.org/2000/svg" xmlns:xlink="http://www.w3.org/1999/xlink" id="body_3" preserveAspectRatio="xMinYMin meet" viewBox="0 0 793 1121"><defs><clipPath id="1"><path clip-rule="evenodd" d="M0 841L0 -0.9000244L0 -0.9000244L595.3 -0.9000244L595.3 -0.9000244L595.3 841L595.3 841L0 841z" /></clipPath><clipPath id="2"><path clip-rule="evenodd" d="M84.35 71.59998L550.95 71.59998L550.95 71.59998L550.95 248.536L550.95 248.536L84.35 248.536z" /></clipPath><clipPath id="3"><path clip-rule="evenodd" d="M79.925 72.09998L555.375 72.09998L555.375 72.09998L555.375 165.7L555.375 165.7L79.925 165.7z" /></clipPath><clipPath id="4"><path clip-rule="evenodd" d="M79.925 164.2L555.375 164.2L555.375 164.2L555.375 248.536L555.375 248.536L79.925 248.536z" /></clipPath><clipPath id="5"><path clip-rule="evenodd" d="M84.35 71.59998L550.95 71.59998L550.95 71.59998L550.95 248.536L550.95 248.536L84.35 248.536z" /></clipPath></defs><g transform="matrix(1.333333 0 0 1.333333 0 0)"><g><g clip-path="url(#1)"><g clip-path="url(#2)"></g><g clip-path="url(#3)"></g><g clip-path="url(#4)"></g><path transform="matrix(1 0 0 -1 0 841)" d="M80.925 676.05L554.375 676.05" stroke="#000000" stroke-width="0.5" fill="none" /><g clip-path="url(#5)"></g><path transform="matrix(1 0 0 -1 0 841)" d="M84.6 768.4L84.6 593.464" stroke="#000000" stroke-width="1.5" fill="none" /><path transform="matrix(1 0 0 -1 0 841)" d="M550.7 768.4L550.7 593.464" stroke="#000000" stroke-width="1.5" fill="none" /><path transform="matrix(1 0 0 -1 0 841)" d="M83.85 769.15L551.45 769.15" stroke="#000000" stroke-width="1.5" fill="none" /><path transform="matrix(1 0 0 -1 0 841)" d="M83.85 592.714L551.45 592.714" stroke="#000000" stroke-width="1.5" fill="none" /></g></g></g></svg>