<svg xmlns="http://www.w3.org/2000/svg" xmlns:xlink="http://www.w3.org/1999/xlink" id="body_1" preserveAspectRatio="xMinYMin meet" viewBox="0 0 793 1121"><defs><clipPath id="1"><path clip-rule="evenodd" d="M0 841L0 -0.9000244L0 -0.9000244L595.3 -0.9000244L595.3 -0.9000244L595.3 841L595.3 841L0 841z" /></clipPath><clipPath id="2"><path clip-rule="evenodd" d="M64.75 131.9L143.65 131.9L143.65 131.9L143.65 164.776L143.65 164.776L64.75 164.776z" /></clipPath><clipPath id="3"><path clip-rule="evenodd" d="M142.15 131.9L206.65 131.9L206.65 131.9L206.65 164.776L206.65 164.776L142.15 164.776z" /></clipPath><clipPath id="4"><path clip-rule="evenodd" d="M205.15 131.9L386.65 131.9L386.65 131.9L386.65 164.776L386.65 164.776L205.15 164.776z" /></clipPath><clipPath id="5"><path clip-rule="evenodd" d="M385.15 131.9L503.65 131.9L503.65 131.9L503.65 164.776L503.65 164.776L385.15 164.776z" /></clipPath><clipPath id="6"><path clip-rule="evenodd" d="M502.15 131.9L539.65 131.9L539.65 131.9L539.65 164.776L539.65 164.776L502.15 164.776z" /></clipPath><clipPath id="7"><path clip-rule="evenodd" d="M64.75 163.2761L143.65 163.2761L143.65 163.2761L143.65 227.0281L143.65 227.0281L64.75 227.0281z" /></clipPath><clipPath id="8"><path clip-rule="evenodd" d="M142.15 163.2761L206.65 163.2761L206.65 163.2761L206.65 227.0281L206.65 227.0281L142.15 227.0281z" /></clipPath><clipPath id="9"><path clip-rule="evenodd" d="M205.15 163.2761L386.65 163.2761L386.65 163.2761L386.65 227.0281L386.65 227.0281L205.15 227.0281z" /></clipPath><clipPath id="10"><path clip-rule="evenodd" d="M385.15 163.2761L503.65 163.2761L503.65 163.2761L503.65 227.0281L503.65 227.0281L385.15 227.0281z" /></clipPath><clipPath id="11"><path clip-rule="evenodd" d="M502.15 163.2761L539.65 163.2761L539.65 163.2761L539.65 227.0281L539.65 227.0281L502.15 227.0281z" /></clipPath><clipPath id="12"><path clip-rule="evenodd" d="M64.75 225.5281L143.65 225.5281L143.65 225.5281L143.65 289.2801L143.65 289.2801L64.75 289.2801z" /></clipPath><clipPath id="13"><path clip-rule="evenodd" d="M142.15 225.5281L206.65 225.5281L206.65 225.5281L206.65 289.2801L206.65 289.2801L142.15 289.2801z" /></clipPath><clipPath id="14"><path clip-rule="evenodd" d="M205.15 225.5281L386.65 225.5281L386.65 225.5281L386.65 289.2801L386.65 289.2801L205.15 289.2801z" /></clipPath><clipPath id="15"><path clip-rule="evenodd" d="M385.15 225.5281L503.65 225.5281L503.65 225.5281L503.65 289.2801L503.65 289.2801L385.15 289.2801z" /></clipPath><clipPath id="16"><path clip-rule="evenodd" d="M502.15 225.5281L539.65 225.5281L539.65 225.5281L539.65 289.2801L539.65 289.2801L502.15 289.2801z" /></clipPath><clipPath id="17"><path clip-rule="evenodd" d="M64.75 350.68L107.65 350.68L107.65 350.68L107.65 373.264L107.65 373.264L64.75 373.264z" /></clipPath><clipPath id="18"><path clip-rule="evenodd" d="M106.15 350.68L188.75 350.68L188.75 350.68L188.75 373.264L188.75 373.264L106.15 373.264z" /></clipPath><clipPath id="19"><path clip-rule="evenodd" d="M187.25 350.68L494.65 350.68L494.65 350.68L494.65 373.264L494.65 373.264L187.25 373.264z" /></clipPath><clipPath id="20"><path clip-rule="evenodd" d="M493.15 350.68L553.65 350.68L553.65 350.68L553.65 373.264L553.65 373.264L493.15 373.264z" /></clipPath><clipPath id="21"><path clip-rule="evenodd" d="M64.75 371.764L107.65 371.764L107.65 371.764L107.65 394.348L107.65 394.348L64.75 394.348z" /></clipPath><clipPath id="22"><path clip-rule="evenodd" d="M106.15 371.764L188.75 371.764L188.75 371.764L188.75 394.348L188.75 394.348L106.15 394.348z" /></clipPath><clipPath id="23"><path clip-rule="evenodd" d="M187.25 371.764L494.65 371.764L494.65 371.764L494.65 394.348L494.65 394.348L187.25 394.348z" /></clipPath><clipPath id="24"><path clip-rule="evenodd" d="M493.15 371.764L553.65 371.764L553.65 371.764L553.65 394.348L553.65 394.348L493.15 394.348z" /></clipPath><clipPath id="25"><path clip-rule="evenodd" d="M64.75 392.848L107.65 392.848L107.65 392.848L107.65 415.432L107.65 415.432L64.75 415.432z" /></clipPath><clipPath id="26"><path clip-rule="evenodd" d="M106.15 392.848L188.75 392.848L188.75 392.848L188.75 415.432L188.75 415.432L106.15 415.432z" /></clipPath><clipPath id="27"><path clip-rule="evenodd" d="M187.25 392.848L494.65 392.848L494.65 392.848L494.65 415.432L494.65 415.432L187.25 415.432z" /></clipPath><clipPath id="28"><path clip-rule="evenodd" d="M493.15 392.848L553.65 392.848L553.65 392.848L553.65 415.432L553.65 415.432L493.15 415.432z" /></clipPath><clipPath id="29"><path clip-rule="evenodd" d="M64.75 413.932L107.65 413.932L107.65 413.932L107.65 436.516L107.65 436.516L64.75 436.516z" /></clipPath><clipPath id="30"><path clip-rule="evenodd" d="M106.15 413.932L188.75 413.932L188.75 413.932L188.75 436.516L188.75 436.516L106.15 436.516z" /></clipPath><clipPath id="31"><path clip-rule="evenodd" d="M187.25 413.932L494.65 413.932L494.65 413.932L494.65 436.516L494.65 436.516L187.25 436.516z" /></clipPath><clipPath id="32"><path clip-rule="evenodd" d="M493.15 413.932L553.65 413.932L553.65 413.932L553.65 436.516L553.65 436.516L493.15 436.516z" /></clipPath><clipPath id="33"><path clip-rule="evenodd" d="M64.75 435.016L107.65 435.016L107.65 435.016L107.65 457.6L107.65 457.6L64.75 457.6z" /></clipPath><clipPath id="34"><path clip-rule="evenodd" d="M106.15 435.016L188.75 435.016L188.75 435.016L188.75 457.6L188.75 457.6L106.15 457.6z" /></clipPath><clipPath id="35"><path clip-rule="evenodd" d="M187.25 435.016L494.65 435.016L494.65 435.016L494.65 457.6L494.65 457.6L187.25 457.6z" /></clipPath><clipPath id="36"><path clip-rule="evenodd" d="M493.15 435.016L553.65 435.016L553.65 435.016L553.65 457.6L553.65 457.6L493.15 457.6z" /></clipPath><clipPath id="37"><path clip-rule="evenodd" d="M64.75 456.1L107.65 456.1L107.65 456.1L107.65 478.684L107.65 478.684L64.75 478.684z" /></clipPath><clipPath id="38"><path clip-rule="evenodd" d="M106.15 456.1L188.75 456.1L188.75 456.1L188.75 478.684L188.75 478.684L106.15 478.684z" /></clipPath><clipPath id="39"><path clip-rule="evenodd" d="M187.25 456.1L494.65 456.1L494.65 456.1L494.65 478.684L494.65 478.684L187.25 478.684z" /></clipPath><clipPath id="40"><path clip-rule="evenodd" d="M493.15 456.1L553.65 456.1L553.65 456.1L553.65 478.684L553.65 478.684L493.15 478.684z" /></clipPath><clipPath id="41"><path clip-rule="evenodd" d="M64.75 477.184L107.65 477.184L107.65 477.184L107.65 499.768L107.65 499.768L64.75 499.768z" /></clipPath><clipPath id="42"><path clip-rule="evenodd" d="M106.15 477.184L188.75 477.184L188.75 477.184L188.75 499.768L188.75 499.768L106.15 499.768z" /></clipPath><clipPath id="43"><path clip-rule="evenodd" d="M187.25 477.184L494.65 477.184L494.65 477.184L494.65 499.768L494.65 499.768L187.25 499.768z" /></clipPath><clipPath id="44"><path clip-rule="evenodd" d="M493.15 477.184L553.65 477.184L553.65 477.184L553.65 499.768L553.65 499.768L493.15 499.768z" /></clipPath><clipPath id="45"><path clip-rule="evenodd" d="M64.75 498.268L107.65 498.268L107.65 498.268L107.65 520.852L107.65 520.852L64.75 520.852z" /></clipPath><clipPath id="46"><path clip-rule="evenodd" d="M106.15 498.268L188.75 498.268L188.75 498.268L188.75 520.852L188.75 520.852L106.15 520.852z" /></clipPath><clipPath id="47"><path clip-rule="evenodd" d="M187.25 498.268L494.65 498.268L494.65 498.268L494.65 520.852L494.65 520.852L187.25 520.852z" /></clipPath><clipPath id="48"><path clip-rule="evenodd" d="M493.15 498.268L553.65 498.268L553.65 498.268L553.65 520.852L553.65 520.852L493.15 520.852z" /></clipPath></defs><g transform="matrix(1.333333 0 0 1.333333 0 0)"><g><g clip-path="url(#1)"><g clip-path="url(#2)"></g><g clip-path="url(#3)"></g><g clip-path="url(#4)"></g><g clip-path="url(#5)"></g><g clip-path="url(#6)"></g><g clip-path="url(#7)"></g><g clip-path="url(#8)"></g><g clip-path="url(#9)"></g><g clip-path="url(#10)"></g><g clip-path="url(#11)"></g><g clip-path="url(#12)"></g><g clip-path="url(#13)"></g><g clip-path="url(#14)"></g><g clip-path="url(#15)"></g><g clip-path="url(#16)"></g><path transform="matrix(1 0 0 -1 0 841)" d="M65.5 708.1L65.5 552.72" stroke="#000000" stroke-width="0.5" fill="none" /><path transform="matrix(1 0 0 -1 0 841)" d="M142.9 708.1L142.9 677.224" stroke="#000000" stroke-width="0.5" fill="none" /><path transform="matrix(1 0 0 -1 0 841)" d="M142.9 676.724L142.9 614.972" stroke="#000000" stroke-width="0.5" fill="none" /><path transform="matrix(1 0 0 -1 0 841)" d="M142.9 614.472L142.9 552.72" stroke="#000000" stroke-width="0.5" fill="none" /><path transform="matrix(1 0 0 -1 0 841)" d="M205.9 708.1L205.9 677.224" stroke="#000000" stroke-width="0.5" fill="none" /><path transform="matrix(1 0 0 -1 0 841)" d="M205.9 676.724L205.9 614.972" stroke="#000000" stroke-width="0.5" fill="none" /><path transform="matrix(1 0 0 -1 0 841)" d="M205.9 614.472L205.9 552.72" stroke="#000000" stroke-width="0.5" fill="none" /><path transform="matrix(1 0 0 -1 0 841)" d="M385.9 708.1L385.9 677.224" stroke="#000000" stroke-width="0.5" fill="none" /><path transform="matrix(1 0 0 -1 0 841)" d="M385.9 676.724L385.9 614.972" stroke="#000000" stroke-width="0.5" fill="none" /><path transform="matrix(1 0 0 -1 0 841)" d="M385.9 614.472L385.9 552.72" stroke="#000000" stroke-width="0.5" fill="none" /><path transform="matrix(1 0 0 -1 0 841)" d="M502.9 708.1L502.9 677.224" stroke="#000000" stroke-width="0.5" fill="none" /><path transform="matrix(1 0 0 -1 0 841)" d="M502.9 676.724L502.9 614.972" stroke="#000000" stroke-width="0.5" fill="none" /><path transform="matrix(1 0 0 -1 0 841)" d="M502.9 614.472L502.9 552.72" stroke="#000000" stroke-width="0.5" fill="none" /><path transform="matrix(1 0 0 -1 0 841)" d="M538.9 708.1L538.9 552.72" stroke="#000000" stroke-width="0.5" fill="none" /><path transform="matrix(1 0 0 -1 0 841)" d="M65.25 708.35L539.15 708.35" stroke="#000000" stroke-width="0.5" fill="none" /><path transform="matrix(1 0 0 -1 0 841)" d="M65.75 676.974L538.65 676.974" stroke="#000000" stroke-width="0.5" fill="none" /><path transform="matrix(1 0 0 -1 0 841)" d="M65.75 614.722L538.65 614.722" stroke="#000000" stroke-width="0.5" fill="none" /><path transform="matrix(1 0 0 -1 0 841)" d="M65.25 552.47L539.15 552.47" stroke="#000000" stroke-width="0.5" fill="none" /><g clip-path="url(#17)"></g><g clip-path="url(#18)"></g><g clip-path="url(#19)"></g><g clip-path="url(#20)"></g><g clip-path="url(#21)"></g><g clip-path="url(#22)"></g><g clip-path="url(#23)"></g><g clip-path="url(#24)"></g><g clip-path="url(#25)"></g><g clip-path="url(#26)"></g><g clip-path="url(#27)"></g><g clip-path="url(#28)"></g><g clip-path="url(#29)"></g><g clip-path="url(#30)"></g><g clip-path="url(#31)"></g><g clip-path="url(#32)"></g><g clip-path="url(#33)"></g><g clip-path="url(#34)"></g><g clip-path="url(#35)"></g><g clip-path="url(#36)"></g><g clip-path="url(#37)"></g><g clip-path="url(#38)"></g><g clip-path="url(#39)"></g><g clip-path="url(#40)"></g><g clip-path="url(#41)"></g><g clip-path="url(#42)"></g><g clip-path="url(#43)"></g><g clip-path="url(#44)"></g><g clip-path="url(#45)"></g><g clip-path="url(#46)"></g><g clip-path="url(#47)"></g><g clip-path="url(#48)"></g><path transform="matrix(1 0 0 -1 0 841)" d="M65.5 489.32L65.5 321.148" stroke="#000000" stroke-width="0.5" fill="none" /><path transform="matrix(1 0 0 -1 0 841)" d="M106.9 489.32L106.9 468.736" stroke="#000000" stroke-width="0.5" fill="none" /><path transform="matrix(1 0 0 -1 0 841)" d="M106.9 468.236L106.9 447.652" stroke="#000000" stroke-width="0.5" fill="none" /><path transform="matrix(1 0 0 -1 0 841)" d="M106.9 447.152L106.9 426.568" stroke="#000000" stroke-width="0.5" fill="none" /><path transform="matrix(1 0 0 -1 0 841)" d="M106.9 426.068L106.9 405.484" stroke="#000000" stroke-width="0.5" fill="none" /><path transform="matrix(1 0 0 -1 0 841)" d="M106.9 404.984L106.9 384.4" stroke="#000000" stroke-width="0.5" fill="none" /><path transform="matrix(1 0 0 -1 0 841)" d="M106.9 383.9L106.9 363.316" stroke="#000000" stroke-width="0.5" fill="none" /><path transform="matrix(1 0 0 -1 0 841)" d="M106.9 362.816L106.9 342.232" stroke="#000000" stroke-width="0.5" fill="none" /><path transform="matrix(1 0 0 -1 0 841)" d="M106.9 341.732L106.9 321.148" stroke="#000000" stroke-width="0.5" fill="none" /><path transform="matrix(1 0 0 -1 0 841)" d="M188 489.32L188 468.736" stroke="#000000" stroke-width="0.5" fill="none" /><path transform="matrix(1 0 0 -1 0 841)" d="M188 468.236L188 447.652" stroke="#000000" stroke-width="0.5" fill="none" /><path transform="matrix(1 0 0 -1 0 841)" d="M188 447.152L188 426.568" stroke="#000000" stroke-width="0.5" fill="none" /><path transform="matrix(1 0 0 -1 0 841)" d="M188 426.068L188 405.484" stroke="#000000" stroke-width="0.5" fill="none" /><path transform="matrix(1 0 0 -1 0 841)" d="M188 404.984L188 384.4" stroke="#000000" stroke-width="0.5" fill="none" /><path transform="matrix(1 0 0 -1 0 841)" d="M188 383.9L188 363.316" stroke="#000000" stroke-width="0.5" fill="none" /><path transform="matrix(1 0 0 -1 0 841)" d="M188 362.816L188 342.232" stroke="#000000" stroke-width="0.5" fill="none" /><path transform="matrix(1 0 0 -1 0 841)" d="M188 341.732L188 321.148" stroke="#000000" stroke-width="0.5" fill="none" /><path transform="matrix(1 0 0 -1 0 841)" d="M493.9 489.32L493.9 468.736" stroke="#000000" stroke-width="0.5" fill="none" /><path transform="matrix(1 0 0 -1 0 841)" d="M493.9 468.236L493.9 447.652" stroke="#000000" stroke-width="0.5" fill="none" /><path transform="matrix(1 0 0 -1 0 841)" d="M493.9 447.152L493.9 426.568" stroke="#000000" stroke-width="0.5" fill="none" /><path transform="matrix(1 0 0 -1 0 841)" d="M493.9 426.068L493.9 405.484" stroke="#000000" stroke-width="0.5" fill="none" /><path transform="matrix(1 0 0 -1 0 841)" d="M493.9 404.984L493.9 384.4" stroke="#000000" stroke-width="0.5" fill="none" /><path transform="matrix(1 0 0 -1 0 841)" d="M493.9 383.9L493.9 363.316" stroke="#000000" stroke-width="0.5" fill="none" /><path transform="matrix(1 0 0 -1 0 841)" d="M493.9 362.816L493.9 342.232" stroke="#000000" stroke-width="0.5" fill="none" /><path transform="matrix(1 0 0 -1 0 841)" d="M493.9 341.732L493.9 321.148" stroke="#000000" stroke-width="0.5" fill="none" /><path transform="matrix(1 0 0 -1 0 841)" d="M552.9 489.32L552.9 321.148" stroke="#000000" stroke-width="0.5" fill="none" /><path transform="matrix(1 0 0 -1 0 841)" d="M65.25 489.57L553.15 489.57" stroke="#000000" stroke-width="0.5" fill="none" /><path transform="matrix(1 0 0 -1 0 841)" d="M65.75 468.486L552.65 468.486" stroke="#000000" stroke-width="0.5" fill="none" /><path transform="matrix(1 0 0 -1 0 841)" d="M65.75 447.402L552.65 447.402" stroke="#000000" stroke-width="0.5" fill="none" /><path transform="matrix(1 0 0 -1 0 841)" d="M65.75 426.318L552.65 426.318" stroke="#000000" stroke-width="0.5" fill="none" /><path transform="matrix(1 0 0 -1 0 841)" d="M65.75 405.234L552.65 405.234" stroke="#000000" stroke-width="0.5" fill="none" /><path transform="matrix(1 0 0 -1 0 841)" d="M65.75 384.15L552.65 384.15" stroke="#000000" stroke-width="0.5" fill="none" /><path transform="matrix(1 0 0 -1 0 841)" d="M65.75 363.066L552.65 363.066" stroke="#000000" stroke-width="0.5" fill="none" /><path transform="matrix(1 0 0 -1 0 841)" d="M65.75 341.982L552.65 341.982" stroke="#000000" stroke-width="0.5" fill="none" /><path transform="matrix(1 0 0 -1 0 841)" d="M65.25 320.898L553.15 320.898" stroke="#000000" stroke-width="0.5" fill="none" /></g></g></g></svg>