<svg xmlns="http://www.w3.org/2000/svg" xmlns:xlink="http://www.w3.org/1999/xlink" id="body_2" preserveAspectRatio="xMinYMin meet" viewBox="0 0 793 1121"><defs><clipPath id="1"><path clip-rule="evenodd" d="M0 841L0 -0.9500122L0 -0.9500122L595.35 -0.9500122L595.35 -0.9500122L595.35 841L595.35 841L0 841z" /></clipPath><clipPath id="2"><path clip-rule="evenodd" d="M0 30.25L595.35 30.25L595.35 30.25L595.35 44.19897L595.35 44.19897L0 44.19897z" /></clipPath><clipPath id="3"><path clip-rule="evenodd" d="M70.5 29.70001L81.79401 29.70001L81.79401 29.70001L81.79401 44.64996L81.79401 44.64996L70.5 44.64996z" /></clipPath></defs><g transform="matrix(1.333333 0 0 1.333333 0 0)"><g><g clip-path="url(#1)"><g clip-path="url(#2)"><path transform="matrix(1 0 0 -1 0 841)" d="M69.45 797.176L528.55 797.176" stroke="#000000" stroke-width="0.75" fill="none" /></g><g clip-path="url(#3)"><path transform="matrix(1 0 0 -1 0 841)" d="M69.45 797.325L82.844 797.325" stroke="#000000" stroke-width="0.75" fill="none" /></g><g transform="matrix(0.2687912 0 0 0.269308 131.374 63.45313)"><g transform="matrix(1 0 0 1 0 0)"><image x="0" y="0" xlink:href="img_02.png" width="1264" height="401" /></g></g></g></g></g></svg>