<svg xmlns="http://www.w3.org/2000/svg" xmlns:xlink="http://www.w3.org/1999/xlink" id="body_5" preserveAspectRatio="xMinYMin meet" viewBox="0 0 793 1121"><defs><clipPath id="1"><path clip-rule="evenodd" d="M0 841L0 -0.9500122L0 -0.9500122L595.35 -0.9500122L595.35 -0.9500122L595.35 841L595.35 841L0 841z" /></clipPath><clipPath id="2"><path clip-rule="evenodd" d="M0 30.25L595.35 30.25L595.35 30.25L595.35 44.19897L595.35 44.19897L0 44.19897z" /></clipPath><clipPath id="3"><path clip-rule="evenodd" d="M520.706 29.70001L532 29.70001L532 29.70001L532 44.64996L532 44.64996L520.706 44.64996z" /></clipPath><clipPath id="4"><path clip-rule="evenodd" d="M98.25 264.35L180.95 264.35L180.95 264.35L180.95 281.788L180.95 281.788L98.25 281.788z" /></clipPath><clipPath id="5"><path clip-rule="evenodd" d="M179.45 264.35L324.65 264.35L324.65 264.35L324.65 281.788L324.65 281.788L179.45 281.788z" /></clipPath><clipPath id="6"><path clip-rule="evenodd" d="M323.15 264.35L422.65 264.35L422.65 264.35L422.65 281.788L422.65 281.788L323.15 281.788z" /></clipPath><clipPath id="7"><path clip-rule="evenodd" d="M421.15 264.35L504.25 264.35L504.25 264.35L504.25 281.788L504.25 281.788L421.15 281.788z" /></clipPath><clipPath id="8"><path clip-rule="evenodd" d="M98.25 280.2881L180.95 280.2881L180.95 280.2881L180.95 297.7261L180.95 297.7261L98.25 297.7261z" /></clipPath><clipPath id="9"><path clip-rule="evenodd" d="M179.45 280.2881L324.65 280.2881L324.65 280.2881L324.65 297.7261L324.65 297.7261L179.45 297.7261z" /></clipPath><clipPath id="10"><path clip-rule="evenodd" d="M323.15 280.2881L422.65 280.2881L422.65 280.2881L422.65 297.7261L422.65 297.7261L323.15 297.7261z" /></clipPath><clipPath id="11"><path clip-rule="evenodd" d="M421.15 280.2881L504.25 280.2881L504.25 280.2881L504.25 297.7261L504.25 297.7261L421.15 297.7261z" /></clipPath><clipPath id="12"><path clip-rule="evenodd" d="M98.25 296.2261L180.95 296.2261L180.95 296.2261L180.95 313.6641L180.95 313.6641L98.25 313.6641z" /></clipPath><clipPath id="13"><path clip-rule="evenodd" d="M179.45 296.2261L324.65 296.2261L324.65 296.2261L324.65 313.6641L324.65 313.6641L179.45 313.6641z" /></clipPath><clipPath id="14"><path clip-rule="evenodd" d="M323.15 296.2261L422.65 296.2261L422.65 296.2261L422.65 313.6641L422.65 313.6641L323.15 313.6641z" /></clipPath><clipPath id="15"><path clip-rule="evenodd" d="M421.15 296.2261L504.25 296.2261L504.25 296.2261L504.25 313.6641L504.25 313.6641L421.15 313.6641z" /></clipPath><clipPath id="16"><path clip-rule="evenodd" d="M98.25 312.1641L180.95 312.1641L180.95 312.1641L180.95 345.0401L180.95 345.0401L98.25 345.0401z" /></clipPath><clipPath id="17"><path clip-rule="evenodd" d="M179.45 312.1641L324.65 312.1641L324.65 312.1641L324.65 345.0401L324.65 345.0401L179.45 345.0401z" /></clipPath><clipPath id="18"><path clip-rule="evenodd" d="M323.15 312.1641L422.65 312.1641L422.65 312.1641L422.65 345.0401L422.65 345.0401L323.15 345.0401z" /></clipPath><clipPath id="19"><path clip-rule="evenodd" d="M421.15 312.1641L504.25 312.1641L504.25 312.1641L504.25 345.0401L504.25 345.0401L421.15 345.0401z" /></clipPath><clipPath id="20"><path clip-rule="evenodd" d="M98.25 343.54L180.95 343.54L180.95 343.54L180.95 376.416L180.95 376.416L98.25 376.416z" /></clipPath><clipPath id="21"><path clip-rule="evenodd" d="M179.45 343.54L324.65 343.54L324.65 343.54L324.65 376.416L324.65 376.416L179.45 376.416z" /></clipPath><clipPath id="22"><path clip-rule="evenodd" d="M323.15 343.54L422.65 343.54L422.65 343.54L422.65 376.416L422.65 376.416L323.15 376.416z" /></clipPath><clipPath id="23"><path clip-rule="evenodd" d="M421.15 343.54L504.25 343.54L504.25 343.54L504.25 376.416L504.25 376.416L421.15 376.416z" /></clipPath></defs><g transform="matrix(1.333333 0 0 1.333333 0 0)"><g><g clip-path="url(#1)"><g clip-path="url(#2)"><path transform="matrix(1 0 0 -1 0 841)" d="M69.45 797.176L528.55 797.176" stroke="#000000" stroke-width="0.75" fill="none" /></g><g clip-path="url(#3)"><path transform="matrix(1 0 0 -1 0 841)" d="M519.656 797.325L533.05 797.325" stroke="#000000" stroke-width="0.75" fill="none" /></g><g clip-path="url(#4)"></g><g clip-path="url(#5)"></g><g clip-path="url(#6)"></g><g clip-path="url(#7)"></g><g clip-path="url(#8)"></g><g clip-path="url(#9)"></g><g clip-path="url(#10)"></g><g clip-path="url(#11)"></g><g clip-path="url(#12)"></g><g clip-path="url(#13)"></g><g clip-path="url(#14)"></g><g clip-path="url(#15)"></g><g clip-path="url(#16)"></g><g clip-path="url(#17)"></g><g clip-path="url(#18)"></g><g clip-path="url(#19)"></g><g clip-path="url(#20)"></g><g clip-path="url(#21)"></g><g clip-path="url(#22)"></g><g clip-path="url(#23)"></g><path transform="matrix(1 0 0 -1 0 841)" d="M99 575.65L99 465.584" stroke="#000000" stroke-width="0.5" fill="none" /><path transform="matrix(1 0 0 -1 0 841)" d="M180.2 575.65L180.2 560.212" stroke="#000000" stroke-width="0.5" fill="none" /><path transform="matrix(1 0 0 -1 0 841)" d="M180.2 559.712L180.2 544.274" stroke="#000000" stroke-width="0.5" fill="none" /><path transform="matrix(1 0 0 -1 0 841)" d="M180.2 543.774L180.2 528.3359" stroke="#000000" stroke-width="0.5" fill="none" /><path transform="matrix(1 0 0 -1 0 841)" d="M180.2 527.8359L180.2 496.96" stroke="#000000" stroke-width="0.5" fill="none" /><path transform="matrix(1 0 0 -1 0 841)" d="M180.2 496.46L180.2 465.584" stroke="#000000" stroke-width="0.5" fill="none" /><path transform="matrix(1 0 0 -1 0 841)" d="M323.9 575.65L323.9 560.212" stroke="#000000" stroke-width="0.5" fill="none" /><path transform="matrix(1 0 0 -1 0 841)" d="M323.9 559.712L323.9 544.274" stroke="#000000" stroke-width="0.5" fill="none" /><path transform="matrix(1 0 0 -1 0 841)" d="M323.9 543.774L323.9 528.3359" stroke="#000000" stroke-width="0.5" fill="none" /><path transform="matrix(1 0 0 -1 0 841)" d="M323.9 527.8359L323.9 496.96" stroke="#000000" stroke-width="0.5" fill="none" /><path transform="matrix(1 0 0 -1 0 841)" d="M323.9 496.46L323.9 465.584" stroke="#000000" stroke-width="0.5" fill="none" /><path transform="matrix(1 0 0 -1 0 841)" d="M421.9 575.65L421.9 560.212" stroke="#000000" stroke-width="0.5" fill="none" /><path transform="matrix(1 0 0 -1 0 841)" d="M421.9 559.712L421.9 544.274" stroke="#000000" stroke-width="0.5" fill="none" /><path transform="matrix(1 0 0 -1 0 841)" d="M421.9 543.774L421.9 528.3359" stroke="#000000" stroke-width="0.5" fill="none" /><path transform="matrix(1 0 0 -1 0 841)" d="M421.9 527.8359L421.9 496.96" stroke="#000000" stroke-width="0.5" fill="none" /><path transform="matrix(1 0 0 -1 0 841)" d="M421.9 496.46L421.9 465.584" stroke="#000000" stroke-width="0.5" fill="none" /><path transform="matrix(1 0 0 -1 0 841)" d="M503.5 575.65L503.5 465.584" stroke="#000000" stroke-width="0.5" fill="none" /><path transform="matrix(1 0 0 -1 0 841)" d="M98.75 575.9L503.75 575.9" stroke="#000000" stroke-width="0.5" fill="none" /><path transform="matrix(1 0 0 -1 0 841)" d="M99.25 559.962L503.25 559.962" stroke="#000000" stroke-width="0.5" fill="none" /><path transform="matrix(1 0 0 -1 0 841)" d="M99.25 544.024L503.25 544.024" stroke="#000000" stroke-width="0.5" fill="none" /><path transform="matrix(1 0 0 -1 0 841)" d="M99.25 528.0859L503.25 528.0859" stroke="#000000" stroke-width="0.5" fill="none" /><path transform="matrix(1 0 0 -1 0 841)" d="M99.25 496.71L503.25 496.71" stroke="#000000" stroke-width="0.5" fill="none" /><path transform="matrix(1 0 0 -1 0 841)" d="M98.75 465.334L503.75 465.334" stroke="#000000" stroke-width="0.5" fill="none" /><g transform="matrix(0.2855915 0 0 0.2856148 101.478 452.213)"><g transform="matrix(1 0 0 1 0 0)"><image x="0" y="0" xlink:href="img_06.png" width="1399" height="806" /></g></g></g></g></g></svg>