<svg xmlns="http://www.w3.org/2000/svg" xmlns:xlink="http://www.w3.org/1999/xlink" id="body_1" preserveAspectRatio="xMinYMin meet" viewBox="0 0 793 1121"><defs><clipPath id="1"><path clip-rule="evenodd" d="M0 841L0 -0.9500122L0 -0.9500122L595.35 -0.9500122L595.35 -0.9500122L595.35 841L595.35 841L0 841z" /></clipPath><clipPath id="2"><path clip-rule="evenodd" d="M0 30.25L595.35 30.25L595.35 30.25L595.35 44.19897L595.35 44.19897L0 44.19897z" /></clipPath><clipPath id="3"><path clip-rule="evenodd" d="M520.706 29.70001L532 29.70001L532 29.70001L532 44.64996L532 44.64996L520.706 44.64996z" /></clipPath><clipPath id="4"><path clip-rule="evenodd" d="M111.5 638.15L194.2 638.15L194.2 638.15L194.2 655.588L194.2 655.588L111.5 655.588z" /></clipPath><clipPath id="5"><path clip-rule="evenodd" d="M192.7 638.15L301.8 638.15L301.8 638.15L301.8 655.588L301.8 655.588L192.7 655.588z" /></clipPath><clipPath id="6"><path clip-rule="evenodd" d="M300.3 638.15L409.4 638.15L409.4 638.15L409.4 655.588L409.4 655.588L300.3 655.588z" /></clipPath><clipPath id="7"><path clip-rule="evenodd" d="M407.9 638.15L491 638.15L491 638.15L491 655.588L491 655.588L407.9 655.588z" /></clipPath><clipPath id="8"><path clip-rule="evenodd" d="M111.5 654.088L194.2 654.088L194.2 654.088L194.2 671.526L194.2 671.526L111.5 671.526z" /></clipPath><clipPath id="9"><path clip-rule="evenodd" d="M192.7 654.088L301.8 654.088L301.8 654.088L301.8 671.526L301.8 671.526L192.7 671.526z" /></clipPath><clipPath id="10"><path clip-rule="evenodd" d="M300.3 654.088L409.4 654.088L409.4 654.088L409.4 671.526L409.4 671.526L300.3 671.526z" /></clipPath><clipPath id="11"><path clip-rule="evenodd" d="M407.9 654.088L491 654.088L491 654.088L491 671.526L491 671.526L407.9 671.526z" /></clipPath><clipPath id="12"><path clip-rule="evenodd" d="M111.5 670.026L194.2 670.026L194.2 670.026L194.2 687.4641L194.2 687.4641L111.5 687.4641z" /></clipPath><clipPath id="13"><path clip-rule="evenodd" d="M192.7 670.026L301.8 670.026L301.8 670.026L301.8 687.4641L301.8 687.4641L192.7 687.4641z" /></clipPath><clipPath id="14"><path clip-rule="evenodd" d="M300.3 670.026L409.4 670.026L409.4 670.026L409.4 687.4641L409.4 687.4641L300.3 687.4641z" /></clipPath><clipPath id="15"><path clip-rule="evenodd" d="M407.9 670.026L491 670.026L491 670.026L491 687.4641L491 687.4641L407.9 687.4641z" /></clipPath><clipPath id="16"><path clip-rule="evenodd" d="M111.5 685.9641L194.2 685.9641L194.2 685.9641L194.2 703.402L194.2 703.402L111.5 703.402z" /></clipPath><clipPath id="17"><path clip-rule="evenodd" d="M192.7 685.9641L301.8 685.9641L301.8 685.9641L301.8 703.402L301.8 703.402L192.7 703.402z" /></clipPath><clipPath id="18"><path clip-rule="evenodd" d="M300.3 685.9641L409.4 685.9641L409.4 685.9641L409.4 703.402L409.4 703.402L300.3 703.402z" /></clipPath><clipPath id="19"><path clip-rule="evenodd" d="M407.9 685.9641L491 685.9641L491 685.9641L491 703.402L491 703.402L407.9 703.402z" /></clipPath><clipPath id="20"><path clip-rule="evenodd" d="M111.5 701.902L194.2 701.902L194.2 701.902L194.2 719.34L194.2 719.34L111.5 719.34z" /></clipPath><clipPath id="21"><path clip-rule="evenodd" d="M192.7 701.902L301.8 701.902L301.8 701.902L301.8 719.34L301.8 719.34L192.7 719.34z" /></clipPath><clipPath id="22"><path clip-rule="evenodd" d="M300.3 701.902L409.4 701.902L409.4 701.902L409.4 719.34L409.4 719.34L300.3 719.34z" /></clipPath><clipPath id="23"><path clip-rule="evenodd" d="M407.9 701.902L491 701.902L491 701.902L491 719.34L491 719.34L407.9 719.34z" /></clipPath><clipPath id="24"><path clip-rule="evenodd" d="M111.5 717.84L194.2 717.84L194.2 717.84L194.2 735.278L194.2 735.278L111.5 735.278z" /></clipPath><clipPath id="25"><path clip-rule="evenodd" d="M192.7 717.84L301.8 717.84L301.8 717.84L301.8 735.278L301.8 735.278L192.7 735.278z" /></clipPath><clipPath id="26"><path clip-rule="evenodd" d="M300.3 717.84L409.4 717.84L409.4 717.84L409.4 735.278L409.4 735.278L300.3 735.278z" /></clipPath><clipPath id="27"><path clip-rule="evenodd" d="M407.9 717.84L491 717.84L491 717.84L491 735.278L491 735.278L407.9 735.278z" /></clipPath></defs><g transform="matrix(1.333333 0 0 1.333333 0 0)"><g><g clip-path="url(#1)"><g clip-path="url(#2)"><path transform="matrix(1 0 0 -1 0 841)" d="M69.45 797.176L528.55 797.176" stroke="#000000" stroke-width="0.75" fill="none" /></g><g clip-path="url(#3)"><path transform="matrix(1 0 0 -1 0 841)" d="M519.656 797.325L533.05 797.325" stroke="#000000" stroke-width="0.75" fill="none" /></g><g clip-path="url(#4)"></g><g clip-path="url(#5)"></g><g clip-path="url(#6)"></g><g clip-path="url(#7)"></g><g clip-path="url(#8)"></g><g clip-path="url(#9)"></g><g clip-path="url(#10)"></g><g clip-path="url(#11)"></g><g clip-path="url(#12)"></g><g clip-path="url(#13)"></g><g clip-path="url(#14)"></g><g clip-path="url(#15)"></g><g clip-path="url(#16)"></g><g clip-path="url(#17)"></g><g clip-path="url(#18)"></g><g clip-path="url(#19)"></g><g clip-path="url(#20)"></g><g clip-path="url(#21)"></g><g clip-path="url(#22)"></g><g clip-path="url(#23)"></g><g clip-path="url(#24)"></g><g clip-path="url(#25)"></g><g clip-path="url(#26)"></g><g clip-path="url(#27)"></g><path transform="matrix(1 0 0 -1 0 841)" d="M112.25 201.85L112.25 106.722" stroke="#000000" stroke-width="0.5" fill="none" /><path transform="matrix(1 0 0 -1 0 841)" d="M193.45 201.85L193.45 186.412" stroke="#000000" stroke-width="0.5" fill="none" /><path transform="matrix(1 0 0 -1 0 841)" d="M193.45 185.912L193.45 170.474" stroke="#000000" stroke-width="0.5" fill="none" /><path transform="matrix(1 0 0 -1 0 841)" d="M193.45 169.974L193.45 154.536" stroke="#000000" stroke-width="0.5" fill="none" /><path transform="matrix(1 0 0 -1 0 841)" d="M193.45 154.036L193.45 138.598" stroke="#000000" stroke-width="0.5" fill="none" /><path transform="matrix(1 0 0 -1 0 841)" d="M193.45 138.098L193.45 122.66" stroke="#000000" stroke-width="0.5" fill="none" /><path transform="matrix(1 0 0 -1 0 841)" d="M193.45 122.16L193.45 106.722" stroke="#000000" stroke-width="0.5" fill="none" /><path transform="matrix(1 0 0 -1 0 841)" d="M301.05 201.85L301.05 186.412" stroke="#000000" stroke-width="0.5" fill="none" /><path transform="matrix(1 0 0 -1 0 841)" d="M301.05 185.912L301.05 170.474" stroke="#000000" stroke-width="0.5" fill="none" /><path transform="matrix(1 0 0 -1 0 841)" d="M301.05 169.974L301.05 154.536" stroke="#000000" stroke-width="0.5" fill="none" /><path transform="matrix(1 0 0 -1 0 841)" d="M301.05 154.036L301.05 138.598" stroke="#000000" stroke-width="0.5" fill="none" /><path transform="matrix(1 0 0 -1 0 841)" d="M301.05 138.098L301.05 122.66" stroke="#000000" stroke-width="0.5" fill="none" /><path transform="matrix(1 0 0 -1 0 841)" d="M301.05 122.16L301.05 106.722" stroke="#000000" stroke-width="0.5" fill="none" /><path transform="matrix(1 0 0 -1 0 841)" d="M408.65 201.85L408.65 186.412" stroke="#000000" stroke-width="0.5" fill="none" /><path transform="matrix(1 0 0 -1 0 841)" d="M408.65 185.912L408.65 170.474" stroke="#000000" stroke-width="0.5" fill="none" /><path transform="matrix(1 0 0 -1 0 841)" d="M408.65 169.974L408.65 154.536" stroke="#000000" stroke-width="0.5" fill="none" /><path transform="matrix(1 0 0 -1 0 841)" d="M408.65 154.036L408.65 138.598" stroke="#000000" stroke-width="0.5" fill="none" /><path transform="matrix(1 0 0 -1 0 841)" d="M408.65 138.098L408.65 122.66" stroke="#000000" stroke-width="0.5" fill="none" /><path transform="matrix(1 0 0 -1 0 841)" d="M408.65 122.16L408.65 106.722" stroke="#000000" stroke-width="0.5" fill="none" /><path transform="matrix(1 0 0 -1 0 841)" d="M490.25 201.85L490.25 106.722" stroke="#000000" stroke-width="0.5" fill="none" /><path transform="matrix(1 0 0 -1 0 841)" d="M112 202.1L490.5 202.1" stroke="#000000" stroke-width="0.5" fill="none" /><path transform="matrix(1 0 0 -1 0 841)" d="M112.5 186.162L490 186.162" stroke="#000000" stroke-width="0.5" fill="none" /><path transform="matrix(1 0 0 -1 0 841)" d="M112.5 170.224L490 170.224" stroke="#000000" stroke-width="0.5" fill="none" /><path transform="matrix(1 0 0 -1 0 841)" d="M112.5 154.286L490 154.286" stroke="#000000" stroke-width="0.5" fill="none" /><path transform="matrix(1 0 0 -1 0 841)" d="M112.5 138.348L490 138.348" stroke="#000000" stroke-width="0.5" fill="none" /><path transform="matrix(1 0 0 -1 0 841)" d="M112.5 122.41L490 122.41" stroke="#000000" stroke-width="0.5" fill="none" /><path transform="matrix(1 0 0 -1 0 841)" d="M112 106.472L490.5 106.472" stroke="#000000" stroke-width="0.5" fill="none" /></g></g></g></svg>