<svg xmlns="http://www.w3.org/2000/svg" xmlns:xlink="http://www.w3.org/1999/xlink" id="body_5" preserveAspectRatio="xMinYMin meet" viewBox="0 0 1121 793"><defs><clipPath id="1"><path clip-rule="evenodd" d="M0 595L0 -0.2999878L0 -0.2999878L841.9 -0.2999878L841.9 -0.2999878L841.9 595L841.9 595L0 595z" /></clipPath><clipPath id="2"><path clip-rule="evenodd" d="M0 42.20001L841.9 42.20001L841.9 42.20001L841.9 56.14899L841.9 56.14899L0 56.14899z" /></clipPath><clipPath id="3"><path clip-rule="evenodd" d="M0 549L841.9 549L841.9 549L841.9 561L841.9 561L0 561z" /></clipPath><clipPath id="4"><path clip-rule="evenodd" d="M35.475 100.4001L807.975 100.4001L807.975 100.4001L807.975 100.4001L807.975 100.4001L807.975 307.4001L807.975 307.4001L807.975 307.4001L807.975 307.4001L35.475 307.4001z" /></clipPath><clipPath id="5"><path clip-rule="evenodd" d="M35.45 335.8931L808 335.8931L808 335.8931L808 335.8931L808 335.8931L808 539.4562L808 539.4562L808 539.4562L808 539.4562L35.45 539.4562z" /></clipPath></defs><g transform="matrix(1.333333 0 0 1.333333 0 0)"><g><g clip-path="url(#1)"><g clip-path="url(#2)"><path transform="matrix(1 0 0 -1 0 595)" d="M34 539.226L809.45 539.226" stroke="#000000" stroke-width="0.75" fill="none" /></g><g clip-path="url(#3)"></g><g clip-path="url(#4)"><g transform="matrix(0.4798137 0 0 0.4791667 35.475 100.4001)"><g transform="matrix(1 0 0 1 0 0)"><image x="0" y="0" xlink:href="img_05.png" width="1610" height="432" /></g></g></g><g clip-path="url(#5)"><g transform="matrix(0.4523126 0 0 0.4523624 35.45 335.8931)"><g transform="matrix(1 0 0 1 0 0)"><image x="0" y="0" xlink:href="img_06.png" width="1708" height="450" /></g></g></g></g></g></g></svg>