<svg xmlns="http://www.w3.org/2000/svg" xmlns:xlink="http://www.w3.org/1999/xlink" id="body_3" preserveAspectRatio="xMinYMin meet" viewBox="0 0 793 1123"><defs><clipPath id="1"><path clip-rule="evenodd" d="M0 842L0 0L0 0L595.35 0L595.35 0L595.35 842L595.35 842L0 842z" /></clipPath><clipPath id="2"><path clip-rule="evenodd" d="M0 51L595.35 51L595.35 51L595.35 64.79901L595.35 64.79901L0 64.79901z" /></clipPath><clipPath id="3"><path clip-rule="evenodd" d="M65.25 73.12506L536.3 73.12506L536.3 73.12506L536.3 673.0751L536.3 673.0751L65.25 673.0751z" /></clipPath><clipPath id="4"><path clip-rule="evenodd" d="M66.7 73.62506L534.85 73.62506L534.85 73.62506L534.85 219.275L534.85 219.275L66.7 219.275z" /></clipPath><clipPath id="5"><path clip-rule="evenodd" d="M66.7 217.7751L534.85 217.7751L534.85 217.7751L534.85 302.1111L534.85 302.1111L66.7 302.1111z" /></clipPath><clipPath id="6"><path clip-rule="evenodd" d="M65.25 73.12506L536.3 73.12506L536.3 73.12506L536.3 673.0751L536.3 673.0751L65.25 673.0751z" /></clipPath></defs><g transform="matrix(1.333333 0 0 1.333333 0 0)"><g><g clip-path="url(#1)"><g clip-path="url(#2)"></g><g clip-path="url(#3)"></g><g clip-path="url(#4)"></g><g clip-path="url(#5)"></g><path transform="matrix(1 0 0 -1 0 842)" d="M67.7 623.475L533.85 623.475" stroke="#000000" stroke-width="0.5" fill="none" /><g clip-path="url(#6)"></g><path transform="matrix(1 0 0 -1 0 842)" d="M65.5 767.875L65.5 169.925" stroke="#000000" stroke-width="1.5" fill="none" /><path transform="matrix(1 0 0 -1 0 842)" d="M536.05 767.875L536.05 169.925" stroke="#000000" stroke-width="1.5" fill="none" /><path transform="matrix(1 0 0 -1 0 842)" d="M64.75 768.625L536.8 768.625" stroke="#000000" stroke-width="1.5" fill="none" /><path transform="matrix(1 0 0 -1 0 842)" d="M64.75 169.175L536.8 169.175" stroke="#000000" stroke-width="1.5" fill="none" /></g></g></g></svg>