<svg xmlns="http://www.w3.org/2000/svg" xmlns:xlink="http://www.w3.org/1999/xlink" id="body_1" preserveAspectRatio="xMinYMin meet" viewBox="0 0 793 1121"><defs><clipPath id="1"><path clip-rule="evenodd" d="M0 841L0 -0.9000244L0 -0.9000244L595.3 -0.9000244L595.3 -0.9000244L595.3 841L595.3 841L0 841z" /></clipPath></defs><g transform="matrix(1.333333 0 0 1.333333 0 0)"><g><g clip-path="url(#1)"><g transform="matrix(0.7503554 0 0 0.7501622 211.824 59.24402)"><g transform="matrix(1 0 0 1 0 0)"><image x="0" y="0" xlink:href="img_01.png" width="287" height="74" /></g></g><path transform="matrix(1 0 0 -1 0 841)" d="M237 356.454L475.235 356.454" stroke="#000000" stroke-width="0.8000001" fill="none" /><path transform="matrix(1 0 0 -1 0 841)" d="M237 328.6L480.578 328.6" stroke="#000000" stroke-width="0.8" fill="none" /><path transform="matrix(1 0 0 -1 0 841)" d="M233.406 303.254L475.328 303.254" stroke="#000000" stroke-width="0.8000001" fill="none" /><path transform="matrix(1 0 0 -1 0 841)" d="M237 272.054L480.937 272.054" stroke="#000000" stroke-width="0.8" fill="none" /><path transform="matrix(1 0 0 -1 0 841)" d="M239.75 240.854L478.953 240.854" stroke="#000000" stroke-width="0.8" fill="none" /><path transform="matrix(1 0 0 -1 0 841)" d="M236.484 209.654L475.687 209.654" stroke="#000000" stroke-width="0.8" fill="none" /><path transform="matrix(1 0 0 -1 0 841)" d="M237 178.454L479.734 178.454" stroke="#000000" stroke-width="0.8000001" fill="none" /><path transform="matrix(1 0 0 -1 0 841)" d="M237 147.254L478.719 147.254" stroke="#000000" stroke-width="0.8" fill="none" /></g></g></g></svg>