<svg xmlns="http://www.w3.org/2000/svg" xmlns:xlink="http://www.w3.org/1999/xlink" id="body_2" preserveAspectRatio="xMinYMin meet" viewBox="0 0 793 1123"><defs><clipPath id="1"><path clip-rule="evenodd" d="M0 842L0 0L0 0L595.35 0L595.35 0L595.35 842L595.35 842L0 842z" /></clipPath><clipPath id="2"><path clip-rule="evenodd" d="M0 51L595.35 51L595.35 51L595.35 64.79901L595.35 64.79901L0 64.79901z" /></clipPath><clipPath id="3"><path clip-rule="evenodd" d="M65.25 148.881L536.3 148.881L536.3 148.881L536.3 782.793L536.3 782.793L65.25 782.793z" /></clipPath><clipPath id="4"><path clip-rule="evenodd" d="M66.7 148.881L134.65 148.881L134.65 148.881L134.65 171.7811L134.65 171.7811L66.7 171.7811z" /></clipPath><clipPath id="5"><path clip-rule="evenodd" d="M133.15 148.881L534.85 148.881L534.85 148.881L534.85 171.7811L534.85 171.7811L133.15 171.7811z" /></clipPath><clipPath id="6"><path clip-rule="evenodd" d="M66.7 170.2811L134.65 170.2811L134.65 170.2811L134.65 213.4491L134.65 213.4491L66.7 213.4491z" /></clipPath><clipPath id="7"><path clip-rule="evenodd" d="M133.15 170.2811L195.6 170.2811L195.6 170.2811L195.6 213.4491L195.6 213.4491L133.15 213.4491z" /></clipPath><clipPath id="8"><path clip-rule="evenodd" d="M194.1 170.2811L256.55 170.2811L256.55 170.2811L256.55 213.4491L256.55 213.4491L194.1 213.4491z" /></clipPath><clipPath id="9"><path clip-rule="evenodd" d="M255.05 170.2811L343.7 170.2811L343.7 170.2811L343.7 213.4491L343.7 213.4491L255.05 213.4491z" /></clipPath><clipPath id="10"><path clip-rule="evenodd" d="M342.2 170.2811L430.8 170.2811L430.8 170.2811L430.8 213.4491L430.8 213.4491L342.2 213.4491z" /></clipPath><clipPath id="11"><path clip-rule="evenodd" d="M429.3 170.2811L534.85 170.2811L534.85 170.2811L534.85 213.4491L534.85 213.4491L429.3 213.4491z" /></clipPath><clipPath id="12"><path clip-rule="evenodd" d="M66.7 211.9491L534.85 211.9491L534.85 211.9491L534.85 358.0371L534.85 358.0371L66.7 358.0371z" /></clipPath><clipPath id="13"><path clip-rule="evenodd" d="M66.7 356.537L534.85 356.537L534.85 356.537L534.85 482.041L534.85 482.041L66.7 482.041z" /></clipPath><clipPath id="14"><path clip-rule="evenodd" d="M66.7 480.541L534.85 480.541L534.85 480.541L534.85 658.7891L534.85 658.7891L66.7 658.7891z" /></clipPath><clipPath id="15"><path clip-rule="evenodd" d="M66.7 657.2891L534.85 657.2891L534.85 657.2891L534.85 782.793L534.85 782.793L66.7 782.793z" /></clipPath><clipPath id="16"><path clip-rule="evenodd" d="M65.25 148.881L536.3 148.881L536.3 148.881L536.3 782.793L536.3 782.793L65.25 782.793z" /></clipPath></defs><g transform="matrix(1.333333 0 0 1.333333 0 0)"><g><g clip-path="url(#1)"><g clip-path="url(#2)"></g><g clip-path="url(#3)"></g><g clip-path="url(#4)"></g><g clip-path="url(#5)"></g><g clip-path="url(#6)"></g><g clip-path="url(#7)"></g><g clip-path="url(#8)"></g><g clip-path="url(#9)"></g><g clip-path="url(#10)"></g><g clip-path="url(#11)"></g><g clip-path="url(#12)"></g><g clip-path="url(#13)"></g><g clip-path="url(#14)"></g><g clip-path="url(#15)"></g><path transform="matrix(1 0 0 -1 0 842)" d="M133.9 692.119L133.9 671.2189" stroke="#000000" stroke-width="0.5" fill="none" /><path transform="matrix(1 0 0 -1 0 842)" d="M133.9 670.7189L133.9 629.551" stroke="#000000" stroke-width="0.5" fill="none" /><path transform="matrix(1 0 0 -1 0 842)" d="M194.85 670.7189L194.85 629.551" stroke="#000000" stroke-width="0.5" fill="none" /><path transform="matrix(1 0 0 -1 0 842)" d="M255.8 670.7189L255.8 629.551" stroke="#000000" stroke-width="0.5" fill="none" /><path transform="matrix(1 0 0 -1 0 842)" d="M342.95 670.7189L342.95 629.551" stroke="#000000" stroke-width="0.5" fill="none" /><path transform="matrix(1 0 0 -1 0 842)" d="M430.05 670.7189L430.05 629.551" stroke="#000000" stroke-width="0.5" fill="none" /><path transform="matrix(1 0 0 -1 0 842)" d="M67.7 670.9689L533.85 670.9689" stroke="#000000" stroke-width="0.5" fill="none" /><path transform="matrix(1 0 0 -1 0 842)" d="M67.7 629.301L533.85 629.301" stroke="#000000" stroke-width="0.5" fill="none" /><path transform="matrix(1 0 0 -1 0 842)" d="M67.7 484.713L533.85 484.713" stroke="#000000" stroke-width="0.5" fill="none" /><path transform="matrix(1 0 0 -1 0 842)" d="M67.7 360.709L533.85 360.709" stroke="#000000" stroke-width="0.5" fill="none" /><path transform="matrix(1 0 0 -1 0 842)" d="M67.7 183.9609L533.85 183.9609" stroke="#000000" stroke-width="0.5" fill="none" /><g clip-path="url(#16)"></g><path transform="matrix(1 0 0 -1 0 842)" d="M65.5 692.119L65.5 60.20697" stroke="#000000" stroke-width="1.5" fill="none" /><path transform="matrix(1 0 0 -1 0 842)" d="M536.05 692.119L536.05 60.20697" stroke="#000000" stroke-width="1.5" fill="none" /><path transform="matrix(1 0 0 -1 0 842)" d="M64.75 692.869L536.8 692.869" stroke="#000000" stroke-width="1.5" fill="none" /><path transform="matrix(1 0 0 -1 0 842)" d="M64.75 59.45697L536.8 59.45697" stroke="#000000" stroke-width="1.5" fill="none" /></g></g></g></svg>