<svg xmlns="http://www.w3.org/2000/svg" xmlns:xlink="http://www.w3.org/1999/xlink" id="body_1" preserveAspectRatio="xMinYMin meet" viewBox="0 0 793 1121"><defs><clipPath id="1"><path clip-rule="evenodd" d="M0 841L0 -0.9500122L0 -0.9500122L595.35 -0.9500122L595.35 -0.9500122L595.35 841L595.35 841L0 841z" /></clipPath><clipPath id="2"><path clip-rule="evenodd" d="M0 779.201L595.35 779.201L595.35 779.201L595.35 791.4L595.35 791.4L0 791.4z" /></clipPath><clipPath id="3"><path clip-rule="evenodd" d="M-1512.025 -1416.2L1655.975 -1416.2L1655.975 -1416.2L1655.975 1751.8L1655.975 1751.8L-1512.025 1751.8z" /></clipPath><clipPath id="4"><path clip-rule="evenodd" d="M71.225 167.3L118.875 167.3L118.875 167.3L118.875 210.468L118.875 210.468L71.225 210.468z" /></clipPath><clipPath id="5"><path clip-rule="evenodd" d="M117.375 167.3L152.625 167.3L152.625 167.3L152.625 210.468L152.625 210.468L117.375 210.468z" /></clipPath><clipPath id="6"><path clip-rule="evenodd" d="M151.125 167.3L186.425 167.3L186.425 167.3L186.425 210.468L186.425 210.468L151.125 210.468z" /></clipPath><clipPath id="7"><path clip-rule="evenodd" d="M184.925 167.3L220.225 167.3L220.225 167.3L220.225 210.468L220.225 210.468L184.925 210.468z" /></clipPath><clipPath id="8"><path clip-rule="evenodd" d="M218.725 167.3L254.075 167.3L254.075 167.3L254.075 210.468L254.075 210.468L218.725 210.468z" /></clipPath><clipPath id="9"><path clip-rule="evenodd" d="M252.575 167.3L287.425 167.3L287.425 167.3L287.425 210.468L287.425 210.468L252.575 210.468z" /></clipPath><clipPath id="10"><path clip-rule="evenodd" d="M285.925 167.3L321.225 167.3L321.225 167.3L321.225 210.468L321.225 210.468L285.925 210.468z" /></clipPath><clipPath id="11"><path clip-rule="evenodd" d="M319.725 167.3L355.025 167.3L355.025 167.3L355.025 210.468L355.025 210.468L319.725 210.468z" /></clipPath><clipPath id="12"><path clip-rule="evenodd" d="M353.525 167.3L388.825 167.3L388.825 167.3L388.825 210.468L388.825 210.468L353.525 210.468z" /></clipPath><clipPath id="13"><path clip-rule="evenodd" d="M387.325 167.3L422.675 167.3L422.675 167.3L422.675 210.468L422.675 210.468L387.325 210.468z" /></clipPath><clipPath id="14"><path clip-rule="evenodd" d="M421.175 167.3L456.475 167.3L456.475 167.3L456.475 210.468L456.475 210.468L421.175 210.468z" /></clipPath><clipPath id="15"><path clip-rule="evenodd" d="M454.975 167.3L490.275 167.3L490.275 167.3L490.275 210.468L490.275 210.468L454.975 210.468z" /></clipPath><clipPath id="16"><path clip-rule="evenodd" d="M488.775 167.3L524.1249 167.3L524.1249 167.3L524.1249 210.468L524.1249 210.468L488.775 210.468z" /></clipPath><clipPath id="17"><path clip-rule="evenodd" d="M71.225 208.968L118.875 208.968L118.875 208.968L118.875 231.552L118.875 231.552L71.225 231.552z" /></clipPath><clipPath id="18"><path clip-rule="evenodd" d="M117.375 208.968L152.625 208.968L152.625 208.968L152.625 231.552L152.625 231.552L117.375 231.552z" /></clipPath><clipPath id="19"><path clip-rule="evenodd" d="M151.125 208.968L186.425 208.968L186.425 208.968L186.425 231.552L186.425 231.552L151.125 231.552z" /></clipPath><clipPath id="20"><path clip-rule="evenodd" d="M184.925 208.968L220.225 208.968L220.225 208.968L220.225 231.552L220.225 231.552L184.925 231.552z" /></clipPath><clipPath id="21"><path clip-rule="evenodd" d="M218.725 208.968L254.075 208.968L254.075 208.968L254.075 231.552L254.075 231.552L218.725 231.552z" /></clipPath><clipPath id="22"><path clip-rule="evenodd" d="M252.575 208.968L287.425 208.968L287.425 208.968L287.425 231.552L287.425 231.552L252.575 231.552z" /></clipPath><clipPath id="23"><path clip-rule="evenodd" d="M285.925 208.968L321.225 208.968L321.225 208.968L321.225 231.552L321.225 231.552L285.925 231.552z" /></clipPath><clipPath id="24"><path clip-rule="evenodd" d="M319.725 208.968L355.025 208.968L355.025 208.968L355.025 231.552L355.025 231.552L319.725 231.552z" /></clipPath><clipPath id="25"><path clip-rule="evenodd" d="M353.525 208.968L388.825 208.968L388.825 208.968L388.825 231.552L388.825 231.552L353.525 231.552z" /></clipPath><clipPath id="26"><path clip-rule="evenodd" d="M387.325 208.968L422.675 208.968L422.675 208.968L422.675 231.552L422.675 231.552L387.325 231.552z" /></clipPath><clipPath id="27"><path clip-rule="evenodd" d="M421.175 208.968L456.475 208.968L456.475 208.968L456.475 231.552L456.475 231.552L421.175 231.552z" /></clipPath><clipPath id="28"><path clip-rule="evenodd" d="M454.975 208.968L490.275 208.968L490.275 208.968L490.275 231.552L490.275 231.552L454.975 231.552z" /></clipPath><clipPath id="29"><path clip-rule="evenodd" d="M488.775 208.968L524.1249 208.968L524.1249 208.968L524.1249 231.552L524.1249 231.552L488.775 231.552z" /></clipPath><clipPath id="30"><path clip-rule="evenodd" d="M71.225 230.052L118.875 230.052L118.875 230.052L118.875 252.636L118.875 252.636L71.225 252.636z" /></clipPath><clipPath id="31"><path clip-rule="evenodd" d="M117.375 230.052L152.625 230.052L152.625 230.052L152.625 252.636L152.625 252.636L117.375 252.636z" /></clipPath><clipPath id="32"><path clip-rule="evenodd" d="M151.125 230.052L186.425 230.052L186.425 230.052L186.425 252.636L186.425 252.636L151.125 252.636z" /></clipPath><clipPath id="33"><path clip-rule="evenodd" d="M184.925 230.052L220.225 230.052L220.225 230.052L220.225 252.636L220.225 252.636L184.925 252.636z" /></clipPath><clipPath id="34"><path clip-rule="evenodd" d="M218.725 230.052L254.075 230.052L254.075 230.052L254.075 252.636L254.075 252.636L218.725 252.636z" /></clipPath><clipPath id="35"><path clip-rule="evenodd" d="M252.575 230.052L287.425 230.052L287.425 230.052L287.425 252.636L287.425 252.636L252.575 252.636z" /></clipPath><clipPath id="36"><path clip-rule="evenodd" d="M285.925 230.052L321.225 230.052L321.225 230.052L321.225 252.636L321.225 252.636L285.925 252.636z" /></clipPath><clipPath id="37"><path clip-rule="evenodd" d="M319.725 230.052L355.025 230.052L355.025 230.052L355.025 252.636L355.025 252.636L319.725 252.636z" /></clipPath><clipPath id="38"><path clip-rule="evenodd" d="M353.525 230.052L388.825 230.052L388.825 230.052L388.825 252.636L388.825 252.636L353.525 252.636z" /></clipPath><clipPath id="39"><path clip-rule="evenodd" d="M387.325 230.052L422.675 230.052L422.675 230.052L422.675 252.636L422.675 252.636L387.325 252.636z" /></clipPath><clipPath id="40"><path clip-rule="evenodd" d="M421.175 230.052L456.475 230.052L456.475 230.052L456.475 252.636L456.475 252.636L421.175 252.636z" /></clipPath><clipPath id="41"><path clip-rule="evenodd" d="M454.975 230.052L490.275 230.052L490.275 230.052L490.275 252.636L490.275 252.636L454.975 252.636z" /></clipPath><clipPath id="42"><path clip-rule="evenodd" d="M488.775 230.052L524.1249 230.052L524.1249 230.052L524.1249 252.636L524.1249 252.636L488.775 252.636z" /></clipPath><clipPath id="43"><path clip-rule="evenodd" d="M-1068.3 -1426.65L2099.7 -1426.65L2099.7 -1426.65L2099.7 1741.35L2099.7 1741.35L-1068.3 1741.35z" /></clipPath><clipPath id="44"><path clip-rule="evenodd" d="M514.95 156.85L575.85 156.85L575.85 156.85L575.85 174.288L575.85 174.288L514.95 174.288z" /></clipPath><clipPath id="45"><path clip-rule="evenodd" d="M514.95 172.7881L575.85 172.7881L575.85 172.7881L575.85 190.2261L575.85 190.2261L514.95 190.2261z" /></clipPath><clipPath id="46"><path clip-rule="evenodd" d="M55.54999 82.15002L513.3 82.15002L513.3 82.15002L513.3 137.5L513.3 137.5L55.54999 137.5z" /></clipPath><clipPath id="47"><path clip-rule="evenodd" d="M58.75 354.636L495.4999 354.636L495.4999 354.636L495.4999 370.836L495.4999 370.836L58.75 370.836z" /></clipPath></defs><g transform="matrix(1.333333 0 0 1.333333 0 0)"><g><g clip-path="url(#1)"><g clip-path="url(#2)"></g><g clip-path="url(#3)"><g clip-path="url(#4)"></g><g clip-path="url(#5)"></g><g clip-path="url(#6)"></g><g clip-path="url(#7)"></g><g clip-path="url(#8)"></g><g clip-path="url(#9)"></g><g clip-path="url(#10)"></g><g clip-path="url(#11)"></g><g clip-path="url(#12)"></g><g clip-path="url(#13)"></g><g clip-path="url(#14)"></g><g clip-path="url(#15)"></g><g clip-path="url(#16)"></g><g clip-path="url(#17)"></g><g clip-path="url(#18)"></g><g clip-path="url(#19)"></g><g clip-path="url(#20)"></g><g clip-path="url(#21)"></g><g clip-path="url(#22)"></g><g clip-path="url(#23)"></g><g clip-path="url(#24)"></g><g clip-path="url(#25)"></g><g clip-path="url(#26)"></g><g clip-path="url(#27)"></g><g clip-path="url(#28)"></g><g clip-path="url(#29)"></g><g clip-path="url(#30)"></g><g clip-path="url(#31)"></g><g clip-path="url(#32)"></g><g clip-path="url(#33)"></g><g clip-path="url(#34)"></g><g clip-path="url(#35)"></g><g clip-path="url(#36)"></g><g clip-path="url(#37)"></g><g clip-path="url(#38)"></g><g clip-path="url(#39)"></g><g clip-path="url(#40)"></g><g clip-path="url(#41)"></g><g clip-path="url(#42)"></g><path transform="matrix(1 0 0 -1 0 841)" d="M71.975 672.7L71.975 589.364" stroke="#000000" stroke-width="0.5" fill="none" /><path transform="matrix(1 0 0 -1 0 841)" d="M118.125 672.7L118.125 631.532" stroke="#000000" stroke-width="0.5" fill="none" /><path transform="matrix(1 0 0 -1 0 841)" d="M118.125 631.032L118.125 610.448" stroke="#000000" stroke-width="0.5" fill="none" /><path transform="matrix(1 0 0 -1 0 841)" d="M118.125 609.948L118.125 589.364" stroke="#000000" stroke-width="0.5" fill="none" /><path transform="matrix(1 0 0 -1 0 841)" d="M151.875 672.7L151.875 631.532" stroke="#000000" stroke-width="0.5" fill="none" /><path transform="matrix(1 0 0 -1 0 841)" d="M151.875 631.032L151.875 610.448" stroke="#000000" stroke-width="0.5" fill="none" /><path transform="matrix(1 0 0 -1 0 841)" d="M151.875 609.948L151.875 589.364" stroke="#000000" stroke-width="0.5" fill="none" /><path transform="matrix(1 0 0 -1 0 841)" d="M185.675 672.7L185.675 631.532" stroke="#000000" stroke-width="0.5" fill="none" /><path transform="matrix(1 0 0 -1 0 841)" d="M185.675 631.032L185.675 610.448" stroke="#000000" stroke-width="0.5" fill="none" /><path transform="matrix(1 0 0 -1 0 841)" d="M185.675 609.948L185.675 589.364" stroke="#000000" stroke-width="0.5" fill="none" /><path transform="matrix(1 0 0 -1 0 841)" d="M219.475 672.7L219.475 631.532" stroke="#000000" stroke-width="0.5" fill="none" /><path transform="matrix(1 0 0 -1 0 841)" d="M219.475 631.032L219.475 610.448" stroke="#000000" stroke-width="0.5" fill="none" /><path transform="matrix(1 0 0 -1 0 841)" d="M219.475 609.948L219.475 589.364" stroke="#000000" stroke-width="0.5" fill="none" /><path transform="matrix(1 0 0 -1 0 841)" d="M253.325 672.7L253.325 631.532" stroke="#000000" stroke-width="0.5" fill="none" /><path transform="matrix(1 0 0 -1 0 841)" d="M253.325 631.032L253.325 610.448" stroke="#000000" stroke-width="0.5" fill="none" /><path transform="matrix(1 0 0 -1 0 841)" d="M253.325 609.948L253.325 589.364" stroke="#000000" stroke-width="0.5" fill="none" /><path transform="matrix(1 0 0 -1 0 841)" d="M286.675 672.7L286.675 631.532" stroke="#000000" stroke-width="0.5" fill="none" /><path transform="matrix(1 0 0 -1 0 841)" d="M286.675 631.032L286.675 610.448" stroke="#000000" stroke-width="0.5" fill="none" /><path transform="matrix(1 0 0 -1 0 841)" d="M286.675 609.948L286.675 589.364" stroke="#000000" stroke-width="0.5" fill="none" /><path transform="matrix(1 0 0 -1 0 841)" d="M320.475 672.7L320.475 631.532" stroke="#000000" stroke-width="0.5" fill="none" /><path transform="matrix(1 0 0 -1 0 841)" d="M320.475 631.032L320.475 610.448" stroke="#000000" stroke-width="0.5" fill="none" /><path transform="matrix(1 0 0 -1 0 841)" d="M320.475 609.948L320.475 589.364" stroke="#000000" stroke-width="0.5" fill="none" /><path transform="matrix(1 0 0 -1 0 841)" d="M354.275 672.7L354.275 631.532" stroke="#000000" stroke-width="0.5" fill="none" /><path transform="matrix(1 0 0 -1 0 841)" d="M354.275 631.032L354.275 610.448" stroke="#000000" stroke-width="0.5" fill="none" /><path transform="matrix(1 0 0 -1 0 841)" d="M354.275 609.948L354.275 589.364" stroke="#000000" stroke-width="0.5" fill="none" /><path transform="matrix(1 0 0 -1 0 841)" d="M388.075 672.7L388.075 631.532" stroke="#000000" stroke-width="0.5" fill="none" /><path transform="matrix(1 0 0 -1 0 841)" d="M388.075 631.032L388.075 610.448" stroke="#000000" stroke-width="0.5" fill="none" /><path transform="matrix(1 0 0 -1 0 841)" d="M388.075 609.948L388.075 589.364" stroke="#000000" stroke-width="0.5" fill="none" /><path transform="matrix(1 0 0 -1 0 841)" d="M421.925 672.7L421.925 631.532" stroke="#000000" stroke-width="0.5" fill="none" /><path transform="matrix(1 0 0 -1 0 841)" d="M421.925 631.032L421.925 610.448" stroke="#000000" stroke-width="0.5" fill="none" /><path transform="matrix(1 0 0 -1 0 841)" d="M421.925 609.948L421.925 589.364" stroke="#000000" stroke-width="0.5" fill="none" /><path transform="matrix(1 0 0 -1 0 841)" d="M455.725 672.7L455.725 631.532" stroke="#000000" stroke-width="0.5" fill="none" /><path transform="matrix(1 0 0 -1 0 841)" d="M455.725 631.032L455.725 610.448" stroke="#000000" stroke-width="0.5" fill="none" /><path transform="matrix(1 0 0 -1 0 841)" d="M455.725 609.948L455.725 589.364" stroke="#000000" stroke-width="0.5" fill="none" /><path transform="matrix(1 0 0 -1 0 841)" d="M489.525 672.7L489.525 631.532" stroke="#000000" stroke-width="0.5" fill="none" /><path transform="matrix(1 0 0 -1 0 841)" d="M489.525 631.032L489.525 610.448" stroke="#000000" stroke-width="0.5" fill="none" /><path transform="matrix(1 0 0 -1 0 841)" d="M489.525 609.948L489.525 589.364" stroke="#000000" stroke-width="0.5" fill="none" /><path transform="matrix(1 0 0 -1 0 841)" d="M523.375 672.7L523.375 589.364" stroke="#000000" stroke-width="0.5" fill="none" /><path transform="matrix(1 0 0 -1 0 841)" d="M71.725 672.95L523.625 672.95" stroke="#000000" stroke-width="0.5" fill="none" /><path transform="matrix(1 0 0 -1 0 841)" d="M72.225 631.282L523.125 631.282" stroke="#000000" stroke-width="0.5" fill="none" /><path transform="matrix(1 0 0 -1 0 841)" d="M72.225 610.198L523.125 610.198" stroke="#000000" stroke-width="0.5" fill="none" /><path transform="matrix(1 0 0 -1 0 841)" d="M71.725 589.114L523.625 589.114" stroke="#000000" stroke-width="0.5" fill="none" /></g><g clip-path="url(#43)"><g clip-path="url(#44)"></g><g clip-path="url(#45)"></g><path transform="matrix(1 0 0 -1 0 841)" d="M515.7 683.15L515.7 651.774" stroke="#000000" stroke-width="0.5" fill="none" /><path transform="matrix(1 0 0 -1 0 841)" d="M575.1 683.15L575.1 651.774" stroke="#000000" stroke-width="0.5" fill="none" /><path transform="matrix(1 0 0 -1 0 841)" d="M515.45 683.4L575.35 683.4" stroke="#000000" stroke-width="0.5" fill="none" /><path transform="matrix(1 0 0 -1 0 841)" d="M515.95 667.462L574.85 667.462" stroke="#000000" stroke-width="0.5" fill="none" /><path transform="matrix(1 0 0 -1 0 841)" d="M515.45 651.524L575.35 651.524" stroke="#000000" stroke-width="0.5" fill="none" /></g><path transform="matrix(1 0 0 -1 0 841)" d="M61.3 762.45L61.3 699.9L61.3 699.9L507.55 699.9L507.55 699.9L507.55 762.45z" stroke="none" fill="#FFFFFF" fill-rule="evenodd" /><g clip-path="url(#46)"></g><path transform="matrix(1 0 0 -1 0 841)" d="M64.5 489.964L64.5 466.564L64.5 466.564L489.75 466.564L489.75 466.564L489.75 489.964z" stroke="none" fill="#FFFFFF" fill-rule="evenodd" /><g clip-path="url(#47)"></g></g></g></g></svg>