<svg xmlns="http://www.w3.org/2000/svg" xmlns:xlink="http://www.w3.org/1999/xlink" id="body_3" preserveAspectRatio="xMinYMin meet" viewBox="0 0 793 1121"><defs><clipPath id="1"><path clip-rule="evenodd" d="M0 841L0 -0.9500122L0 -0.9500122L595.35 -0.9500122L595.35 -0.9500122L595.35 841L595.35 841L0 841z" /></clipPath><clipPath id="2"><path clip-rule="evenodd" d="M0 779.201L595.35 779.201L595.35 779.201L595.35 791.4L595.35 791.4L0 791.4z" /></clipPath></defs><g transform="matrix(1.333333 0 0 1.333333 0 0)"><g><g clip-path="url(#1)"><g clip-path="url(#2)"></g><path transform="matrix(1 0 0 -1 0 841)" d="M223.477 655.09L241.231 655.09" stroke="#000000" stroke-width="0.6" fill="none" /><path transform="matrix(1 0 0 -1 0 841)" d="M300.61 561.49L314.813 561.49" stroke="#000000" stroke-width="0.6" fill="none" /><path transform="matrix(1 0 0 -1 0 841)" d="M214.963 499.09L232.717 499.09" stroke="#000000" stroke-width="0.6" fill="none" /><path transform="matrix(1 0 0 -1 0 841)" d="M290.514 436.69L308.268 436.69" stroke="#000000" stroke-width="0.6" fill="none" /><path transform="matrix(1 0 0 -1 0 841)" d="M329.608 280.69L347.362 280.69" stroke="#000000" stroke-width="0.6" fill="none" /><path transform="matrix(1 0 0 -1 0 841)" d="M246 187.09L267.305 187.09" stroke="#000000" stroke-width="0.6" fill="none" /></g></g></g></svg>