<svg xmlns="http://www.w3.org/2000/svg" xmlns:xlink="http://www.w3.org/1999/xlink" id="body_5" preserveAspectRatio="xMinYMin meet" viewBox="0 0 793 1121"><defs><clipPath id="1"><path clip-rule="evenodd" d="M0 841L0 -0.9500122L0 -0.9500122L595.35 -0.9500122L595.35 -0.9500122L595.35 841L595.35 841L0 841z" /></clipPath><clipPath id="2"><path clip-rule="evenodd" d="M0 779.201L595.35 779.201L595.35 779.201L595.35 791.4L595.35 791.4L0 791.4z" /></clipPath><clipPath id="3"><path clip-rule="evenodd" d="M-1499.4 -1204.8L1668.6 -1204.8L1668.6 -1204.8L1668.6 1963.2L1668.6 1963.2L-1499.4 1963.2z" /></clipPath><clipPath id="4"><path clip-rule="evenodd" d="M83.85 378.7L144.75 378.7L144.75 378.7L144.75 396.138L144.75 396.138L83.85 396.138z" /></clipPath><clipPath id="5"><path clip-rule="evenodd" d="M83.85 394.638L144.75 394.638L144.75 394.638L144.75 418.538L144.75 418.538L83.85 418.538z" /></clipPath></defs><g transform="matrix(1.333333 0 0 1.333333 0 0)"><g><g clip-path="url(#1)"><g clip-path="url(#2)"></g><path transform="matrix(1 0 0 -1 0 841)" d="M223.148 686.29L237.351 686.29" stroke="#000000" stroke-width="0.6" fill="none" /><path transform="matrix(1 0 0 -1 0 841)" d="M278.033 686.29L292.236 686.29" stroke="#000000" stroke-width="0.6" fill="none" /><path transform="matrix(1 0 0 -1 0 841)" d="M335.701 686.29L349.904 686.29" stroke="#000000" stroke-width="0.6" fill="none" /><path transform="matrix(1 0 0 -1 0 841)" d="M382.347 686.29L400.101 686.29" stroke="#000000" stroke-width="0.6" fill="none" /><path transform="matrix(1 0 0 -1 0 841)" d="M468.65 686.29L486.404 686.29" stroke="#000000" stroke-width="0.6" fill="none" /><path transform="matrix(1 0 0 -1 0 841)" d="M300.305 530.29L325.16 530.29" stroke="#000000" stroke-width="0.6" fill="none" /><path transform="matrix(1 0 0 -1 0 841)" d="M254.567 311.89L297.176 311.89" stroke="#000000" stroke-width="0.6" fill="none" /><path transform="matrix(1 0 0 -1 0 841)" d="M265.037 280.69L314.748 280.69" stroke="#000000" stroke-width="0.6" fill="none" /><path transform="matrix(1 0 0 -1 0 841)" d="M326.748 280.69L376.459 280.69" stroke="#000000" stroke-width="0.6" fill="none" /><path transform="matrix(1 0 0 -1 0 841)" d="M388.459 280.69L441.721 280.69" stroke="#000000" stroke-width="0.6" fill="none" /><path transform="matrix(1 0 0 -1 0 841)" d="M433.037 249.49L464.994 249.49" stroke="#000000" stroke-width="0.6" fill="none" /><path transform="matrix(1 0 0 -1 0 841)" d="M210 155.89L249.059 155.89" stroke="#000000" stroke-width="0.6" fill="none" /><g clip-path="url(#3)"><g clip-path="url(#4)"></g><g clip-path="url(#5)"></g><path transform="matrix(1 0 0 -1 0 841)" d="M84.6 461.3L84.6 423.462" stroke="#000000" stroke-width="0.5" fill="none" /><path transform="matrix(1 0 0 -1 0 841)" d="M144 461.3L144 423.462" stroke="#000000" stroke-width="0.5" fill="none" /><path transform="matrix(1 0 0 -1 0 841)" d="M84.35 461.55L144.25 461.55" stroke="#000000" stroke-width="0.5" fill="none" /><path transform="matrix(1 0 0 -1 0 841)" d="M84.85 445.612L143.75 445.612" stroke="#000000" stroke-width="0.5" fill="none" /><path transform="matrix(1 0 0 -1 0 841)" d="M84.35 423.212L144.25 423.212" stroke="#000000" stroke-width="0.5" fill="none" /></g></g></g></g></svg>