<svg xmlns="http://www.w3.org/2000/svg" xmlns:xlink="http://www.w3.org/1999/xlink" id="body_2" preserveAspectRatio="xMinYMin meet" viewBox="0 0 793 1121"><defs><clipPath id="1"><path clip-rule="evenodd" d="M0 841L0 -0.9000244L0 -0.9000244L595.3 -0.9000244L595.3 -0.9000244L595.3 841L595.3 841L0 841z" /></clipPath><clipPath id="2"><path clip-rule="evenodd" d="M0 41.65002L595.3 41.65002L595.3 41.65002L595.3 69.24805L595.3 69.24805L0 69.24805z" /></clipPath><clipPath id="3"><path clip-rule="evenodd" d="M0 781.051L595.3 781.051L595.3 781.051L595.3 791.4L595.3 791.4L0 791.4z" /></clipPath><clipPath id="4"><path clip-rule="evenodd" d="M294.253 780.501L301.047 780.501L301.047 780.501L301.047 792.0499L301.047 792.0499L294.253 792.0499z" /></clipPath><clipPath id="5"><path clip-rule="evenodd" d="M84.35 71.59998L569.1 71.59998L569.1 71.59998L569.1 759.5L569.1 759.5L84.35 759.5z" /></clipPath><clipPath id="6"><path clip-rule="evenodd" d="M-1494 -1512.9L1674 -1512.9L1674 -1512.9L1674 1655.1L1674 1655.1L-1494 1655.1z" /></clipPath><clipPath id="7"><path clip-rule="evenodd" d="M89 70.09998L190.75 70.09998L190.75 70.09998L190.75 94.75L190.75 94.75L89 94.75z" /></clipPath><clipPath id="8"><path clip-rule="evenodd" d="M189.25 70.09998L564.45 70.09998L564.45 70.09998L564.45 94.75L564.45 94.75L189.25 94.75z" /></clipPath><clipPath id="9"><path clip-rule="evenodd" d="M89 93.25L190.75 93.25L190.75 93.25L190.75 136.418L190.75 136.418L89 136.418z" /></clipPath><clipPath id="10"><path clip-rule="evenodd" d="M189.25 93.25L240.35 93.25L240.35 93.25L240.35 136.418L240.35 136.418L189.25 136.418z" /></clipPath><clipPath id="11"><path clip-rule="evenodd" d="M238.85 93.25L285.15 93.25L285.15 93.25L285.15 136.418L285.15 136.418L238.85 136.418z" /></clipPath><clipPath id="12"><path clip-rule="evenodd" d="M283.65 93.25L375.2 93.25L375.2 93.25L375.2 136.418L375.2 136.418L283.65 136.418z" /></clipPath><clipPath id="13"><path clip-rule="evenodd" d="M373.7 93.25L460.05 93.25L460.05 93.25L460.05 136.418L460.05 136.418L373.7 136.418z" /></clipPath><clipPath id="14"><path clip-rule="evenodd" d="M458.55 93.25L564.45 93.25L564.45 93.25L564.45 136.418L564.45 136.418L458.55 136.418z" /></clipPath><clipPath id="15"><path clip-rule="evenodd" d="M89 134.918L564.45 134.918L564.45 134.918L564.45 495.294L564.45 495.294L89 495.294z" /></clipPath><clipPath id="16"><path clip-rule="evenodd" d="M89 493.794L564.45 493.794L564.45 493.794L564.45 727.85L564.45 727.85L89 727.85z" /></clipPath><clipPath id="17"><path clip-rule="evenodd" d="M89 726.35L564.45 726.35L564.45 726.35L564.45 759.5L564.45 759.5L89 759.5z" /></clipPath><clipPath id="18"><path clip-rule="evenodd" d="M84.35 71.59998L569.1 71.59998L569.1 71.59998L569.1 759.5L569.1 759.5L84.35 759.5z" /></clipPath><clipPath id="19"><path clip-rule="evenodd" d="M-1494 -1512.9L1674 -1512.9L1674 -1512.9L1674 1655.1L1674 1655.1L-1494 1655.1z" /></clipPath></defs><g transform="matrix(1.333333 0 0 1.333333 0 0)"><g><g clip-path="url(#1)"><g clip-path="url(#2)"></g><g clip-path="url(#3)"></g><g clip-path="url(#4)"></g><g clip-path="url(#5)"><g clip-path="url(#6)"></g></g><g clip-path="url(#7)"></g><g clip-path="url(#8)"></g><g clip-path="url(#9)"></g><g clip-path="url(#10)"></g><g clip-path="url(#11)"></g><g clip-path="url(#12)"></g><g clip-path="url(#13)"></g><g clip-path="url(#14)"></g><g clip-path="url(#15)"></g><g clip-path="url(#16)"></g><g clip-path="url(#17)"></g><path transform="matrix(1 0 0 -1 0 841)" d="M190 769.9L190 747.25" stroke="#000000" stroke-width="0.5" fill="none" /><path transform="matrix(1 0 0 -1 0 841)" d="M190 746.75L190 705.582" stroke="#000000" stroke-width="0.5" fill="none" /><path transform="matrix(1 0 0 -1 0 841)" d="M239.6 746.75L239.6 705.582" stroke="#000000" stroke-width="0.5" fill="none" /><path transform="matrix(1 0 0 -1 0 841)" d="M284.4 746.75L284.4 705.582" stroke="#000000" stroke-width="0.5" fill="none" /><path transform="matrix(1 0 0 -1 0 841)" d="M374.45 746.75L374.45 705.582" stroke="#000000" stroke-width="0.5" fill="none" /><path transform="matrix(1 0 0 -1 0 841)" d="M459.3 746.75L459.3 705.582" stroke="#000000" stroke-width="0.5" fill="none" /><path transform="matrix(1 0 0 -1 0 841)" d="M90 747L563.45 747" stroke="#000000" stroke-width="0.5" fill="none" /><path transform="matrix(1 0 0 -1 0 841)" d="M90 705.332L563.45 705.332" stroke="#000000" stroke-width="0.5" fill="none" /><path transform="matrix(1 0 0 -1 0 841)" d="M90 346.456L563.45 346.456" stroke="#000000" stroke-width="0.5" fill="none" /><path transform="matrix(1 0 0 -1 0 841)" d="M90 113.9L563.45 113.9" stroke="#000000" stroke-width="0.5" fill="none" /><g clip-path="url(#18)"><g clip-path="url(#19)"></g></g><path transform="matrix(1 0 0 -1 0 841)" d="M84.6 768.4L84.6 82.5" stroke="#000000" stroke-width="1.5" fill="none" /><path transform="matrix(1 0 0 -1 0 841)" d="M568.85 768.4L568.85 82.5" stroke="#000000" stroke-width="1.5" fill="none" /><path transform="matrix(1 0 0 -1 0 841)" d="M83.85 769.15L569.6 769.15" stroke="#000000" stroke-width="1.5" fill="none" /><path transform="matrix(1 0 0 -1 0 841)" d="M83.85 81.75L569.6 81.75" stroke="#000000" stroke-width="1.5" fill="none" /></g></g></g></svg>